SplineFontDB: 3.0
FontName: SugoiGame
FullName: SugoiGame
FamilyName: SugoiGame
Weight: Book
Copyright: 2006 by Buccaneer,  Supercarguy.
Version: 2.0 2013
ItalicAngle: 0
UnderlinePosition: -142
UnderlineWidth: 150
Ascent: 1638
Descent: 410
sfntRevision: 0x00010000
LayerCount: 2
Layer: 0 1 "Fundo"  1
Layer: 1 1 "Frente"  0
XUID: [1021 424 1589419553 2826302]
FSType: 8
OS2Version: 1
OS2_WeightWidthSlopeOnly: 0
OS2_UseTypoMetrics: 1
CreationTime: 1159468414
ModificationTime: 1369317727
PfmFamily: 17
TTFWeight: 400
TTFWidth: 5
LineGap: 67
VLineGap: 0
Panose: 2 0 0 0 0 0 0 0 0 0
OS2TypoAscent: -147
OS2TypoAOffset: 1
OS2TypoDescent: -21
OS2TypoDOffset: 1
OS2TypoLinegap: 307
OS2WinAscent: 138
OS2WinAOffset: 1
OS2WinDescent: 34
OS2WinDOffset: 1
HheadAscent: 138
HheadAOffset: 1
HheadDescent: -34
HheadDOffset: 1
OS2SubXSize: 1434
OS2SubYSize: 1331
OS2SubXOff: 0
OS2SubYOff: 283
OS2SupXSize: 1434
OS2SupYSize: 1331
OS2SupXOff: 0
OS2SupYOff: 977
OS2StrikeYSize: 102
OS2StrikeYPos: 530
OS2Vendor: 'HL  '
OS2CodePages: 6000019f.dff70000
OS2UnicodeRanges: a00002af.500078fb.00000000.00000000
Lookup: 258 0 0 "'kern' Horizontal Kerning in Latim lookup 0"  {"'kern' Horizontal Kerning in Latim lookup 0 subtable"  } ['kern' ('latn' <'dflt' > ) ]
MarkAttachClasses: 1
DEI: 91125
ShortTable: maxp 16
  1
  0
  653
  1068
  75
  0
  0
  2
  16
  47
  66
  0
  1036
  0
  0
  0
EndShort
LangName: 1033 "" "" "Regular" "" "" "1.0 September 28, 2006" "" "" "" "" "This font was created using Font Creator 5.0 from High-Logic.com" 
LangName: 1027 "" "" "Normal" 
LangName: 1029 "" "" "oby+AQ0A-ejn+AOkA" 
LangName: 1030 "" "" "normal" 
LangName: 1031 "" "" "Standard" 
LangName: 1032 "" "" "+A5oDsQO9A78DvQO5A7oDrAAA" 
LangName: 1034 "" "" "Normal" 
LangName: 1035 "" "" "Normaali" 
LangName: 1036 "" "" "Normal" 
LangName: 1038 "" "" "Norm+AOEA-l" 
LangName: 1040 "" "" "Normale" 
LangName: 1043 "" "" "Standaard" 
LangName: 1044 "" "" "Normal" 
LangName: 1045 "" "" "Normalny" 
LangName: 1046 "" "" "Normal" 

StartChar: .notdef
Encoding: 65536 -1 0
Width: 1104
Flags: W
LayerCount: 2
Fore
SplineSet
40 -400 m 1,0,-1
 40 880 l 1,1,-1
 1064 880 l 1,2,-1
 1064 -400 l 1,3,-1
 40 -400 l 1,0,-1
72 -368 m 1,4,-1
 1032 -368 l 1,5,-1
 1032 848 l 1,6,-1
 72 848 l 1,7,-1
 72 -368 l 1,4,-1
EndSplineSet
Validated: 1
EndChar

StartChar: exclam
Encoding: 33 33 4
Width: 654
Flags: W
LayerCount: 2
Fore
SplineSet
163 1477 m 1,1,-1
 239 938 l 1,2,3
 304 718 304 718 282 458 c 1,4,5
 273 408 273 408 278 407 c 1,6,-1
 279 406 l 1,7,8
 315 422 315 422 322 442 c 1,9,-1
 324 445 l 1,10,11
 362 657 362 657 277 1024 c 1,12,-1
 193 1559 l 1,13,14
 381 1311 381 1311 368 711 c 1,15,16
 362 610 362 610 354 458 c 1,17,18
 341 424 341 424 384 414 c 1,19,-1
 394 410 l 1,20,-1
 398 419 l 1,21,-1
 404 461 l 1,22,23
 419 626 419 626 464 638 c 1,24,25
 508 966 508 966 497 1222 c 128,-1,26
 486 1478 486 1478 218 1637 c 1,27,-1
 138 1660 l 1,28,0
 148 1558 148 1558 163 1477 c 1,1,-1
326 419 m 1,29,30
 237 352 237 352 192 364 c 1,31,32
 143 356 143 356 135 335 c 1,33,-1
 134 333 l 1,34,35
 130 309 130 309 153 279 c 1,36,-1
 157 278 l 2,37,38
 166 275 166 275 181 304 c 1,39,40
 252 321 252 321 274 331 c 1,41,-1
 277 185 l 1,42,-1
 369 164 l 1,43,44
 403 332 403 332 445 342 c 1,45,46
 469 336 469 336 506 379 c 1,47,-1
 512 394 l 1,48,49
 534 454 534 454 521 473 c 1,50,51
 484 482 484 482 474 473 c 1,52,-1
 471 465 l 1,53,-1
 471 425 l 1,54,55
 454 393 454 393 438 397 c 1,56,57
 433 383 433 383 362 401 c 1,58,-1
 336 419 l 1,59,-1
 326 419 l 1,29,30
235 6 m 1,60,-1
 264 58 l 1,61,-1
 312 101 l 1,62,-1
 386 58 l 1,63,-1
 386 6 l 1,64,-1
 378 6 l 1,65,-1
 357 -47 l 1,66,-1
 320 -57 l 1,67,-1
 268 -47 l 1,68,-1
 235 6 l 1,60,-1
EndSplineSet
Validated: 41
EndChar

StartChar: quotedbl
Encoding: 34 34 5
Width: 698
Flags: W
LayerCount: 2
Fore
SplineSet
164 1503 m 1,0,-1
 189 1548 l 1,1,-1
 232 1585 l 1,2,-1
 296 1548 l 1,3,-1
 296 1503 l 1,4,-1
 288 1503 l 1,5,-1
 271 1456 l 1,6,-1
 146 1325 l 1,7,-1
 112 1363 l 1,8,-1
 164 1503 l 1,0,-1
424 1503 m 1,9,-1
 449 1548 l 1,10,-1
 492 1585 l 1,11,-1
 556 1548 l 1,12,-1
 556 1503 l 1,13,-1
 548 1503 l 1,14,-1
 531 1456 l 1,15,-1
 406 1325 l 1,16,-1
 372 1363 l 1,17,-1
 424 1503 l 1,9,-1
EndSplineSet
Validated: 1
EndChar

StartChar: numbersign
Encoding: 35 35 6
Width: 2250
Flags: W
LayerCount: 2
Fore
SplineSet
1113 1716 m 1,0,-1
 1113 1712 l 1,1,-1
 1057 1552 l 1,2,-1
 1001 1460 l 1,3,4
 1001 1452 1001 1452 985 1452 c 1,5,-1
 969 1412 l 1,6,7
 1208 1349 1208 1349 1341 1276 c 1,8,9
 1441 1216 1441 1216 1557 1108 c 1,10,11
 1695 968 1695 968 1745 968 c 1,12,13
 1810 936 1810 936 1925 936 c 2,14,-1
 1937 936 l 2,15,16
 2022 936 2022 936 2109 948 c 1,17,18
 2109 939 2109 939 2053 924 c 1,19,-1
 2053 920 l 1,20,-1
 2117 912 l 1,21,-1
 2117 904 l 1,22,-1
 2085 904 l 2,23,24
 2047 904 2047 904 2017 872 c 1,25,-1
 2021 872 l 1,26,27
 2041 884 2041 884 2081 888 c 1,28,-1
 2081 880 l 1,29,30
 2064 880 2064 880 2001 820 c 1,31,32
 2053 853 2053 853 2097 856 c 1,33,-1
 2125 848 l 1,34,-1
 2125 844 l 1,35,36
 2054 844 2054 844 1969 760 c 1,37,38
 2047 792 2047 792 2085 792 c 1,39,-1
 2125 780 l 1,40,-1
 2125 776 l 1,41,42
 2066 776 2066 776 1941 668 c 1,43,-1
 1909 644 l 1,44,-1
 1905 644 l 1,45,-1
 1905 640 l 1,46,-1
 1909 640 l 1,47,48
 2037 724 2037 724 2093 724 c 1,49,-1
 2113 720 l 1,50,-1
 2113 716 l 1,51,52
 2069 716 2069 716 1993 640 c 1,53,-1
 1989 640 l 1,54,-1
 1989 636 l 1,55,-1
 1993 636 l 1,56,-1
 2065 648 l 1,57,-1
 2101 640 l 1,58,-1
 2101 636 l 1,59,60
 2026 636 2026 636 1937 580 c 1,61,-1
 1937 576 l 1,62,-1
 1969 568 l 1,63,-1
 2021 576 l 1,64,-1
 2021 572 l 1,65,66
 1970 532 1970 532 1889 532 c 1,67,-1
 1889 528 l 1,68,-1
 1929 524 l 1,69,-1
 1933 524 l 2,70,71
 1995 524 1995 524 2053 560 c 1,72,-1
 2061 560 l 1,73,74
 2035 522 2035 522 1957 484 c 1,75,76
 1891 464 1891 464 1805 456 c 1,77,-1
 1805 452 l 1,78,79
 1861 424 1861 424 1897 424 c 1,80,-1
 2005 444 l 1,81,82
 1964 400 1964 400 1897 380 c 1,83,-1
 1897 376 l 1,84,-1
 1901 376 l 1,85,86
 1954 381 1954 381 2037 444 c 1,87,-1
 2037 440 l 1,88,89
 1989 377 1989 377 1905 340 c 1,90,91
 1761 280 1761 280 1709 280 c 1,92,-1
 1709 276 l 1,93,-1
 1789 264 l 1,94,95
 1789 243 1789 243 1621 236 c 1,96,97
 1384 236 1384 236 1265 440 c 1,98,99
 1155 591 1155 591 1077 632 c 1,100,101
 945 712 945 712 749 712 c 2,102,-1
 649 712 l 2,103,104
 593 712 593 712 593 688 c 1,105,-1
 145 -180 l 1,106,107
 125 -180 125 -180 125 -172 c 1,108,-1
 969 1464 l 1,109,-1
 961 1472 l 1,110,-1
 961 1476 l 1,111,112
 977 1476 977 1476 977 1504 c 1,113,114
 997 1561 997 1561 1017 1588 c 2,115,-1
 1113 1716 l 1,0,-1
941 1372 m 1,116,-1
 673 848 l 1,117,-1
 677 848 l 1,118,119
 886 1125 886 1125 913 1252 c 1,120,121
 929 1288 929 1288 945 1368 c 1,122,-1
 945 1372 l 1,123,-1
 941 1372 l 1,116,-1
1329 880 m 2,124,-1
 1329 856 l 1,125,126
 1353 823 1353 823 1353 812 c 1,127,128
 1344 784 1344 784 1337 784 c 2,129,-1
 1333 784 l 1,130,-1
 1341 820 l 1,131,-1
 1329 828 l 1,132,133
 1305 788 1305 788 1305 764 c 1,134,135
 1321 660 1321 660 1405 660 c 0,136,137
 1478 660 1478 660 1505 724 c 1,138,-1
 1497 724 l 1,139,-1
 1497 728 l 1,140,-1
 1461 704 l 1,141,-1
 1461 708 l 1,142,-1
 1477 736 l 1,143,-1
 1521 736 l 2,144,145
 1560 736 1560 736 1565 796 c 1,146,147
 1605 847 1605 847 1605 896 c 1,148,149
 1580 1072 1580 1072 1485 1072 c 0,150,151
 1398 1072 1398 1072 1353 912 c 1,152,153
 1329 904 1329 904 1329 880 c 2,124,-1
1405 912 m 1,154,155
 1445 909 1445 909 1445 896 c 0,156,157
 1445 856 1445 856 1405 856 c 0,158,159
 1369 856 1369 856 1369 876 c 1,160,161
 1375 912 1375 912 1405 912 c 1,154,155
1493 860 m 2,162,-1
 1509 860 l 1,163,164
 1532 842 1532 842 1537 816 c 1,165,-1
 1537 812 l 2,166,167
 1537 791 1537 791 1521 784 c 1,168,-1
 1509 784 l 1,169,170
 1481 801 1481 801 1481 824 c 2,171,-1
 1481 836 l 1,172,173
 1484 860 1484 860 1493 860 c 2,162,-1
1157 800 m 1,174,-1
 1157 788 l 1,175,-1
 1161 792 l 1,176,-1
 1181 792 l 1,177,-1
 1173 764 l 1,178,179
 1186 732 1186 732 1209 732 c 1,180,-1
 1233 736 l 1,181,-1
 1293 648 l 1,182,-1
 1293 644 l 1,183,-1
 1289 644 l 1,184,185
 1197 662 1197 662 1197 676 c 0,186,187
 1197 691 1197 691 1173 708 c 1,188,-1
 1149 708 l 2,189,190
 1139 708 1139 708 1137 692 c 1,191,-1
 1133 692 l 2,192,193
 1124 692 1124 692 1121 712 c 1,194,195
 1109 712 1109 712 1105 668 c 1,196,197
 1114 632 1114 632 1125 632 c 1,198,-1
 1157 636 l 1,199,200
 1256 624 1256 624 1317 608 c 1,201,202
 1361 497 1361 497 1361 448 c 1,203,-1
 1353 396 l 1,204,205
 1412 396 1412 396 1457 452 c 1,206,-1
 1429 452 l 1,207,-1
 1429 460 l 1,208,209
 1444 460 1444 460 1449 492 c 1,210,211
 1449 516 1449 516 1421 516 c 1,212,-1
 1397 508 l 1,213,-1
 1349 604 l 1,214,-1
 1353 604 l 1,215,-1
 1465 580 l 1,216,-1
 1465 564 l 2,217,218
 1465 540 1465 540 1489 540 c 2,219,-1
 1501 540 l 2,220,221
 1519 540 1519 540 1537 564 c 1,222,-1
 1545 544 l 1,223,-1
 1549 544 l 1,224,225
 1581 566 1581 566 1581 608 c 1,226,227
 1576 624 1576 624 1561 632 c 1,228,229
 1529 620 1529 620 1501 620 c 2,230,-1
 1477 620 l 1,231,232
 1331 627 1331 627 1329 640 c 1,233,234
 1251 770 1251 770 1225 836 c 1,235,-1
 1213 840 l 1,236,237
 1184 840 1184 840 1157 800 c 1,174,-1
1437 820 m 1,238,-1
 1441 816 l 1,239,-1
 1441 804 l 2,240,241
 1441 783 1441 783 1425 776 c 1,242,243
 1409 780 1409 780 1409 800 c 1,244,-1
 1437 820 l 1,238,-1
1353 780 m 1,245,-1
 1365 780 l 1,246,-1
 1365 772 l 1,247,-1
 1357 756 l 1,248,-1
 1345 756 l 1,249,-1
 1345 772 l 1,250,-1
 1353 780 l 1,245,-1
1365 760 m 1,251,-1
 1381 760 l 1,252,253
 1381 739 1381 739 1369 736 c 1,254,-1
 1361 736 l 1,255,-1
 1361 740 l 1,256,-1
 1365 760 l 1,251,-1
1385 744 m 1,257,-1
 1401 744 l 1,258,259
 1401 723 1401 723 1389 720 c 1,260,-1
 1381 720 l 1,261,-1
 1381 724 l 1,262,-1
 1385 744 l 1,257,-1
1413 732 m 1,263,-1
 1417 732 l 1,264,-1
 1425 724 l 1,265,-1
 1417 708 l 1,266,-1
 1405 708 l 1,267,-1
 1405 724 l 1,268,-1
 1413 732 l 1,263,-1
1437 728 m 1,269,-1
 1449 728 l 1,270,-1
 1449 724 l 1,271,-1
 1445 704 l 1,272,-1
 1437 704 l 1,273,-1
 1429 712 l 1,274,-1
 1437 728 l 1,269,-1
EndSplineSet
Validated: 1
EndChar

StartChar: dollar
Encoding: 36 36 7
Width: 2576
Flags: W
LayerCount: 2
Fore
SplineSet
1894 1411 m 1,0,-1
 1911 1433 l 1,1,-1
 1927 1455 l 1,2,3
 2006 1572 2006 1572 2045 1610 c 1,4,-1
 2040 1616 l 1,5,-1
 2040 1642 l 1,6,7
 2075 1691 2075 1691 2120 1691 c 2,8,-1
 2137 1691 l 1,9,10
 2243 1676 2243 1676 2250 1571 c 1,11,12
 2194 1509 2194 1509 2149 1538 c 1,13,14
 2107 1495 2107 1495 2011 1335 c 1,15,-1
 2078 1191 l 1,16,17
 2129 1054 2129 1054 2035 1090 c 1,18,19
 1959 1163 1959 1163 1928.5 1171.5 c 128,-1,20
 1898 1180 1898 1180 1885 1181 c 1,21,22
 1741 980 1741 980 1692 881 c 1,23,-1
 1692 876 l 1,24,25
 1708 806 1708 806 1676 731 c 1,26,-1
 1681 726 l 1,27,-1
 1681 720 l 1,28,-1
 1649 506 l 1,29,-1
 1659 431 l 1,30,31
 1610 395 1610 395 1579 318 c 1,32,33
 1540 318 1540 318 1531 227 c 1,34,35
 1911 -99 1911 -99 2158 -223 c 1,36,37
 2365 -341 2365 -341 2410 -341 c 1,38,-1
 2410 -346 l 1,39,40
 2379 -378 2379 -378 2308 -378 c 0,41,42
 2106 -378 2106 -378 1692 -207 c 1,43,44
 1692 -196 1692 -196 1643 -180 c 1,45,46
 1631 -154 1631 -154 1477 -46 c 1,47,48
 1361 -180 1361 -180 1241 -228 c 1,49,-1
 1236 -228 l 2,50,51
 1106 -228 1106 -228 1038 -174 c 1,52,-1
 909 -40 l 1,53,54
 794 -150 794 -150 550 -239 c 1,55,56
 269 -324 269 -324 137 -324 c 0,57,58
 69 -324 69 -324 46 -287 c 1,59,60
 357 -190 357 -190 839 211 c 1,61,-1
 839 222 l 1,62,-1
 845 297 l 1,63,64
 841 327 841 327 764 404 c 1,65,-1
 754 442 l 1,66,-1
 764 490 l 1,67,-1
 737 629 l 1,68,-1
 737 769 l 1,69,70
 716 769 716 769 721 903 c 1,71,-1
 571 1128 l 1,72,73
 541 1116 541 1116 518 1058 c 1,74,75
 525 1016 525 1016 582 967 c 1,76,77
 609 930 609 930 609 897 c 1,78,79
 602 849 602 849 561 849 c 0,80,81
 523 849 523 849 459 940 c 1,82,83
 286 1031 286 1031 223 1090 c 1,84,85
 126 1176 126 1176 126 1337 c 0,86,87
 126 1569 126 1569 309 1637 c 1,88,-1
 330 1642 l 1,89,90
 372 1642 372 1642 416 1589 c 1,91,-1
 416 1567 l 1,92,-1
 411 1562 l 1,93,-1
 411 1557 l 1,94,-1
 534 1401 l 1,95,96
 582 1434 582 1434 582 1503 c 2,97,-1
 582 1508 l 1,98,-1
 577 1503 l 1,99,-1
 566 1503 l 2,100,101
 508 1503 508 1503 491 1610 c 1,102,103
 498 1632 498 1632 518 1642 c 1,104,-1
 523 1642 l 2,105,106
 622 1642 622 1642 689 1369 c 1,107,-1
 689 1331 l 2,108,109
 689 1267 689 1267 662 1219 c 1,110,-1
 813 1037 l 1,111,112
 920 1240 920 1240 1188 1240 c 0,113,114
 1469 1240 1469 1240 1611 1047 c 1,115,-1
 1793 1272 l 1,116,117
 1776 1313 1776 1313 1760 1332.5 c 128,-1,118
 1744 1352 1744 1352 1698 1407 c 1,119,120
 1708 1453 1708 1453 1792 1432 c 1,121,-1
 1894 1411 l 1,0,-1
1787 1342 m 128,-1,123
 1805 1322 1805 1322 1810 1294 c 1,124,125
 1854 1356 1854 1356 1884 1359 c 1,126,127
 1911 1358 1911 1358 1929 1340.5 c 128,-1,128
 1947 1323 1947 1323 1954 1294 c 1,129,130
 1954 1278 1954 1278 1906 1208 c 1,131,132
 1975 1175 1975 1175 2034.5 1124 c 128,-1,133
 2094 1073 2094 1073 2032 1168 c 2,134,-1
 1970 1262 l 1,135,-1
 1970 1278 l 2,136,137
 1970 1357 1970 1357 1832 1392 c 1,138,139
 1757 1424 1757 1424 1739 1420 c 128,-1,140
 1721 1416 1721 1416 1731.5 1404.5 c 128,-1,141
 1742 1393 1742 1393 1755.5 1377.5 c 128,-1,122
 1769 1362 1769 1362 1787 1342 c 128,-1,123
2153 1632 m 1,142,-1
 2153 1626 l 1,143,144
 2169 1626 2169 1626 2169 1567 c 1,145,-1
 2174 1567 l 1,146,-1
 2179 1616 l 1,147,-1
 2158 1632 l 1,148,-1
 2153 1632 l 1,142,-1
2072 1621 m 1,149,-1
 2083 1610 l 1,150,-1
 2099 1626 l 1,151,-1
 2088 1626 l 1,152,-1
 2072 1621 l 1,149,-1
148 1331 m 2,153,154
 148 1262 148 1262 169 1262 c 1,155,-1
 180 1272 l 1,156,-1
 169 1299 l 1,157,-1
 175 1305 l 1,158,-1
 180 1305 l 1,159,-1
 180 1294 l 1,160,-1
 185 1294 l 1,161,-1
 185 1299 l 1,162,-1
 180 1321 l 1,163,-1
 191 1321 l 1,164,-1
 185 1347 l 1,165,-1
 185 1374 l 1,166,-1
 196 1374 l 1,167,-1
 185 1465 l 1,168,-1
 196 1465 l 1,169,170
 196 1439 196 1439 207 1439 c 1,171,172
 207 1481 207 1481 223 1481 c 1,173,-1
 228 1476 l 1,174,-1
 218 1380 l 1,175,-1
 218 1374 l 2,176,177
 218 1315 218 1315 303 1181 c 1,178,-1
 303 1149 l 1,179,180
 298 1133 298 1133 271 1133 c 1,181,-1
 266 1138 l 1,182,-1
 260 1138 l 1,183,-1
 260 1133 l 1,184,-1
 266 1106 l 1,185,-1
 260 1101 l 1,186,-1
 234 1112 l 1,187,188
 267 1063 267 1063 464 962 c 1,189,190
 519 876 519 876 561 876 c 0,191,192
 593 876 593 876 593 903 c 0,193,194
 593 949 593 949 518 1010 c 1,195,-1
 507 1042 l 1,196,-1
 502 1042 l 1,197,-1
 502 1037 l 1,198,-1
 507 1021 l 1,199,-1
 502 1015 l 1,200,-1
 464 1042 l 1,201,202
 464 1033 464 1033 545 972 c 1,203,204
 571 942 571 942 571 908 c 1,205,-1
 550 892 l 1,206,207
 519 892 519 892 491 945 c 1,208,-1
 502 956 l 1,209,210
 491 956 491 956 491 983 c 1,211,212
 466 994 466 994 443 1031 c 1,213,-1
 427 1026 l 1,214,-1
 335 1133 l 1,215,-1
 335 1149 l 1,216,-1
 362 1122 l 1,217,-1
 368 1122 l 1,218,219
 359 1147 359 1147 335 1160 c 1,220,-1
 335 1149 l 1,221,222
 325 1149 325 1149 319 1192 c 1,223,224
 239 1291 239 1291 239 1433 c 2,225,-1
 239 1471 l 1,226,227
 251 1610 251 1610 330 1610 c 1,228,-1
 384 1599 l 1,229,230
 384 1612 384 1612 330 1616 c 1,231,232
 189 1616 189 1616 148 1364 c 1,233,-1
 148 1331 l 2,153,154
512 1599 m 2,234,-1
 512 1583 l 2,235,236
 512 1551 512 1551 550 1524 c 1,237,-1
 561 1524 l 1,238,-1
 577 1540 l 1,239,-1
 577 1546 l 1,240,-1
 561 1535 l 1,241,-1
 539 1535 l 1,242,-1
 523 1567 l 1,243,-1
 523 1578 l 1,244,-1
 528 1583 l 1,245,-1
 528 1589 l 1,246,-1
 523 1594 l 1,247,-1
 534 1605 l 1,248,-1
 555 1605 l 2,249,250
 581 1605 581 1605 609 1503 c 1,251,-1
 609 1465 l 2,252,253
 609 1427 609 1427 528 1337 c 1,254,255
 486 1283 486 1283 486 1224 c 2,256,-1
 486 1208 l 1,257,-1
 502 1101 l 1,258,-1
 507 1101 l 1,259,260
 521 1107 521 1107 550 1155 c 1,261,262
 502 1224 502 1224 502 1240 c 1,263,-1
 518 1262 l 1,264,-1
 502 1283 l 1,265,-1
 502 1289 l 1,266,-1
 507 1289 l 1,267,-1
 539 1272 l 1,268,-1
 539 1278 l 2,269,270
 539 1289 539 1289 523 1289 c 1,271,-1
 518 1294 l 1,272,-1
 518 1299 l 1,273,-1
 523 1305 l 1,274,-1
 545 1294 l 1,275,-1
 545 1299 l 1,276,-1
 528 1305 l 1,277,-1
 534 1310 l 1,278,-1
 534 1315 l 1,279,-1
 539 1310 l 1,280,-1
 545 1310 l 1,281,-1
 550 1315 l 1,282,-1
 555 1315 l 1,283,284
 594 1304 594 1304 652 1240 c 1,285,286
 668 1278 668 1278 668 1326 c 0,287,288
 668 1493 668 1493 561 1610 c 1,289,-1
 539 1616 l 1,290,291
 512 1612 512 1612 512 1599 c 2,234,-1
2019 1557 m 1,292,-1
 2019 1551 l 1,293,-1
 2040 1551 l 1,294,-1
 2072 1567 l 1,295,-1
 2078 1562 l 1,296,-1
 2083 1594 l 1,297,-1
 2051 1594 l 1,298,-1
 2019 1557 l 1,292,-1
293 1578 m 1,299,-1
 276 1557 l 1,300,-1
 282 1519 l 1,301,-1
 287 1519 l 1,302,303
 287 1573 287 1573 303 1573 c 1,304,-1
 303 1578 l 1,305,-1
 293 1578 l 1,299,-1
357 1573 m 1,306,-1
 373 1557 l 1,307,-1
 384 1567 l 1,308,-1
 357 1573 l 1,306,-1
373 1540 m 1,309,-1
 378 1508 l 1,310,-1
 384 1514 l 1,311,-1
 389 1514 l 1,312,-1
 416 1498 l 1,313,-1
 437 1498 l 1,314,-1
 437 1503 l 1,315,-1
 405 1540 l 1,316,-1
 373 1540 l 1,309,-1
1965 1481 m 1,317,-1
 1986 1481 l 1,318,319
 2016 1519 2016 1519 2035 1519 c 1,320,-1
 2024 1530 l 1,321,-1
 2008 1530 l 1,322,-1
 1965 1481 l 1,317,-1
255 1417 m 1,323,324
 290 1230 290 1230 373 1144 c 1,325,326
 384 1144 384 1144 384 1128 c 1,327,-1
 411 1112 l 1,328,-1
 405 1138 l 1,329,-1
 405 1149 l 2,330,331
 405 1220 405 1220 432 1315 c 1,332,-1
 298 1487 l 1,333,334
 255 1449 255 1449 255 1417 c 1,323,324
421 1465 m 1,335,336
 440 1465 440 1465 469 1428 c 1,337,-1
 491 1428 l 1,338,-1
 443 1481 l 1,339,340
 421 1473 421 1473 421 1465 c 1,335,336
1938 1439 m 1,341,-1
 1965 1417 l 1,342,343
 1965 1433 1965 1433 1976 1433 c 1,344,-1
 1970 1439 l 1,345,-1
 1970 1444 l 1,346,-1
 1986 1465 l 1,347,-1
 1976 1465 l 1,348,349
 1941 1451 1941 1451 1938 1439 c 1,341,-1
469 1412 m 1,350,-1
 486 1390 l 1,351,-1
 480 1374 l 1,352,-1
 496 1364 l 1,353,-1
 518 1390 l 1,354,355
 489 1412 489 1412 469 1412 c 1,350,-1
1965 1369 m 1,356,-1
 1965 1364 l 1,357,358
 1986 1324 1986 1324 1986 1278 c 1,359,-1
 1992 1278 l 1,360,-1
 1992 1321 l 1,361,-1
 2003 1321 l 1,362,-1
 2003 1310 l 2,363,364
 2003 1249 2003 1249 2024 1230 c 1,365,-1
 2024 1224 l 1,366,-1
 2066 1152 l 1,367,368
 2029 1283 2029 1283 1992 1342 c 1,369,-1
 1981 1342 l 1,370,371
 1977 1369 1977 1369 1965 1369 c 1,356,-1
491 1326 m 1,372,-1
 475 1289 l 1,373,-1
 464 1289 l 1,374,-1
 464 1305 l 1,375,-1
 459 1305 l 1,376,377
 427 1243 427 1243 427 1144 c 1,378,-1
 437 1144 l 1,379,-1
 432 1171 l 1,380,-1
 432 1176 l 1,381,382
 453 1195 453 1195 453 1256 c 2,383,-1
 453 1267 l 1,384,-1
 464 1267 l 1,385,-1
 464 1224 l 1,386,-1
 469 1224 l 1,387,388
 469 1274 469 1274 496 1321 c 1,389,-1
 496 1326 l 1,390,-1
 491 1326 l 1,372,-1
1617 1031 m 1,391,392
 1625 1010 1625 1010 1633 1010 c 1,393,394
 1835 1294 1835 1294 1863 1294 c 2,395,-1
 1890 1294 l 1,396,-1
 1911 1272 l 1,397,-1
 1911 1267 l 1,398,-1
 1901 1256 l 1,399,-1
 1874 1262 l 1,400,-1
 1858 1240 l 1,401,-1
 1863 1240 l 1,402,-1
 1874 1251 l 1,403,-1
 1874 1246 l 1,404,405
 1835 1178 1835 1178 1783 1149 c 1,406,-1
 1767 1122 l 1,407,-1
 1756 1122 l 1,408,-1
 1756 1133 l 1,409,410
 1678 1053 1678 1053 1638 988 c 1,411,412
 1640 974 1640 974 1665 967 c 1,413,414
 1665 975 1665 975 1702 994 c 1,415,-1
 1702 988 l 2,416,417
 1702 976 1702 976 1665 962 c 1,418,419
 1686 937 1686 937 1686 924 c 1,420,421
 1842 1166 1842 1166 1938 1283 c 1,422,423
 1906 1326 1906 1326 1874 1326 c 0,424,425
 1847 1326 1847 1326 1633 1047 c 1,426,-1
 1617 1031 l 1,391,392
518 1230 m 1,427,428
 582 1155 582 1155 732 929 c 1,429,430
 771 958 771 958 780 994 c 1,431,-1
 700 1079 l 1,432,-1
 700 1069 l 1,433,-1
 689 1069 l 1,434,-1
 668 1101 l 1,435,436
 644 1101 644 1101 582 1192 c 1,437,-1
 582 1197 l 1,438,-1
 598 1187 l 1,439,-1
 598 1192 l 1,440,-1
 577 1208 l 1,441,-1
 550 1203 l 1,442,-1
 545 1208 l 1,443,-1
 545 1219 l 1,444,-1
 566 1240 l 1,445,-1
 587 1240 l 2,446,447
 619 1240 619 1240 711 1106 c 1,448,449
 786 1017 786 1017 786 1004 c 1,450,-1
 791 1004 l 1,451,-1
 802 1026 l 1,452,-1
 593 1272 l 1,453,454
 548 1272 548 1272 518 1230 c 1,427,428
159 1251 m 1,455,-1
 159 1246 l 1,456,-1
 169 1235 l 1,457,-1
 169 1240 l 1,458,-1
 159 1251 l 1,455,-1
802 978 m 1,459,-1
 802 972 l 1,460,-1
 952 1037 l 1,461,462
 1114 1069 1114 1069 1193 1069 c 2,463,-1
 1209 1069 l 2,464,465
 1297 1069 1297 1069 1595 1010 c 1,466,467
 1595 999 1595 999 1617 999 c 1,468,469
 1573 1087 1573 1087 1477 1144 c 1,470,471
 1354 1219 1354 1219 1231 1219 c 2,472,-1
 1145 1219 l 2,473,474
 923 1219 923 1219 802 978 c 1,459,-1
223 1181 m 1,475,-1
 223 1176 l 1,476,-1
 228 1171 l 1,477,-1
 228 1165 l 1,478,-1
 244 1171 l 1,479,-1
 244 1181 l 1,480,-1
 223 1181 l 1,475,-1
378 1112 m 1,481,-1
 432 1047 l 1,482,-1
 448 1053 l 1,483,-1
 384 1112 l 1,484,-1
 378 1112 l 1,481,-1
491 1069 m 1,485,-1
 491 1063 l 1,486,-1
 496 1047 l 1,487,-1
 502 1047 l 1,488,-1
 502 1053 l 1,489,-1
 496 1069 l 1,490,-1
 491 1069 l 1,485,-1
1070 811 m 1,491,-1
 1075 811 l 1,492,-1
 1070 811 l 1,491,-1
1000 801 m 1,493,-1
 1000 795 l 1,494,-1
 1022 795 l 1,495,-1
 1022 801 l 1,496,-1
 1000 801 l 1,493,-1
909 774 m 1,497,-1
 909 769 l 1,498,-1
 968 769 l 1,499,500
 968 790 968 790 995 790 c 1,501,-1
 995 795 l 1,502,-1
 984 795 l 1,503,504
 936 774 936 774 909 774 c 1,497,-1
941 752 m 2,505,-1
 877 752 l 1,506,-1
 882 747 l 1,507,-1
 877 720 l 1,508,-1
 877 704 l 1,509,-1
 866 704 l 1,510,511
 857 758 857 758 845 758 c 2,512,-1
 823 758 l 1,513,514
 855 702 855 702 855 672 c 2,515,-1
 855 661 l 1,516,-1
 823 565 l 1,517,-1
 813 565 l 1,518,-1
 807 570 l 1,519,-1
 802 570 l 1,520,-1
 813 608 l 1,521,522
 813 671 813 671 780 699 c 1,523,-1
 780 715 l 1,524,525
 829 708 829 708 829 667 c 1,526,-1
 834 667 l 1,527,-1
 834 683 l 1,528,-1
 807 758 l 1,529,-1
 770 758 l 1,530,-1
 770 618 l 1,531,-1
 813 511 l 1,532,-1
 818 511 l 1,533,534
 818 543 818 543 829 543 c 1,535,-1
 839 479 l 1,536,-1
 845 484 l 1,537,-1
 861 484 l 1,538,539
 891 426 891 426 957 426 c 1,540,-1
 984 431 l 1,541,-1
 984 426 l 1,542,-1
 973 415 l 1,543,-1
 952 415 l 2,544,545
 850 415 850 415 850 474 c 1,546,-1
 845 474 l 1,547,548
 845 426 845 426 807 426 c 1,549,550
 786 434 786 434 786 442 c 1,551,-1
 802 468 l 1,552,-1
 796 484 l 1,553,554
 788 484 788 484 770 436 c 1,555,556
 770 426 770 426 871 340 c 1,557,558
 871 327 871 327 893 313 c 1,559,-1
 941 324 l 1,560,561
 1016 303 1016 303 1016 254 c 1,562,-1
 1011 222 l 1,563,564
 1052 184 1052 184 1161 184 c 1,565,-1
 1193 163 l 1,566,-1
 1306 200 l 1,567,-1
 1311 206 l 1,568,-1
 1311 211 l 1,569,-1
 1327 211 l 1,570,-1
 1327 195 l 1,571,-1
 1338 195 l 1,572,573
 1338 216 1338 216 1349 216 c 1,574,-1
 1354 200 l 1,575,576
 1372 216 1372 216 1386 216 c 1,577,-1
 1375 286 l 1,578,579
 1389 328 1389 328 1408 334 c 1,580,-1
 1515 313 l 1,581,582
 1515 336 1515 336 1563 345 c 1,583,-1
 1643 458 l 1,584,-1
 1643 468 l 1,585,-1
 1638 468 l 1,586,-1
 1595 447 l 1,587,588
 1580 455 1580 455 1568 570 c 1,589,-1
 1574 576 l 1,590,-1
 1579 576 l 1,591,-1
 1590 554 l 1,592,-1
 1601 554 l 1,593,594
 1654 645 1654 645 1654 683 c 2,595,-1
 1654 731 l 1,596,-1
 1611 731 l 1,597,598
 1587 586 1587 586 1579 586 c 1,599,600
 1525 676 1525 676 1525 715 c 1,601,-1
 1531 742 l 1,602,-1
 1107 779 l 1,603,604
 1033 752 1033 752 941 752 c 2,505,-1
1552 736 m 1,605,-1
 1542 699 l 1,606,607
 1548 672 1548 672 1558 672 c 1,608,-1
 1579 736 l 1,609,-1
 1552 736 l 1,605,-1
1188 629 m 1,610,-1
 1215 629 l 1,611,-1
 1247 597 l 1,612,-1
 1247 592 l 1,613,-1
 1241 592 l 1,614,-1
 1198 618 l 1,615,-1
 1166 592 l 1,616,-1
 1156 602 l 1,617,-1
 1188 629 l 1,610,-1
1182 586 m 1,618,-1
 1188 581 l 1,619,-1
 1188 565 l 2,620,621
 1188 525 1188 525 1172 522 c 1,622,-1
 1161 522 l 1,623,624
 1170 586 1170 586 1182 586 c 1,618,-1
1241 586 m 1,625,-1
 1247 581 l 1,626,-1
 1241 576 l 1,627,-1
 1247 538 l 1,628,-1
 1247 517 l 1,629,-1
 1236 517 l 1,630,-1
 1231 543 l 1,631,-1
 1231 576 l 1,632,-1
 1241 586 l 1,625,-1
1627 522 m 1,633,-1
 1622 479 l 1,634,-1
 1633 479 l 1,635,-1
 1633 522 l 1,636,-1
 1627 522 l 1,633,-1
1542 468 m 1,637,-1
 1547 468 l 1,638,-1
 1547 452 l 1,639,640
 1513 404 1513 404 1472 404 c 1,641,642
 1402 416 1402 416 1402 431 c 2,643,-1
 1402 436 l 1,644,-1
 1456 426 l 1,645,646
 1502 426 1502 426 1542 468 c 1,637,-1
1209 463 m 1,647,648
 1290 444 1290 444 1290 313 c 1,649,650
 1287 296 1287 296 1241 275 c 1,651,-1
 1204 222 l 1,652,-1
 1198 222 l 1,653,-1
 1198 249 l 1,654,655
 1212 275 1212 275 1236 275 c 1,656,-1
 1236 281 l 1,657,658
 1201 281 1201 281 1198 324 c 1,659,-1
 1188 324 l 1,660,661
 1188 295 1188 295 1166 286 c 1,662,-1
 1161 286 l 2,663,664
 1119 286 1119 286 1102 318 c 1,665,666
 1102 384 1102 384 1156 447 c 1,667,-1
 1209 463 l 1,647,648
882 291 m 1,668,-1
 888 275 l 1,669,-1
 893 275 l 1,670,-1
 893 291 l 1,671,-1
 882 291 l 1,668,-1
871 270 m 1,672,-1
 866 238 l 1,673,-1
 882 34 l 1,674,-1
 893 34 l 1,675,-1
 904 72 l 1,676,-1
 898 77 l 1,677,-1
 898 82 l 1,678,-1
 904 99 l 1,679,-1
 877 270 l 1,680,-1
 871 270 l 1,672,-1
1140 275 m 1,681,-1
 1161 275 l 1,682,683
 1182 267 1182 267 1182 238 c 2,684,-1
 1182 233 l 1,685,-1
 1177 233 l 1,686,-1
 1140 270 l 1,687,-1
 1140 275 l 1,681,-1
898 254 m 1,688,-1
 898 249 l 1,689,690
 930 112 930 112 930 23 c 1,691,-1
 925 23 l 1,692,-1
 930 18 l 1,693,-1
 930 13 l 1,694,-1
 925 7 l 1,695,696
 925 -28 925 -28 1038 -121 c 1,697,698
 1038 -166 1038 -166 1140 -190 c 1,699,-1
 1182 -180 l 1,700,-1
 1198 -196 l 1,701,-1
 1231 -196 l 1,702,703
 1421 -109 1421 -109 1440 -24 c 1,704,-1
 1429 13 l 1,705,-1
 1472 216 l 1,706,-1
 1472 222 l 1,707,-1
 1467 222 l 1,708,709
 1467 174 1467 174 1386 66 c 1,710,711
 1290 -19 1290 -19 1279 -19 c 1,712,-1
 1252 -14 l 1,713,-1
 1193 -24 l 1,714,-1
 1172 -14 l 1,715,-1
 1140 -24 l 1,716,717
 1030 14 1030 14 989 82 c 1,718,719
 989 104 989 104 973 104 c 1,720,-1
 957 88 l 1,721,722
 937 90 937 90 904 254 c 1,723,-1
 898 254 l 1,688,-1
1381 184 m 1,724,-1
 1381 174 l 1,725,-1
 1391 184 l 1,726,-1
 1391 195 l 1,727,-1
 1381 184 l 1,724,-1
1493 195 m 1,728,729
 1472 125 1472 125 1472 93 c 2,730,-1
 1472 77 l 1,731,732
 1476 7 1476 7 1493 7 c 1,733,734
 1509 13 1509 13 1509 40 c 1,735,-1
 1493 141 l 1,736,-1
 1504 195 l 1,737,-1
 1493 195 l 1,728,729
1038 190 m 1,738,-1
 1043 168 l 1,739,-1
 1048 168 l 1,740,-1
 1048 190 l 1,741,-1
 1038 190 l 1,738,-1
1531 190 m 1,742,-1
 1525 82 l 1,743,744
 1525 26 1525 26 1579 -24 c 1,745,746
 1633 -89 1633 -89 1633 -110 c 2,747,-1
 1633 -121 l 1,748,749
 1584 -72 1584 -72 1493 -24 c 1,750,-1
 1488 -30 l 1,751,-1
 1488 -35 l 1,752,-1
 1633 -137 l 1,753,-1
 1649 -131 l 1,754,-1
 1659 -142 l 1,755,-1
 1670 -131 l 1,756,757
 1672 -140 1672 -140 1772 -169 c 1,758,759
 1772 -185 1772 -185 1793 -196 c 1,760,-1
 1804 -196 l 1,761,-1
 1831 -190 l 1,762,763
 1893 -255 1893 -255 1976 -255 c 1,764,765
 1976 -265 1976 -265 2003 -265 c 1,766,-1
 2013 -276 l 1,767,-1
 2019 -271 l 1,768,-1
 2029 -271 l 1,769,770
 2099 -283 2099 -283 2099 -298 c 1,771,-1
 2104 -292 l 1,772,-1
 2110 -292 l 1,773,774
 2174 -308 2174 -308 2174 -324 c 1,775,-1
 2163 -324 l 1,776,-1
 2120 -308 l 1,777,-1
 2115 -314 l 1,778,-1
 2115 -319 l 1,779,780
 2199 -346 2199 -346 2335 -346 c 2,781,-1
 2351 -346 l 1,782,-1
 2351 -341 l 1,783,784
 2300 -332 2300 -332 2029 -180 c 1,785,-1
 2029 -185 l 1,786,-1
 2120 -239 l 1,787,-1
 2120 -249 l 1,788,-1
 2104 -249 l 2,789,790
 2038 -249 2038 -249 2003 -217 c 1,791,-1
 2008 -212 l 1,792,-1
 2008 -207 l 1,793,794
 1858 -168 1858 -168 1858 -153 c 0,795,796
 1858 -140 1858 -140 1879 -137 c 1,797,-1
 1885 -142 l 1,798,-1
 1895 -142 l 1,799,-1
 1895 -137 l 1,800,801
 1774 -69 1774 -69 1542 147 c 1,802,-1
 1552 147 l 1,803,804
 1809 -67 1809 -67 1826 -67 c 1,805,806
 1890 -131 1890 -131 1933 -131 c 1,807,808
 1956 -169 1956 -169 2003 -169 c 2,809,-1
 2008 -169 l 1,810,-1
 2008 -164 l 1,811,812
 1872 -90 1872 -90 1531 190 c 1,742,-1
1290 184 m 1,813,-1
 1284 163 l 1,814,-1
 1290 157 l 1,815,-1
 1290 152 l 1,816,-1
 1279 115 l 1,817,-1
 1300 115 l 1,818,-1
 1311 157 l 1,819,-1
 1306 184 l 1,820,-1
 1290 184 l 1,813,-1
1359 174 m 1,821,-1
 1359 163 l 1,822,-1
 1370 163 l 1,823,-1
 1370 184 l 1,824,-1
 1359 174 l 1,821,-1
448 -110 m 1,825,-1
 448 -115 l 1,826,-1
 464 -115 l 2,827,828
 484 -115 484 -115 539 -73 c 1,829,830
 571 -73 571 -73 630 -14 c 1,831,832
 686 9 686 9 850 163 c 1,833,-1
 850 179 l 1,834,-1
 845 179 l 1,835,836
 593 -30 593 -30 448 -110 c 1,825,-1
1097 179 m 1,837,-1
 1091 136 l 1,838,839
 1099 115 1099 115 1107 115 c 1,840,-1
 1113 120 l 1,841,-1
 1107 157 l 1,842,-1
 1107 179 l 1,843,-1
 1097 179 l 1,837,-1
1070 163 m 1,844,-1
 1070 147 l 1,845,-1
 1081 136 l 1,846,-1
 1081 174 l 1,847,-1
 1070 163 l 1,844,-1
1166 168 m 1,848,-1
 1156 120 l 1,849,-1
 1156 104 l 1,850,-1
 1188 109 l 1,851,-1
 1182 163 l 1,852,-1
 1166 168 l 1,848,-1
1257 168 m 1,853,-1
 1247 115 l 1,854,-1
 1257 115 l 1,855,856
 1274 118 1274 118 1274 157 c 1,857,-1
 1257 168 l 1,853,-1
1322 168 m 1,858,-1
 1322 136 l 1,859,-1
 1332 147 l 1,860,-1
 1332 157 l 1,861,-1
 1322 168 l 1,858,-1
1204 157 m 1,862,-1
 1204 109 l 1,863,-1
 1225 104 l 1,864,-1
 1236 147 l 1,865,-1
 1236 152 l 2,866,867
 1236 163 1236 163 1220 163 c 1,868,-1
 1204 157 l 1,862,-1
561 -83 m 1,869,-1
 561 -89 l 1,870,-1
 566 -89 l 1,871,-1
 587 -83 l 1,872,-1
 598 -99 l 1,873,874
 598 -114 598 -114 448 -153 c 1,875,-1
 453 -158 l 1,876,-1
 453 -164 l 1,877,878
 418 -196 418 -196 352 -196 c 2,879,-1
 335 -196 l 1,880,-1
 335 -185 l 1,881,882
 425 -136 425 -136 427 -126 c 1,883,884
 298 -208 298 -208 105 -287 c 1,885,-1
 105 -292 l 1,886,-1
 132 -292 l 2,887,888
 253 -292 253 -292 341 -265 c 1,889,-1
 330 -255 l 1,890,-1
 282 -271 l 1,891,892
 282 -250 282 -250 427 -217 c 1,893,-1
 432 -217 l 1,894,-1
 437 -223 l 1,895,896
 488 -196 488 -196 550 -190 c 1,897,898
 599 -165 599 -165 625 -137 c 1,899,-1
 652 -142 l 1,900,-1
 662 -142 l 1,901,902
 696 -99 696 -99 748 -99 c 1,903,-1
 754 -105 l 1,904,905
 754 -92 754 -92 780 -89 c 1,906,-1
 780 -94 l 1,907,-1
 775 -99 l 1,908,-1
 775 -105 l 1,909,-1
 796 -105 l 1,910,911
 796 -79 796 -79 829 -56 c 1,912,-1
 823 -51 l 1,913,-1
 823 -46 l 1,914,-1
 871 18 l 1,915,916
 855 46 855 46 855 72 c 1,917,-1
 861 72 l 1,918,-1
 850 141 l 1,919,920
 652 -35 652 -35 561 -83 c 1,869,-1
1343 82 m 1,921,-1
 1349 56 l 1,922,-1
 1359 56 l 1,923,-1
 1365 82 l 1,924,-1
 1365 88 l 1,925,-1
 1359 88 l 1,926,-1
 1343 82 l 1,921,-1
1016 72 m 1,927,-1
 1022 66 l 1,928,-1
 1027 66 l 1,929,-1
 1027 82 l 1,930,-1
 1016 72 l 1,927,-1
1032 77 m 1,931,-1
 1032 72 l 1,932,-1
 1038 50 l 1,933,-1
 1048 50 l 1,934,-1
 1054 72 l 1,935,-1
 1032 77 l 1,931,-1
1054 50 m 1,936,-1
 1059 34 l 1,937,-1
 1070 34 l 1,938,-1
 1070 61 l 1,939,-1
 1054 50 l 1,936,-1
909 56 m 1,940,-1
 898 13 l 1,941,-1
 914 18 l 1,942,-1
 914 56 l 1,943,-1
 909 56 l 1,940,-1
1102 34 m 1,944,-1
 1107 -3 l 1,945,-1
 1118 -3 l 1,946,-1
 1123 2 l 1,947,-1
 1129 2 l 1,948,-1
 1118 45 l 1,949,-1
 1113 45 l 1,950,-1
 1102 34 l 1,944,-1
1081 40 m 1,951,-1
 1081 29 l 1,952,-1
 1091 18 l 1,953,-1
 1091 40 l 1,954,-1
 1081 40 l 1,951,-1
1166 40 m 1,955,-1
 1166 29 l 1,956,-1
 1172 2 l 1,957,-1
 1177 2 l 1,958,-1
 1177 40 l 1,959,-1
 1166 40 l 1,955,-1
1140 34 m 1,960,-1
 1140 29 l 1,961,-1
 1145 -8 l 1,962,-1
 1156 -8 l 1,963,-1
 1156 34 l 1,964,-1
 1140 34 l 1,960,-1
1193 34 m 1,965,-1
 1193 23 l 1,966,-1
 1188 23 l 1,967,-1
 1198 -3 l 1,968,-1
 1204 -3 l 1,969,-1
 1215 7 l 1,970,-1
 1215 34 l 1,971,-1
 1193 34 l 1,965,-1
1231 34 m 1,972,-1
 1231 -3 l 1,973,-1
 1241 -3 l 1,974,-1
 1247 23 l 1,975,-1
 1247 34 l 1,976,-1
 1231 34 l 1,972,-1
1461 13 m 1,977,-1
 1461 7 l 1,978,-1
 1467 -14 l 1,979,-1
 1477 -14 l 1,980,-1
 1467 13 l 1,981,-1
 1461 13 l 1,977,-1
1525 13 m 1,982,-1
 1509 -14 l 1,983,-1
 1509 -19 l 1,984,-1
 1579 -56 l 1,985,986
 1545 3 1545 3 1525 13 c 1,982,-1
818 -78 m 1,987,-1
 818 -83 l 1,988,-1
 823 -83 l 1,989,-1
 904 -30 l 1,990,-1
 893 -14 l 1,991,992
 860 -24 860 -24 818 -78 c 1,987,-1
523 -94 m 1,993,-1
 518 -99 l 1,994,-1
 518 -105 l 1,995,-1
 523 -105 l 1,996,-1
 539 -99 l 1,997,-1
 539 -94 l 1,998,-1
 523 -94 l 1,993,-1
641 -164 m 1,999,-1
 630 -153 l 1,1000,1001
 536 -233 536 -233 448 -233 c 1,1002,-1
 437 -244 l 1,1003,-1
 416 -239 l 1,1004,-1
 352 -260 l 1,1005,-1
 352 -265 l 1,1006,1007
 455 -265 455 -265 721 -148 c 1,1008,-1
 721 -126 l 1,1009,-1
 646 -164 l 1,1010,-1
 641 -164 l 1,999,-1
1649 -153 m 1,1011,-1
 1665 -169 l 1,1012,-1
 1681 -153 l 1,1013,-1
 1665 -148 l 1,1014,-1
 1649 -153 l 1,1011,-1
1922 -148 m 1,1015,-1
 1933 -158 l 1,1016,-1
 1938 -158 l 1,1017,-1
 1927 -148 l 1,1018,-1
 1922 -148 l 1,1015,-1
1681 -174 m 1,1019,-1
 1681 -180 l 1,1020,-1
 1708 -196 l 1,1021,-1
 1713 -196 l 1,1022,1023
 1711 -185 1711 -185 1686 -174 c 1,1024,-1
 1681 -174 l 1,1019,-1
1729 -180 m 1,1025,1026
 1729 -214 1729 -214 1793 -228 c 1,1027,1028
 1918 -287 1918 -287 2099 -319 c 1,1029,-1
 2104 -319 l 1,1030,-1
 2104 -314 l 1,1031,-1
 2035 -292 l 1,1032,-1
 2013 -298 l 1,1033,1034
 2013 -287 2013 -287 1922 -271 c 1,1035,-1
 1826 -207 l 1,1036,-1
 1804 -217 l 1,1037,1038
 1755 -180 1755 -180 1729 -180 c 1,1025,1026
845 585 m 1,1039,1040
 914 626 914 626 952 623 c 128,-1,1041
 990 620 990 620 1048 603 c 1,1042,-1
 1112 597 l 1,1043,1044
 1124 521 1124 521 1100.5 492 c 128,-1,1045
 1077 463 1077 463 1036.5 448.5 c 128,-1,1046
 996 434 996 434 964 440 c 128,-1,1047
 932 446 932 446 903 460.5 c 128,-1,1048
 874 475 874 475 859.5 501 c 128,-1,1049
 845 527 845 527 845 585 c 1,1039,1040
1283 588 m 1,1050,1051
 1309 610 1309 610 1321.5 618 c 128,-1,1052
 1334 626 1334 626 1358.5 627.5 c 128,-1,1053
 1383 629 1383 629 1392 624.5 c 128,-1,1054
 1401 620 1401 620 1415 620 c 128,-1,1055
 1429 620 1429 620 1440.5 621 c 128,-1,1056
 1452 622 1452 622 1468 618.5 c 128,-1,1057
 1484 615 1484 615 1496.5 609 c 128,-1,1058
 1509 603 1509 603 1551 593 c 1,1059,1060
 1537 524 1537 524 1526.5 502.5 c 128,-1,1061
 1516 481 1516 481 1492 466.5 c 128,-1,1062
 1468 452 1468 452 1437 447.5 c 128,-1,1063
 1406 443 1406 443 1385 452.5 c 128,-1,1064
 1364 462 1364 462 1342.5 470 c 128,-1,1065
 1321 478 1321 478 1313.5 491.5 c 128,-1,1066
 1306 505 1306 505 1302 522.5 c 128,-1,1067
 1298 540 1298 540 1283 588 c 1,1050,1051
EndSplineSet
Validated: 37
EndChar

StartChar: quotesingle
Encoding: 39 39 10
Width: 390
Flags: W
LayerCount: 2
Fore
SplineSet
147 1503 m 1,0,-1
 172 1548 l 1,1,-1
 215 1585 l 1,2,-1
 279 1548 l 1,3,-1
 279 1503 l 1,4,-1
 271 1503 l 1,5,-1
 254 1456 l 1,6,-1
 129 1325 l 1,7,-1
 95 1363 l 1,8,-1
 147 1503 l 1,0,-1
EndSplineSet
Validated: 1
EndChar

StartChar: parenleft
Encoding: 40 40 11
Width: 767
Flags: W
LayerCount: 2
Fore
SplineSet
651 1709 m 1,0,-1
 613 1696 l 1,1,2
 533 1662 533 1662 382 1465 c 1,3,4
 318 1364 318 1364 248 1156 c 1,5,6
 166 832 166 832 180 575 c 1,7,8
 233 308 233 308 326 85 c 1,9,-1
 355 29 l 1,10,-1
 363 18 l 1,11,-1
 379 25 l 2,12,13
 440 51 440 51 406 95 c 1,14,15
 328 301 328 301 290 560 c 1,16,17
 276 629 276 629 313 861 c 1,18,-1
 316 859 l 1,19,20
 310 366 310 366 459 85 c 1,21,-1
 463 80 l 2,22,23
 483 55 483 55 545 43 c 1,24,-1
 549 44 l 1,25,26
 555 47 555 47 520 114 c 1,27,28
 375 466 375 466 382 786 c 1,29,30
 387 932 387 932 434 1168 c 1,31,32
 517 1465 517 1465 601 1629 c 1,33,34
 643 1683 643 1683 651 1709 c 1,0,-1
451 46 m 1,35,-1
 418 13 l 1,36,37
 314 -30 314 -30 301 -12 c 1,38,39
 276 -22 276 -22 237 18 c 1,40,-1
 220 72 l 1,41,-1
 210 83 l 1,42,43
 190 93 190 93 137 70 c 1,44,45
 125 41 125 41 186 -36 c 2,46,-1
 201 -55 l 1,47,48
 278 -105 278 -105 313 -90 c 1,49,50
 383 -93 383 -93 547 -51 c 1,51,52
 625 -67 625 -67 744 -72 c 1,53,54
 782 -107 782 -107 793 -101 c 2,55,-1
 799 -98 l 1,56,57
 824 -51 824 -51 806 -19 c 1,58,-1
 805 -17 l 1,59,60
 783 10 783 10 702 8 c 1,61,62
 634 -20 634 -20 468 48 c 1,63,-1
 451 46 l 1,35,-1
702 -217 m 0,64,65
 687 -224 687 -224 706 -248 c 1,66,-1
 699 -251 l 1,67,-1
 626 -257 l 1,68,-1
 618 -260 l 1,69,70
 489 -231 489 -231 515.5 -278 c 128,-1,71
 542 -325 542 -325 588 -334 c 1,72,73
 599 -342 599 -342 701 -352 c 1,74,-1
 724 -342 l 2,75,76
 767 -324 767 -324 767 -298 c 1,77,78
 764 -261 764 -261 744 -232 c 1,79,80
 717 -211 717 -211 702 -217 c 0,64,65
590 -87 m 1,81,82
 518 -74 518 -74 498 -83 c 1,83,84
 463 -108 463 -108 470 -117 c 2,85,-1
 532 -196 l 1,86,87
 516 -233 516 -233 649 -232 c 1,88,-1
 680 -222 l 1,89,90
 694 -216 694 -216 678 -191 c 1,91,-1
 590 -87 l 1,81,82
EndSplineSet
Validated: 41
EndChar

StartChar: parenright
Encoding: 41 41 12
Width: 912
Flags: W
LayerCount: 2
Fore
SplineSet
348 1629 m 1,1,2
 432 1465 432 1465 514 1168 c 1,3,4
 561 932 561 932 567 786 c 1,5,6
 574 466 574 466 429 114 c 1,7,8
 394 47 394 47 399 44 c 1,9,-1
 403 43 l 1,10,11
 466 55 466 55 486 80 c 2,12,-1
 490 85 l 1,13,14
 638 366 638 366 633 859 c 1,15,-1
 636 861 l 1,16,17
 672 629 672 629 659 560 c 1,18,19
 621 301 621 301 543 95 c 1,20,21
 509 51 509 51 570 25 c 2,22,-1
 586 18 l 1,23,-1
 594 29 l 1,24,-1
 622 85 l 1,25,26
 716 308 716 308 768 575 c 1,27,28
 783 832 783 832 701 1156 c 1,29,30
 630 1364 630 1364 567 1465 c 1,31,32
 416 1662 416 1662 336 1696 c 1,33,-1
 298 1709 l 1,34,0
 306 1683 306 1683 348 1629 c 1,1,2
480 48 m 1,35,36
 314 -20 314 -20 247 8 c 1,37,38
 166 10 166 10 144 -17 c 1,39,-1
 143 -19 l 1,40,41
 125 -51 125 -51 149 -98 c 1,42,-1
 156 -101 l 1,43,44
 167 -107 167 -107 205 -72 c 1,45,46
 324 -67 324 -67 402 -51 c 1,47,48
 566 -93 566 -93 636 -90 c 1,49,50
 671 -105 671 -105 748 -55 c 1,51,-1
 763 -36 l 2,52,53
 824 41 824 41 811 70 c 1,54,55
 759 93 759 93 738 83 c 1,56,-1
 729 72 l 1,57,-1
 711 18 l 1,58,59
 672 -22 672 -22 648 -12 c 1,60,61
 634 -30 634 -30 530 13 c 1,62,-1
 498 46 l 1,63,-1
 480 48 l 1,35,36
205 -232 m 1,65,66
 184 -261 184 -261 182 -298 c 1,67,68
 182 -324 182 -324 225 -342 c 2,69,-1
 248 -352 l 1,70,71
 349 -342 349 -342 360 -334 c 1,72,73
 407 -325 407 -325 433.5 -278 c 128,-1,74
 460 -231 460 -231 330 -260 c 1,75,-1
 322 -257 l 1,76,-1
 249 -251 l 1,77,-1
 243 -248 l 1,78,79
 261 -224 261 -224 247 -217 c 1,80,64
 232 -211 232 -211 205 -232 c 1,65,66
271 -191 m 1,81,82
 255 -216 255 -216 268 -222 c 1,83,-1
 299 -232 l 1,84,85
 433 -233 433 -233 417 -196 c 1,86,-1
 479 -117 l 2,87,88
 486 -108 486 -108 451 -83 c 1,89,90
 430 -74 430 -74 359 -87 c 1,91,-1
 271 -191 l 1,81,82
EndSplineSet
Validated: 41
EndChar

StartChar: asterisk
Encoding: 42 42 13
Width: 2051
Flags: W
LayerCount: 2
Fore
SplineSet
918 685 m 1,0,1
 829 791 829 791 650.5 948.5 c 128,-1,2
 472 1106 472 1106 125 1121 c 1,3,-1
 658 1560 l 1,4,5
 608 1251 608 1251 776 1062 c 128,-1,6
 944 873 944 873 1024 775 c 1,7,8
 1114 862 1114 862 1248 1028.5 c 128,-1,9
 1382 1195 1382 1195 1370 1505 c 1,10,-1
 1846 1007 l 1,11,12
 1500 1033 1500 1033 1356.5 897 c 128,-1,13
 1213 761 1213 761 1113 667 c 1,14,15
 1201 576 1201 576 1407.5 400.5 c 128,-1,16
 1614 225 1614 225 1926 238 c 1,17,-1
 1428 -238 l 1,18,19
 1454 108 1454 108 1278 292 c 128,-1,20
 1102 476 1102 476 1006 578 c 1,21,22
 898 488 898 488 758 325 c 128,-1,23
 618 162 618 162 603 -186 c 1,24,-1
 164 346 l 1,25,26
 475 297 475 297 646.5 450.5 c 128,-1,27
 818 604 818 604 918 685 c 1,0,1
EndSplineSet
Validated: 33
EndChar

StartChar: comma
Encoding: 44 44 15
Width: 434
Flags: W
LayerCount: 2
Fore
SplineSet
184 60 m 1,0,-1
 213 111 l 1,1,-1
 262 153 l 1,2,-1
 334 111 l 1,3,-1
 334 60 l 1,4,-1
 325 60 l 1,5,-1
 306 6 l 1,6,-1
 164 -142 l 1,7,-1
 125 -99 l 1,8,-1
 184 60 l 1,0,-1
EndSplineSet
Validated: 1
EndChar

StartChar: period
Encoding: 46 46 17
Width: 419
Flags: W
LayerCount: 2
Fore
SplineSet
125 6 m 1,0,-1
 154 58 l 1,1,-1
 202 101 l 1,2,-1
 276 58 l 1,3,-1
 276 6 l 1,4,-1
 268 6 l 1,5,-1
 247 -47 l 1,6,-1
 210 -57 l 1,7,-1
 158 -47 l 1,8,-1
 125 6 l 1,0,-1
EndSplineSet
Validated: 1
EndChar

StartChar: slash
Encoding: 47 47 18
Width: 880
Flags: W
LayerCount: 2
Fore
SplineSet
120 -147 m 1,0,-1
 644 1474 l 1,1,-1
 760 1474 l 1,2,-1
 234 -147 l 1,3,-1
 120 -147 l 1,0,-1
EndSplineSet
Validated: 1
EndChar

StartChar: zero
Encoding: 48 48 19
Width: 959
Flags: W
LayerCount: 2
Fore
SplineSet
461 1277 m 1,1,-1
 392 1253 l 1,2,-1
 354 1181 l 1,3,-1
 304 1062 l 1,4,5
 291 965 291 965 297.5 899 c 128,-1,6
 304 833 304 833 291 677 c 1,7,8
 298 509 298 509 310 365 c 1,9,-1
 354 257 l 1,10,11
 397 180 397 180 416 152.5 c 128,-1,12
 435 125 435 125 485 113 c 1,13,14
 541 125 541 125 557 134.5 c 128,-1,15
 573 144 573 144 588.5 173.5 c 128,-1,16
 604 203 604 203 622 263 c 1,17,-1
 647 359 l 1,18,-1
 654 419 l 1,19,-1
 673 527 l 1,20,-1
 666 684 l 1,21,-1
 654 852 l 1,22,-1
 642 1026 l 1,23,-1
 616 1164 l 1,24,-1
 591 1230 l 1,25,0
 516 1277 516 1277 461 1277 c 1,1,-1
689 1313 m 1,26,27
 782 1249 782 1249 825.5 1182 c 128,-1,28
 869 1115 869 1115 904 1016 c 1,29,-1
 928 882 l 1,30,-1
 910 800 l 1,31,-1
 910 719 l 1,32,-1
 928 660 l 1,33,-1
 928 503 l 1,34,-1
 904 387 l 1,35,-1
 840 241 l 1,36,37
 800 165 800 165 776.5 130.5 c 128,-1,38
 753 96 753 96 697.5 75.5 c 128,-1,39
 642 55 642 55 526 20 c 1,40,41
 444 26 444 26 371.5 46 c 128,-1,42
 299 66 299 66 252 104 c 128,-1,43
 205 142 205 142 165 218 c 1,44,-1
 159 253 l 1,45,-1
 153 282 l 1,46,-1
 95 334 l 1,47,-1
 60 387 l 1,48,-1
 37 596 l 1,49,50
 19 730 19 730 28 843.5 c 128,-1,51
 37 957 37 957 63 1024 c 128,-1,52
 89 1091 89 1091 141 1179 c 1,53,-1
 223 1266 l 1,54,55
 281 1313 281 1313 415 1359 c 1,56,57
 479 1383 479 1383 531.5 1371 c 128,-1,58
 584 1359 584 1359 689 1313 c 1,26,27
EndSplineSet
Validated: 33
EndChar

StartChar: one
Encoding: 49 49 20
Width: 647
Flags: W
LayerCount: 2
Fore
SplineSet
37 1192 m 1,0,-1
 259 1404 l 1,1,-1
 321 1362 l 1,2,-1
 358 1391 l 1,3,-1
 490 1397 l 1,4,-1
 477 1341 l 1,5,6
 478 1325 478 1325 484 1289 c 128,-1,7
 490 1253 490 1253 478 1122 c 1,8,-1
 478 925 l 1,9,-1
 460 883 l 1,10,-1
 434 883 l 1,11,-1
 384 817 l 1,12,-1
 410 780 l 1,13,-1
 410 746 l 1,14,-1
 452 724 l 1,15,-1
 473 724 l 1,16,-1
 473 679 l 1,17,-1
 490 252 l 1,18,19
 498 158 498 158 553 122 c 1,20,-1
 622 109 l 1,21,-1
 622 50 l 1,22,23
 373 64 373 64 122 50 c 1,24,-1
 116 122 l 1,25,26
 178 130 178 130 197.5 155.5 c 128,-1,27
 217 181 217 181 223 268 c 1,28,-1
 217 1006 l 1,29,30
 220 1155 220 1155 187 1150 c 128,-1,31
 154 1145 154 1145 25 1105 c 1,32,-1
 37 1192 l 1,0,-1
EndSplineSet
Validated: 33
EndChar

StartChar: two
Encoding: 50 50 21
Width: 1010
Flags: W
LayerCount: 2
Fore
SplineSet
437 1387 m 1,0,-1
 441 1383 l 1,1,-1
 445 1383 l 1,2,-1
 459 1388 l 1,3,-1
 463 1384 l 1,4,-1
 466 1388 l 1,5,-1
 503 1391 l 1,6,-1
 536 1389 l 1,7,-1
 540 1393 l 1,8,-1
 544 1393 l 1,9,10
 642 1392 642 1392 769 1283 c 1,11,12
 836 1206 836 1206 882 1121 c 1,13,14
 897 923 897 923 809 812 c 1,15,16
 710 710 710 710 593 639 c 1,17,18
 511 593 511 593 434 525 c 1,19,20
 285 418 285 418 290 344 c 1,21,22
 269 297 269 297 265 250 c 1,23,24
 279 219 279 219 341 223 c 1,25,-1
 534 202 l 1,26,-1
 618 188 l 1,27,-1
 657 202 l 1,28,-1
 702 205 l 1,29,30
 801 192 801 192 836 254 c 1,31,32
 876 309 876 309 912 335 c 1,33,-1
 915 413 l 1,34,35
 973 408 973 408 979 401 c 1,36,37
 937 73 937 73 927 56 c 1,38,-1
 910 51 l 1,39,-1
 891 50 l 1,40,41
 869 66 869 66 725 63 c 1,42,43
 724 80 724 80 587 78 c 1,44,45
 428 85 428 85 288 60 c 1,46,-1
 218 60 l 1,47,-1
 74 51 l 2,48,49
 65 50 65 50 62 66 c 1,50,51
 58 134 58 134 35 268 c 1,52,-1
 66 294 l 1,53,-1
 71 338 l 1,54,-1
 67 338 l 1,55,56
 52 343 52 343 44 357 c 1,57,58
 39 446 39 446 177 657 c 1,59,60
 259 761 259 761 371 826 c 1,61,62
 475 888 475 888 537 948 c 1,63,-1
 552 949 l 1,64,65
 572 942 572 942 591 919 c 1,66,-1
 595 919 l 1,67,-1
 613 924 l 1,68,-1
 613 920 l 1,69,70
 629 921 629 921 636 974 c 1,71,-1
 643 982 l 1,72,-1
 634 1010 l 1,73,-1
 664 1120 l 1,74,-1
 666 1156 l 1,75,76
 661 1193 661 1193 609 1241 c 1,77,78
 554 1278 554 1278 477 1273 c 1,79,-1
 466 1272 l 1,80,-1
 452 1267 l 1,81,-1
 447 1271 l 1,82,83
 365 1257 365 1257 232 1154 c 1,84,85
 142 1070 142 1070 131 995 c 1,86,-1
 106 982 l 1,87,-1
 91 985 l 1,88,-1
 87 981 l 1,89,90
 50 982 50 982 50 990 c 1,91,92
 19 1215 19 1215 250 1351 c 1,93,-1
 437 1387 l 1,0,-1
EndSplineSet
Validated: 33
EndChar

StartChar: three
Encoding: 51 51 22
Width: 922
Flags: W
LayerCount: 2
Fore
SplineSet
25 172 m 1,0,-1
 75 222 l 1,1,-1
 131 224 l 1,2,-1
 165 200 l 1,3,-1
 217 181 l 1,4,-1
 278 175 l 1,5,-1
 339 168 l 1,6,-1
 470 218 l 1,7,-1
 584 321 l 1,8,-1
 618 399 l 1,9,-1
 601 431 l 1,10,11
 570 677 570 677 481 677 c 0,12,13
 450 677 450 677 386 646 c 1,14,-1
 362 646 l 2,15,16
 337 646 337 646 297 673 c 1,17,-1
 305 758 l 1,18,-1
 305 769 l 1,19,-1
 315 769 l 2,20,21
 381 769 381 769 511 845 c 1,22,23
 646 962 646 962 646 1036 c 1,24,-1
 669 1066 l 1,25,26
 646 1116 646 1116 655 1161 c 1,27,28
 568 1273 568 1273 499 1279 c 1,29,30
 423 1279 423 1279 248 1205 c 1,31,-1
 195 1193 l 1,32,-1
 155 1174 l 1,33,-1
 111 1255 l 1,34,-1
 135 1305 l 1,35,-1
 174 1336 l 1,36,-1
 213 1366 l 1,37,-1
 301 1405 l 1,38,-1
 474 1432 l 1,39,40
 576 1426 576 1426 675 1405 c 1,41,42
 695 1405 695 1405 695 1375 c 1,43,-1
 725 1375 l 1,44,45
 725 1359 725 1359 735 1359 c 1,46,-1
 740 1354 l 1,47,48
 779 1354 779 1354 838 1232 c 1,49,-1
 862 1174 l 1,50,-1
 878 1108 l 1,51,-1
 862 985 l 1,52,53
 809 912 809 912 770.5 860.5 c 128,-1,54
 732 809 732 809 646 753 c 1,55,-1
 646 733 l 1,56,57
 670 733 670 733 743 704.5 c 128,-1,58
 816 676 816 676 862 547 c 1,59,-1
 880 485 l 1,60,-1
 897 435 l 1,61,-1
 884 385 l 1,62,-1
 869 317 l 1,63,-1
 810 186 l 1,64,65
 698 60 698 60 392 31 c 1,66,-1
 279 31 l 1,67,-1
 229 50 l 1,68,-1
 162 57 l 1,69,-1
 62 94 l 1,70,-1
 25 172 l 1,0,-1
EndSplineSet
Validated: 33
EndChar

StartChar: four
Encoding: 52 52 23
Width: 1130
Flags: W
LayerCount: 2
Fore
SplineSet
688 1418 m 1,0,-1
 695 1418 l 1,1,-1
 695 1414 l 1,2,-1
 699 1399 l 1,3,-1
 753 1384 l 1,4,-1
 840 1388 l 1,5,-1
 851 1388 l 1,6,-1
 877 1392 l 1,7,-1
 881 1388 l 1,8,-1
 870 1328 l 1,9,-1
 877 1250 l 1,10,-1
 870 1063 l 1,11,-1
 870 925 l 1,12,13
 862 877 862 877 837 877 c 0,14,15
 819 877 819 877 782 809 c 1,16,17
 804 777 804 777 804 765 c 2,18,-1
 804 738 l 1,19,-1
 866 716 l 1,20,-1
 866 589 l 2,21,22
 866 582 866 582 877 582 c 0,23,24
 976 582 976 582 1044 593 c 1,25,-1
 1048 589 l 1,26,-1
 1048 529 l 2,27,28
 1048 490 1048 490 979 410 c 1,29,-1
 873 410 l 1,30,-1
 877 376 l 1,31,32
 877 143 877 143 932 126 c 1,33,34
 932 117 932 117 1001 104 c 1,35,-1
 1004 100 l 1,36,-1
 1004 51 l 1,37,-1
 1001 48 l 1,38,-1
 1001 44 l 1,39,-1
 768 51 l 1,40,-1
 535 44 l 1,41,42
 527 51 527 51 524 115 c 1,43,44
 591 130 591 130 604 152 c 1,45,46
 626 194 626 194 626 290 c 2,47,-1
 626 417 l 1,48,49
 504 417 504 417 374 429 c 1,50,51
 317 417 317 417 29 414 c 1,52,-1
 25 417 l 1,53,-1
 25 447 l 2,54,55
 25 471 25 471 269 813 c 1,56,57
 424 1048 424 1048 524 1276 c 1,58,59
 635 1387 635 1387 688 1418 c 1,0,-1
294 600 m 1,60,61
 341 582 341 582 589 582 c 2,62,-1
 615 582 l 1,63,-1
 615 843 l 2,64,65
 615 1052 615 1052 593 1052 c 1,66,-1
 582 1089 l 1,67,-1
 512 951 l 1,68,69
 421 789 421 789 294 600 c 1,60,61
EndSplineSet
Validated: 1
EndChar

StartChar: five
Encoding: 53 53 24
Width: 960
Flags: W
LayerCount: 2
Fore
SplineSet
249 1376 m 1,0,-1
 302 1361 l 1,1,-1
 334 1361 l 2,2,3
 388 1361 388 1361 494 1339 c 1,4,-1
 518 1339 l 1,5,6
 692 1361 692 1361 747 1361 c 128,-1,7
 802 1361 802 1361 864 1405 c 1,8,9
 873 1405 873 1405 879 1211 c 1,10,-1
 902 1029 l 1,11,-1
 902 1026 l 1,12,-1
 856 985 l 1,13,-1
 849 985 l 2,14,15
 844 985 844 985 796 1098 c 1,16,17
 721 1218 721 1218 643 1188 c 1,18,-1
 636 1196 l 1,19,-1
 623 1196 l 1,20,-1
 560 1214 l 1,21,-1
 544 1200 l 1,22,-1
 527 1204 l 1,23,-1
 521 1204 l 1,24,-1
 510 1196 l 1,25,-1
 470 1196 l 2,26,27
 371 1196 371 1196 340 1141 c 1,28,-1
 354 1123 l 1,29,-1
 354 1119 l 1,30,31
 333 1103 333 1103 333 1067 c 1,32,-1
 327 1056 l 1,33,-1
 327 1042 l 1,34,35
 339 1020 339 1020 400 972 c 1,36,37
 413 970 413 970 413 961 c 1,38,-1
 411 958 l 1,39,-1
 411 954 l 1,40,41
 417 954 417 954 420 929 c 1,42,-1
 427 929 l 1,43,-1
 427 925 l 1,44,-1
 430 929 l 1,45,-1
 434 929 l 1,46,-1
 454 925 l 1,47,48
 454 942 454 942 494 954 c 1,49,50
 543 893 543 893 674 826 c 1,51,52
 766 753 766 753 817 664 c 1,53,54
 885 541 885 541 901.5 475.5 c 128,-1,55
 918 410 918 410 876 325.5 c 128,-1,56
 834 241 834 241 771 181 c 1,57,58
 607 30 607 30 408 30 c 0,59,60
 193 30 193 30 78 181 c 1,61,62
 8 249 8 249 8 341 c 1,63,64
 67 412 67 412 127 399 c 1,65,-1
 128 365 l 1,66,-1
 154 348 l 1,67,-1
 167 313 l 2,68,69
 180 278 180 278 221 242 c 2,70,-1
 262 206 l 2,71,72
 343 134 343 134 362 133 c 2,73,-1
 381 132 l 1,74,-1
 403 132 l 1,75,-1
 424 132 l 2,76,77
 579 132 579 132 645 269 c 1,78,-1
 650 287 l 2,79,80
 654 304 654 304 671 319 c 2,81,-1
 688 334 l 1,82,83
 688 369 688 369 664 422 c 1,84,-1
 664 477 l 2,85,86
 664 531 664 531 571 591 c 2,87,-1
 478 650 l 1,88,-1
 358 708 l 1,89,90
 237 765 237 765 170 777 c 0,91,92
 102 789 102 789 102 808 c 1,93,94
 212 1369 212 1369 222 1369 c 1,95,-1
 249 1376 l 1,0,-1
EndSplineSet
Validated: 33
EndChar

StartChar: six
Encoding: 54 54 25
Width: 976
Flags: W
LayerCount: 2
Fore
SplineSet
887 1293 m 1,0,-1
 922 1306 l 1,1,-1
 910 1347 l 1,2,-1
 916 1384 l 1,3,-1
 881 1405 l 1,4,5
 752 1426 752 1426 630 1393 c 1,6,-1
 526 1352 l 1,7,-1
 438 1288 l 1,8,-1
 374 1259 l 1,9,10
 339 1230 339 1230 321.5 1212.5 c 128,-1,11
 304 1195 304 1195 240 1143 c 1,12,-1
 211 1114 l 1,13,-1
 205 1096 l 1,14,-1
 159 1032 l 1,15,-1
 141 1009 l 1,16,-1
 141 968 l 1,17,-1
 135 962 l 1,18,-1
 100 927 l 1,19,-1
 94 910 l 1,20,-1
 94 898 l 1,21,-1
 94 875 l 1,22,-1
 89 857 l 1,23,-1
 71 822 l 1,24,25
 36 764 36 764 33 726.5 c 128,-1,26
 30 689 30 689 25 630 c 1,27,-1
 27 534 l 1,28,29
 60 473 60 473 65 462 c 1,30,-1
 77 421 l 1,31,-1
 59 423 l 1,32,-1
 52 414 l 1,33,-1
 42 397 l 1,34,-1
 89 240 l 1,35,-1
 124 188 l 1,36,-1
 170 135 l 1,37,-1
 287 65 l 1,38,-1
 415 25 l 1,39,-1
 473 30 l 1,40,-1
 560 36 l 1,41,-1
 630 54 l 1,42,-1
 648 65 l 1,43,-1
 673 77 l 1,44,45
 773 94 773 94 898 292 c 1,46,-1
 939 374 l 1,47,48
 945 426 945 426 948 438 c 128,-1,49
 951 450 951 450 951 482 c 128,-1,50
 951 514 951 514 945 572 c 1,51,-1
 933 654 l 1,52,-1
 904 723 l 1,53,54
 875 753 875 753 840 817 c 1,55,56
 766 860 766 860 706 863 c 1,57,-1
 689 863 l 1,58,-1
 677 869 l 1,59,60
 599 891 599 891 525 875 c 1,61,-1
 467 846 l 1,62,-1
 426 817 l 1,63,-1
 386 776 l 1,64,-1
 374 753 l 1,65,-1
 368 723 l 1,66,-1
 362 700 l 1,67,-1
 362 671 l 1,68,-1
 397 699 l 1,69,70
 421 704 421 704 456 716 c 1,71,-1
 496 733 l 1,72,73
 514 733 514 733 555 728 c 1,74,-1
 560 710 l 1,75,-1
 601 681 l 1,76,-1
 642 646 l 1,77,-1
 654 600 l 1,78,79
 671 559 671 559 683 541 c 1,80,-1
 689 483 l 1,81,-1
 689 460 l 1,82,-1
 677 426 l 1,83,-1
 677 409 l 1,84,-1
 665 362 l 1,85,-1
 665 327 l 1,86,87
 654 287 654 287 630.5 241 c 128,-1,88
 607 195 607 195 578 176 c 1,89,-1
 525 153 l 1,90,-1
 485 159 l 1,91,92
 432 170 432 170 420.5 181.5 c 128,-1,93
 409 193 409 193 380 228 c 1,94,-1
 351 292 l 1,95,-1
 316 322 l 1,96,-1
 310 391 l 1,97,98
 316 444 316 444 293 502 c 1,99,-1
 304 566 l 1,100,-1
 310 665 l 1,101,-1
 327 718 l 1,102,-1
 327 805 l 1,103,-1
 345 863 l 1,104,-1
 362 916 l 1,105,-1
 409 986 l 1,106,107
 426 1026 426 1026 444 1067 c 1,108,109
 479 1140 479 1140 491 1157 c 1,110,-1
 520 1186 l 2,111,112
 543 1209 543 1209 624 1273 c 1,113,114
 654 1285 654 1285 718 1308 c 1,115,116
 782 1320 782 1320 782 1320 c 1,117,-1
 852 1305 l 1,118,-1
 887 1293 l 1,0,-1
EndSplineSet
Validated: 41
EndChar

StartChar: seven
Encoding: 55 55 26
Width: 1177
Flags: W
LayerCount: 2
Fore
SplineSet
249 1034 m 1,0,-1
 214 1028 l 1,1,-1
 150 1075 l 1,2,3
 191 1243 191 1243 197 1337 c 1,4,-1
 185 1407 l 1,5,-1
 191 1442 l 1,6,7
 284 1395 284 1395 357 1398 c 128,-1,8
 430 1401 430 1401 535 1407 c 1,9,-1
 628 1383 l 1,10,-1
 651 1377 l 1,11,-1
 721 1372 l 1,12,-1
 727 1372 l 1,13,-1
 750 1377 l 1,14,-1
 814 1395 l 1,15,16
 826 1401 826 1401 907 1395 c 1,17,-1
 948 1389 l 1,18,-1
 977 1401 l 1,19,-1
 1024 1407 l 1,20,-1
 1059 1407 l 1,21,22
 1059 1407 1059 1407 1056 1377.5 c 128,-1,23
 1053 1348 1053 1348 1053 1278 c 1,24,-1
 1047 1209 l 1,25,-1
 1024 1150 l 1,26,-1
 1024 1121 l 1,27,28
 1012 1028 1012 1028 971 987 c 1,29,30
 826 778 826 778 756 719 c 1,31,-1
 756 719 l 1,32,-1
 756 679 l 1,33,-1
 739 620 l 1,34,-1
 715 585 l 1,35,-1
 698 574 l 1,36,-1
 640 463 l 1,37,-1
 570 387 l 1,38,-1
 540 300 l 1,39,40
 506 230 506 230 459 189 c 1,41,-1
 424 108 l 1,42,-1
 377 50 l 1,43,-1
 377 -2 l 1,44,-1
 273 -8 l 1,45,-1
 255 -8 l 1,46,-1
 214 -8 l 1,47,-1
 168 -2 l 1,48,49
 185 108 185 108 302 288 c 0,50,51
 348 358 348 358 372 393 c 1,52,-1
 366 440 l 1,53,54
 447 539 447 539 517 679 c 1,55,-1
 570 778 l 1,56,57
 605 836 605 836 756 1041 c 1,58,-1
 861 1193 l 1,59,60
 872 1222 872 1222 785 1245 c 1,61,-1
 715 1216 l 1,62,-1
 680 1228 l 1,63,-1
 663 1239 l 1,64,-1
 640 1239 l 1,65,-1
 610 1251 l 1,66,-1
 546 1257 l 1,67,-1
 535 1228 l 1,68,-1
 488 1228 l 1,69,-1
 471 1228 l 1,70,71
 401 1251 401 1251 302 1117 c 1,72,-1
 249 1034 l 1,0,-1
EndSplineSet
Validated: 37
EndChar

StartChar: eight
Encoding: 56 56 27
Width: 952
Flags: W
LayerCount: 2
Fore
SplineSet
577 909 m 1,0,1
 593 948 593 948 609 987 c 2,2,-1
 625 1027 l 1,3,-1
 623 1068 l 1,4,-1
 618 1091 l 1,5,-1
 610 1149 l 1,6,-1
 606 1171 l 1,7,-1
 595 1210 l 1,8,-1
 595 1240 l 1,9,-1
 554 1275 l 1,10,11
 483 1300 483 1300 448 1300 c 1,12,13
 405 1283 405 1283 393 1273 c 0,14,15
 359 1243 359 1243 353.5 1227.5 c 128,-1,16
 348 1212 348 1212 333 1187 c 1,17,-1
 325 1154 l 1,18,-1
 327 1112 l 1,19,-1
 323 1079 l 1,20,-1
 335 1051 l 1,21,-1
 340 1032 l 1,22,-1
 322 1004 l 1,23,-1
 342 987 l 1,24,-1
 365 962 l 1,25,-1
 388 939 l 1,26,-1
 391 909 l 1,27,-1
 437 877 l 1,28,-1
 492 840 l 1,29,-1
 577 909 l 1,0,1
459 697 m 1,30,-1
 395 663 l 1,31,-1
 320 581 l 1,32,-1
 290 512 l 1,33,-1
 284 461 l 1,34,-1
 285 385 l 1,35,36
 293 313 293 313 306.5 282 c 128,-1,37
 320 251 320 251 331.5 235 c 128,-1,38
 343 219 343 219 374 193 c 1,39,-1
 417 162 l 1,40,-1
 458 166 l 1,41,42
 503 169 503 169 518.5 173.5 c 128,-1,43
 534 178 534 178 549.5 183 c 128,-1,44
 565 188 565 188 608 220 c 128,-1,45
 651 252 651 252 650 331 c 1,46,-1
 656 385 l 1,47,-1
 661 438 l 1,48,-1
 637 497 l 1,49,-1
 633 530 l 1,50,-1
 589 584 l 1,51,-1
 528 642 l 1,52,-1
 490 679 l 1,53,-1
 459 697 l 1,30,-1
325 778 m 1,54,-1
 249 803 l 1,55,-1
 215 818 l 1,56,-1
 159 870 l 1,57,58
 115 941 115 941 98 973 c 128,-1,59
 81 1005 81 1005 75.5 1051.5 c 128,-1,60
 70 1098 70 1098 79.5 1139 c 128,-1,61
 89 1180 89 1180 148 1258 c 1,62,-1
 223 1325 l 1,63,-1
 297 1362 l 1,64,-1
 428 1389 l 1,65,-1
 491 1403 l 1,66,-1
 618 1389 l 1,67,-1
 674 1377 l 1,68,-1
 704 1366 l 1,69,-1
 741 1351 l 1,70,-1
 748 1333 l 1,71,-1
 763 1310 l 1,72,-1
 816 1280 l 1,73,-1
 827 1251 l 1,74,-1
 860 1217 l 1,75,-1
 879 1116 l 1,76,-1
 860 1027 l 1,77,78
 838 964 838 964 801 941 c 1,79,80
 757 922 757 922 739 868 c 1,81,-1
 721 838 l 1,82,-1
 654 777 l 1,83,-1
 723 730 l 1,84,-1
 791 685 l 1,85,-1
 901 576 l 1,86,87
 927 464 927 464 923.5 413.5 c 128,-1,88
 920 363 920 363 890 270 c 1,89,-1
 801 140 l 1,90,-1
 700 91 l 1,91,-1
 584 69 l 1,92,-1
 499 50 l 1,93,94
 372 62 372 62 310.5 62 c 128,-1,95
 249 62 249 62 167 121 c 1,96,-1
 92 173 l 1,97,-1
 106 213 l 1,98,-1
 113 250 l 1,99,-1
 106 258 l 1,100,-1
 64 278 l 1,101,-1
 69 301 l 1,102,-1
 63 326 l 1,103,-1
 25 341 l 1,104,-1
 40 434 l 1,105,-1
 70 542 l 1,106,-1
 120 604 l 1,107,-1
 195 660 l 1,108,109
 243 694 243 694 278 732 c 1,110,-1
 325 778 l 1,54,-1
EndSplineSet
Validated: 33
EndChar

StartChar: nine
Encoding: 57 57 28
Width: 937
Flags: W
LayerCount: 2
Fore
SplineSet
86 155 m 1,0,-1
 53 102 l 1,1,-1
 64 81 l 1,2,-1
 59 44 l 1,3,-1
 92 23 l 1,4,5
 216 2 216 2 332 35 c 1,6,-1
 432 76 l 1,7,-1
 516 140 l 1,8,-1
 578 169 l 1,9,10
 611 198 611 198 628 215.5 c 128,-1,11
 645 233 645 233 706 285 c 1,12,-1
 695 332 l 1,13,-1
 700 350 l 1,14,-1
 744 414 l 1,15,-1
 773 448 l 1,16,-1
 801 460 l 1,17,-1
 807 466 l 1,18,-1
 840 501 l 1,19,-1
 846 518 l 1,20,-1
 846 530 l 1,21,-1
 846 553 l 1,22,-1
 851 571 l 1,23,-1
 868 606 l 1,24,25
 901 664 901 664 904 701.5 c 128,-1,26
 907 739 907 739 912 798 c 1,27,-1
 910 894 l 1,28,29
 896 1031 896 1031 851 1188 c 1,30,-1
 817 1240 l 1,31,-1
 773 1293 l 1,32,-1
 661 1363 l 1,33,-1
 538 1403 l 1,34,-1
 483 1398 l 1,35,-1
 400 1392 l 1,36,-1
 332 1374 l 1,37,-1
 315 1363 l 1,38,-1
 238 1334 l 1,39,40
 148 1246 148 1246 115 1208 c 128,-1,41
 82 1170 82 1170 76 1136 c 1,42,-1
 36 1054 l 1,43,44
 31 1002 31 1002 28 990 c 128,-1,45
 25 978 25 978 25 946 c 128,-1,46
 25 914 25 914 31 856 c 1,47,-1
 42 774 l 1,48,-1
 70 705 l 1,49,-1
 98 675 l 1,50,-1
 131 611 l 1,51,52
 202 568 202 568 260 565 c 1,53,-1
 276 565 l 1,54,-1
 287 559 l 1,55,56
 362 537 362 537 433 553 c 2,57,-1
 489 565 l 1,58,-1
 528 594 l 1,59,-1
 566 635 l 1,60,-1
 578 658 l 1,61,-1
 583 705 l 1,62,-1
 556 702 l 1,63,64
 533 697 533 697 499 685 c 1,65,-1
 461 668 l 1,66,67
 444 685 444 685 404 690 c 1,68,-1
 400 708 l 1,69,-1
 360 737 l 1,70,-1
 321 772 l 1,71,-1
 309 818 l 1,72,73
 293 859 293 859 282 877 c 1,74,-1
 276 955 l 1,75,-1
 276 978 l 1,76,-1
 287 1002 l 1,77,-1
 287 1019 l 1,78,-1
 299 1066 l 1,79,-1
 299 1101 l 1,80,-1
 309 1141 l 1,81,-1
 338 1200 l 1,82,-1
 371 1229 l 1,83,-1
 382 1252 l 1,84,-1
 433 1275 l 1,85,-1
 471 1269 l 1,86,87
 522 1258 522 1258 533 1246.5 c 128,-1,88
 544 1235 544 1235 572 1200 c 1,89,-1
 600 1136 l 1,90,-1
 633 1106 l 1,91,-1
 639 1037 l 1,92,-1
 633 984 l 1,93,-1
 655 926 l 1,94,-1
 645 862 l 1,95,-1
 639 763 l 1,96,-1
 623 710 l 1,97,-1
 623 623 l 1,98,-1
 605 565 l 1,99,-1
 589 512 l 1,100,-1
 544 442 l 1,101,102
 528 382 528 382 511 341 c 1,103,104
 477 288 477 288 466 271 c 1,105,-1
 438 242 l 2,106,107
 416 219 416 219 394 201 c 2,108,-1
 338 155 l 1,109,110
 309 143 309 143 271 125 c 1,111,-1
 248 120 l 1,112,-1
 215 108 l 1,113,-1
 187 108 l 1,114,-1
 187 108 l 1,115,-1
 131 137 l 1,116,-1
 120 143 l 1,117,-1
 86 155 l 1,0,-1
EndSplineSet
Validated: 37
EndChar

StartChar: colon
Encoding: 58 58 29
Width: 434
Flags: W
LayerCount: 2
Fore
SplineSet
185 754 m 1,0,-1
 214 805 l 1,1,-1
 263 848 l 1,2,-1
 337 805 l 1,3,-1
 337 754 l 1,4,-1
 327 754 l 1,5,-1
 308 700 l 1,6,-1
 271 689 l 1,7,-1
 218 700 l 1,8,-1
 185 754 l 1,0,-1
125 6 m 1,9,-1
 154 58 l 1,10,-1
 202 101 l 1,11,-1
 276 58 l 1,12,-1
 276 6 l 1,13,-1
 268 6 l 1,14,-1
 247 -47 l 1,15,-1
 210 -57 l 1,16,-1
 158 -47 l 1,17,-1
 125 6 l 1,9,-1
EndSplineSet
Validated: 1
EndChar

StartChar: semicolon
Encoding: 59 59 30
AltUni2: 00037e.ffffffff.0
Width: 434
Flags: W
LayerCount: 2
Fore
SplineSet
184 60 m 1,0,-1
 213 111 l 1,1,-1
 262 153 l 1,2,-1
 334 111 l 1,3,-1
 334 60 l 1,4,-1
 325 60 l 1,5,-1
 306 6 l 1,6,-1
 164 -142 l 1,7,-1
 125 -99 l 1,8,-1
 184 60 l 1,0,-1
185 754 m 1,9,-1
 213 805 l 1,10,-1
 263 848 l 1,11,-1
 336 805 l 1,12,-1
 336 754 l 1,13,-1
 327 754 l 1,14,-1
 308 700 l 1,15,-1
 271 689 l 1,16,-1
 218 700 l 1,17,-1
 185 754 l 1,9,-1
EndSplineSet
Validated: 1
EndChar

StartChar: question
Encoding: 63 63 34
Width: 981
Flags: W
LayerCount: 2
Fore
SplineSet
161 1105 m 1,0,1
 189 1301 189 1301 265 1397.5 c 128,-1,2
 341 1494 341 1494 494 1494 c 128,-1,3
 647 1494 647 1494 730.5 1389.5 c 128,-1,4
 814 1285 814 1285 844 1126 c 128,-1,5
 874 967 874 967 803.5 894 c 128,-1,6
 733 821 733 821 644 798 c 128,-1,7
 555 775 555 775 523.5 691.5 c 128,-1,8
 492 608 492 608 497 562 c 128,-1,9
 502 516 502 516 534 516 c 0,10,11
 637 516 637 516 679.5 470 c 128,-1,12
 722 424 722 424 723 169 c 1,13,-1
 301 131 l 1,14,-1
 183 160 l 1,15,16
 195 490 195 490 322 516 c 1,17,-1
 350 516 l 2,18,19
 389 516 389 516 374 674 c 1,20,21
 382 829 382 829 476 896 c 128,-1,22
 570 963 570 963 623 980 c 128,-1,23
 676 997 676 997 683 1104.5 c 128,-1,24
 690 1212 690 1212 621 1290.5 c 128,-1,25
 552 1369 552 1369 460.5 1371 c 128,-1,26
 369 1373 369 1373 314.5 1305.5 c 128,-1,27
 260 1238 260 1238 161 1105 c 1,0,1
671.5 1373.5 m 128,-1,29
 699 1344 699 1344 722.5 1298.5 c 128,-1,30
 746 1253 746 1253 774 1177 c 128,-1,31
 802 1101 802 1101 795.5 1046 c 128,-1,32
 789 991 789 991 759 947 c 128,-1,33
 729 903 729 903 685.5 887 c 128,-1,34
 642 871 642 871 600 849.5 c 128,-1,35
 558 828 558 828 538 778 c 1,36,37
 597 823 597 823 654 836.5 c 128,-1,38
 711 850 711 850 757 892.5 c 128,-1,39
 803 935 803 935 816 986.5 c 128,-1,40
 829 1038 829 1038 823 1097 c 128,-1,41
 817 1156 817 1156 787.5 1231.5 c 128,-1,42
 758 1307 758 1307 719 1364.5 c 128,-1,43
 680 1422 680 1422 608 1445 c 1,44,28
 644 1403 644 1403 671.5 1373.5 c 128,-1,29
288 476 m 1,46,47
 288 476 288 476 314.5 471.5 c 128,-1,48
 341 467 341 467 410 469.5 c 128,-1,49
 479 472 479 472 519 469.5 c 128,-1,50
 559 467 559 467 599.5 460 c 128,-1,51
 640 453 640 453 656.5 422 c 128,-1,52
 673 391 673 391 699 361 c 1,53,54
 696 430 696 430 661.5 457 c 128,-1,55
 627 484 627 484 563 490 c 1,56,-1
 389 495 l 1,57,45
 331 490 331 490 288 476 c 1,46,47
363 6 m 1,58,-1
 392 58 l 1,59,-1
 440 101 l 1,60,-1
 514 58 l 1,61,-1
 514 6 l 1,62,-1
 506 6 l 1,63,-1
 485 -47 l 1,64,-1
 448 -57 l 1,65,-1
 396 -47 l 1,66,-1
 363 6 l 1,58,-1
EndSplineSet
Validated: 33
EndChar

StartChar: at
Encoding: 64 64 35
Width: 1733
Flags: W
LayerCount: 2
Fore
SplineSet
961 840 m 0,0,1
 920 840 920 840 879 815.5 c 128,-1,2
 838 791 838 791 805 751 c 128,-1,3
 772 711 772 711 756.5 675.5 c 128,-1,4
 741 640 741 640 741 589 c 0,5,6
 741 503 741 503 790 503 c 0,7,8
 817 503 817 503 848 525 c 128,-1,9
 879 547 879 547 910.5 600 c 128,-1,10
 942 653 942 653 963.5 712.5 c 128,-1,11
 985 772 985 772 985 817 c 0,12,13
 985 840 985 840 961 840 c 0,0,1
940 510 m 1,14,15
 873 395 873 395 821.5 362 c 128,-1,16
 770 329 770 329 704 329 c 0,17,18
 635 329 635 329 590 383.5 c 128,-1,19
 545 438 545 438 545 524 c 1,20,21
 573 607 573 607 597 673 c 128,-1,22
 621 739 621 739 692.5 811 c 128,-1,23
 764 883 764 883 857 936 c 128,-1,24
 950 989 950 989 996.5 1000.5 c 128,-1,25
 1043 1012 1043 1012 1078 1012 c 0,26,27
 1121 1012 1121 1012 1156.5 997 c 128,-1,28
 1192 982 1192 982 1192 955 c 0,29,30
 1192 949 1192 949 1192 943 c 256,31,32
 1192 937 1192 937 1189 921.5 c 128,-1,33
 1186 906 1186 906 1161 815 c 1,34,35
 1151 768 1151 768 1141 705.5 c 128,-1,36
 1131 643 1131 643 1120.5 584.5 c 128,-1,37
 1110 526 1110 526 1104 482 c 128,-1,38
 1098 438 1098 438 1098 426 c 0,39,40
 1098 385 1098 385 1141 385 c 0,41,42
 1190 385 1190 385 1234 418 c 128,-1,43
 1278 451 1278 451 1312 505 c 128,-1,44
 1346 559 1346 559 1365.5 630.5 c 128,-1,45
 1385 702 1385 702 1385 782 c 0,46,47
 1385 881 1385 881 1354 960.5 c 128,-1,48
 1323 1040 1323 1040 1265.5 1096.5 c 128,-1,49
 1208 1153 1208 1153 1127.5 1183.5 c 128,-1,50
 1047 1214 1047 1214 948 1214 c 0,51,52
 821 1214 821 1214 713.5 1166 c 128,-1,53
 606 1118 606 1118 528.5 1032 c 128,-1,54
 451 946 451 946 428 888 c 1,55,-1
 354 870 l 1,56,-1
 350 816 l 1,57,-1
 383 771 l 1,58,59
 361 713 361 713 361 575 c 0,60,61
 361 332 361 332 531 188 c 0,62,63
 602 129 602 129 689 100.5 c 128,-1,64
 776 72 776 72 893 72 c 0,65,66
 936 72 936 72 972 69 c 128,-1,67
 1008 66 1008 66 1041.5 77 c 128,-1,68
 1075 88 1075 88 1110 98.5 c 128,-1,69
 1145 109 1145 109 1188 125 c 0,70,71
 1200 129 1200 129 1206 129 c 0,72,73
 1219 129 1219 129 1230 111.5 c 128,-1,74
 1241 94 1241 94 1241 76 c 0,75,76
 1241 68 1241 68 1233 61.5 c 128,-1,77
 1225 55 1225 55 1198 45 c 1,78,79
 1116 10 1116 10 1033 -1 c 128,-1,80
 950 -12 950 -12 850 -12 c 1,81,82
 675 -4 675 -4 539 58 c 128,-1,83
 403 120 403 120 316 168.5 c 128,-1,84
 229 217 229 217 177 325.5 c 128,-1,85
 125 434 125 434 125 567 c 1,86,87
 154 729 154 729 202 867.5 c 128,-1,88
 250 1006 250 1006 375 1097 c 128,-1,89
 500 1188 500 1188 638 1254.5 c 128,-1,90
 776 1321 776 1321 954 1321 c 0,91,92
 1098 1321 1098 1321 1217.5 1282 c 128,-1,93
 1337 1243 1337 1243 1381 1209 c 1,94,-1
 1381 1188 l 1,95,-1
 1410 1186 l 1,96,-1
 1420 1167 l 1,97,-1
 1435 1157 l 1,98,-1
 1430 1132 l 1,99,-1
 1448 1107 l 1,100,-1
 1479 1111 l 1,101,102
 1511 1106 1511 1106 1559.5 1010.5 c 128,-1,103
 1608 915 1608 915 1608 803 c 0,104,105
 1608 692 1608 692 1566 600 c 128,-1,106
 1524 508 1524 508 1450 441.5 c 128,-1,107
 1376 375 1376 375 1274 337 c 128,-1,108
 1172 299 1172 299 1051 299 c 0,109,110
 983 299 983 299 953.5 323.5 c 128,-1,111
 924 348 924 348 924 406 c 0,112,113
 924 428 924 428 927 451.5 c 128,-1,114
 930 475 930 475 940 510 c 1,14,15
EndSplineSet
Validated: 33
EndChar

StartChar: A
Encoding: 65 65 36
Width: 1428
Flags: W
LayerCount: 2
Fore
SplineSet
859 659 m 5,0,1
 824 760 824 760 811 800 c 5,2,3
 820 865 820 865 801 884.5 c 132,-1,4
 782 904 782 904 768.5 940 c 132,-1,5
 755 976 755 976 749 993.5 c 132,-1,6
 743 1011 743 1011 738 1027 c 5,7,8
 671 834 671 834 597 633 c 5,9,-1
 859 659 l 5,0,1
897.5 58 m 132,-1,11
 893 64 893 64 893 90 c 132,-1,12
 893 116 893 116 896 121.5 c 132,-1,13
 899 127 899 127 916 129 c 4,14,15
 972 135 972 135 992.5 149.5 c 132,-1,16
 1013 164 1013 164 1013 194 c 4,17,18
 1013 204 1013 204 1010 220 c 132,-1,19
 1007 236 1007 236 998 267 c 132,-1,20
 989 298 989 298 972.5 350 c 132,-1,21
 956 402 956 402 922 510 c 5,22,23
 893 508 893 508 606 487 c 5,24,-1
 597 517 l 5,25,26
 568 495 568 495 530 483 c 5,27,28
 504 400 504 400 488 349 c 132,-1,29
 472 298 472 298 463 268 c 132,-1,30
 454 238 454 238 451.5 223 c 132,-1,31
 449 208 449 208 449 198 c 4,32,33
 449 131 449 131 553 129 c 5,34,-1
 593 103 l 5,35,-1
 593 86 l 6,36,37
 593 60 593 60 590.5 54 c 132,-1,38
 588 48 588 48 573 48 c 4,39,40
 566 48 566 48 553 48 c 4,41,42
 543 48 543 48 529 50 c 5,43,-1
 349 52 l 5,44,45
 325 44 325 44 301 44 c 6,46,-1
 231 45 l 5,47,-1
 213 56 l 5,48,-1
 185 42 l 5,49,-1
 163 32 l 5,50,-1
 159 40 l 5,51,-1
 134 36 l 5,52,-1
 103 20 l 5,53,54
 40 0 40 0 32.5 16.5 c 132,-1,55
 25 33 25 33 39 38 c 5,56,-1
 45 61 l 5,57,58
 34 69 34 69 35.5 78.5 c 132,-1,59
 37 88 37 88 51 92 c 4,60,61
 228 137 228 137 246 151.5 c 132,-1,62
 264 166 264 166 287 205 c 132,-1,63
 310 244 310 244 341 316 c 132,-1,64
 372 388 372 388 424 511 c 4,65,66
 492 671 492 671 540.5 789.5 c 132,-1,67
 589 908 589 908 623 997 c 132,-1,68
 657 1086 657 1086 679.5 1150 c 132,-1,69
 702 1214 702 1214 607 1299 c 5,70,-1
 668 1397 l 5,71,72
 792 1403 792 1403 819 1409 c 5,73,74
 827 1412 827 1412 839 1412 c 4,75,76
 850 1412 850 1412 852.5 1405.5 c 132,-1,77
 855 1399 855 1399 865 1372 c 5,78,79
 957 1215 957 1215 987 1143 c 132,-1,80
 1017 1071 1017 1071 1033 1024 c 5,81,-1
 1047 968 l 5,82,-1
 1012 978 l 5,83,-1
 998 950 l 5,84,-1
 1022 904 l 5,85,-1
 1081 886 l 5,86,-1
 1112 794 l 5,87,-1
 1143 702 l 5,88,-1
 1246 680 l 5,89,-1
 1206 531 l 5,90,-1
 1169 528 l 5,91,92
 1203 418 1203 418 1224 363.5 c 132,-1,93
 1245 309 1245 309 1227 253 c 5,94,95
 1290 190 1290 190 1313.5 166.5 c 132,-1,96
 1337 143 1337 143 1368 136 c 132,-1,97
 1399 129 1399 129 1401 123.5 c 132,-1,98
 1403 118 1403 118 1403 91 c 132,-1,99
 1403 64 1403 64 1384 52 c 5,100,101
 1022 54 1022 54 998.5 53 c 132,-1,102
 975 52 975 52 968 52 c 4,103,10
 902 52 902 52 897.5 58 c 132,-1,11
EndSplineSet
Validated: 33
EndChar

StartChar: B
Encoding: 66 66 37
Width: 1172
Flags: W
LayerCount: 2
Fore
SplineSet
601 1450 m 1,1,2
 967 1450 967 1450 1092 1140 c 1,3,-1
 1101 1119 l 2,4,5
 1109 1098 1109 1098 1132 1089 c 1,6,7
 1132 1062 1132 1062 1082.5 974 c 128,-1,8
 1033 886 1033 886 971.5 857.5 c 128,-1,9
 910 829 910 829 886 829 c 1,10,-1
 886 809 l 1,11,12
 972 753 972 753 1010.5 701.5 c 128,-1,13
 1049 650 1049 650 1102 519 c 1,14,-1
 1147 437 l 1,15,16
 1078 307 1078 307 1078 272 c 1,17,18
 990 127 990 127 951 127 c 1,19,-1
 946 122 l 1,20,21
 936 122 936 122 936 106 c 1,22,-1
 906 106 l 1,23,24
 906 76 906 76 886 76 c 1,25,26
 787 55 787 55 621 55 c 1,27,-1
 320 91 l 1,28,29
 232 91 232 91 84 40 c 1,30,31
 84 30 84 30 54 30 c 1,32,-1
 54 35 l 1,33,-1
 44 66 l 1,34,35
 44 128 44 128 154 152 c 1,36,37
 250 213 250 213 250 264 c 2,38,-1
 250 732 l 1,39,-1
 270 732 l 1,40,-1
 270 737 l 1,41,-1
 265 743 l 1,42,-1
 265 748 l 1,43,44
 287 758 287 758 290 768 c 1,45,-1
 290 783 l 1,46,47
 275 783 275 783 275 793 c 1,48,49
 286 793 286 793 290 819 c 1,50,-1
 285 819 l 1,51,-1
 250 814 l 1,52,-1
 250 987 l 2,53,54
 250 1145 250 1145 194 1145 c 1,55,-1
 174 1155 l 1,56,57
 182 1206 182 1206 189 1206 c 1,58,59
 300 1170 300 1170 370 1170 c 1,60,-1
 580 1185 l 1,61,-1
 570 1124 l 1,62,-1
 560 1124 l 2,63,64
 465 1124 465 1124 465 1022 c 2,65,-1
 465 447 l 2,66,67
 465 239 465 239 520 239 c 1,68,69
 570 208 570 208 646 208 c 0,70,71
 779 208 779 208 866 320 c 1,72,73
 886 388 886 388 909 438 c 1,74,-1
 886 468 l 1,75,76
 886 600 886 600 751 717 c 1,77,78
 621 793 621 793 555 793 c 2,79,-1
 545 793 l 1,80,-1
 545 804 l 1,81,82
 577 916 577 916 626 916 c 1,83,84
 690 885 690 885 721 885 c 0,85,86
 810 885 810 885 841 1073 c 1,87,-1
 858 1105 l 1,88,89
 841 1236 841 1236 661 1313 c 1,90,91
 545 1341 545 1341 376 1337 c 128,-1,92
 207 1333 207 1333 -61 1246 c 0,93,94
 -104 1231 -104 1231 -122.5 1231 c 128,-1,95
 -141 1231 -141 1231 -199 1240.5 c 128,-1,96
 -257 1250 -257 1250 -257 1272 c 1,97,-1
 -327 1435 l 1,98,-1
 -317 1435 l 1,99,100
 -203 1374 -203 1374 -16 1374 c 0,101,102
 79 1374 79 1374 302 1413.5 c 128,-1,0
 525 1453 525 1453 601 1450 c 1,1,2
EndSplineSet
Validated: 33
EndChar

StartChar: C
Encoding: 67 67 38
Width: 1254
Flags: W
LayerCount: 2
Fore
SplineSet
1084 1480 m 1,0,1
 1076 1357 1076 1357 1083.5 1289 c 128,-1,2
 1091 1221 1091 1221 1100.5 1174 c 128,-1,3
 1110 1127 1110 1127 1129 1101 c 1,4,-1
 1047 1060 l 1,5,6
 1043 1120 1043 1120 1019 1179.5 c 128,-1,7
 995 1239 995 1239 954 1278.5 c 128,-1,8
 913 1318 913 1318 862.5 1338.5 c 128,-1,9
 812 1359 812 1359 748.5 1349.5 c 128,-1,10
 685 1340 685 1340 599.5 1310 c 128,-1,11
 514 1280 514 1280 508 1258 c 128,-1,12
 502 1236 502 1236 454 1236 c 1,13,-1
 458 1172 l 1,14,15
 406 1101 406 1101 381.5 1038 c 128,-1,16
 357 975 357 975 349.5 909.5 c 128,-1,17
 342 844 342 844 342 741.5 c 128,-1,18
 342 639 342 639 359 553.5 c 128,-1,19
 376 468 376 468 428 400.5 c 128,-1,20
 480 333 480 333 530.5 275.5 c 128,-1,21
 581 218 581 218 657.5 182.5 c 128,-1,22
 734 147 734 147 830.5 136 c 128,-1,23
 927 125 927 125 1002 136 c 128,-1,24
 1077 147 1077 147 1121.5 171.5 c 128,-1,25
 1166 196 1166 196 1229 266 c 1,26,27
 1229 188 1229 188 1197.5 152.5 c 128,-1,28
 1166 117 1166 117 1084 91 c 128,-1,29
 1002 65 1002 65 910.5 55.5 c 128,-1,30
 819 46 819 46 733.5 50 c 128,-1,31
 648 54 648 54 566 80 c 128,-1,32
 484 106 484 106 426 143.5 c 128,-1,33
 368 181 368 181 398 210 c 1,34,-1
 305 233 l 1,35,36
 186 371 186 371 156 440 c 128,-1,37
 126 509 126 509 113 581.5 c 128,-1,38
 100 654 100 654 100 740 c 1,39,-1
 25 811 l 1,40,-1
 92 900 l 1,41,42
 107 971 107 971 154 1062.5 c 128,-1,43
 201 1154 201 1154 283 1249 c 128,-1,44
 365 1344 365 1344 460 1390.5 c 128,-1,45
 555 1437 555 1437 629.5 1448 c 128,-1,46
 704 1459 704 1459 820.5 1454 c 128,-1,47
 937 1449 937 1449 1084 1480 c 1,0,1
EndSplineSet
Validated: 33
EndChar

StartChar: D
Encoding: 68 68 39
Width: 1285
Flags: W
LayerCount: 2
Fore
SplineSet
595 1430 m 1,0,1
 996 1423 996 1423 1098 1185 c 1,2,3
 1127 1121 1127 1121 1194 905 c 1,4,5
 1223 836 1223 836 1260 790 c 1,6,-1
 1260 785 l 1,7,8
 1224 729 1224 729 1138 445 c 1,9,10
 997 144 997 144 798 70 c 1,11,12
 690 40 690 40 570 40 c 0,13,14
 534 40 534 40 417 70 c 1,15,-1
 331 70 l 1,16,-1
 87 50 l 1,17,-1
 72 55 l 1,18,-1
 72 110 l 1,19,20
 79 121 79 121 174 155 c 1,21,22
 240 191 240 191 240 275 c 2,23,-1
 245 905 l 1,24,25
 245 1045 245 1045 194 1045 c 1,26,27
 194 1053 194 1053 153 1070 c 1,28,-1
 158 1116 l 1,29,30
 312 1081 312 1081 439 1097.5 c 128,-1,31
 566 1114 566 1114 580 1095 c 1,32,33
 580 1035 580 1035 570 1035 c 0,34,35
 499 1030 499 1030 499 970 c 1,36,-1
 493 965 l 1,37,38
 493 220 493 220 524 220 c 1,39,40
 600 180 600 180 656 180 c 2,41,-1
 681 180 l 2,42,43
 955 180 955 180 964 718 c 1,44,45
 953 1011 953 1011 849 1165 c 1,46,47
 735 1295 735 1295 417 1295 c 0,48,49
 205 1295 205 1295 57.5 1242.5 c 128,-1,50
 -90 1190 -90 1190 -151 1200 c 0,51,52
 -268 1219 -268 1219 -268 1240 c 1,53,-1
 -339 1400 l 1,54,-1
 -329 1400 l 1,55,56
 -213 1340 -213 1340 -24 1340 c 0,57,58
 72 1340 72 1340 253 1379.5 c 128,-1,59
 434 1419 434 1419 595 1430 c 1,0,1
EndSplineSet
Validated: 33
EndChar

StartChar: E
Encoding: 69 69 40
Width: 1226
Flags: W
LayerCount: 2
Fore
SplineSet
60 1407 m 1,0,-1
 25 1326 l 1,1,2
 106 1319 106 1319 141.5 1294.5 c 128,-1,3
 177 1270 177 1270 191.5 1229.5 c 128,-1,4
 206 1189 206 1189 219 1063 c 1,5,-1
 230 908 l 1,6,7
 277 908 277 908 301 915 c 1,8,-1
 324 915 l 1,9,-1
 324 889 l 1,10,-1
 318 877 l 1,11,-1
 301 877 l 1,12,-1
 289 877 l 1,13,-1
 277 882 l 1,14,-1
 259 877 l 1,15,-1
 242 865 l 1,16,-1
 242 846 l 1,17,-1
 219 833 l 1,18,-1
 224 409 l 1,19,20
 219 259 219 259 201 218.5 c 128,-1,21
 183 178 183 178 157 156.5 c 128,-1,22
 131 135 131 135 48 122 c 1,23,-1
 42 61 l 1,24,25
 131 61 131 61 189.5 64 c 128,-1,26
 248 67 248 67 311.5 71 c 128,-1,27
 375 75 375 75 596 68 c 128,-1,28
 817 61 817 61 940.5 61 c 128,-1,29
 1064 61 1064 61 1125 49.5 c 128,-1,30
 1186 38 1186 38 1286 49.5 c 128,-1,31
 1386 61 1386 61 1415 61 c 128,-1,32
 1444 61 1444 61 1447.5 129.5 c 128,-1,33
 1451 198 1451 198 1383 170 c 128,-1,34
 1315 142 1315 142 1270.5 144 c 128,-1,35
 1226 146 1226 146 1083 165 c 128,-1,36
 940 184 940 184 805 184 c 1,37,-1
 794 146 l 1,38,-1
 746 159 l 1,39,-1
 765 178 l 1,40,-1
 765 204 l 1,41,42
 671 190 671 190 623.5 190 c 128,-1,43
 576 190 576 190 552.5 199.5 c 128,-1,44
 529 209 529 209 512 315 c 1,45,-1
 512 703 l 1,46,-1
 621 706 l 1,47,-1
 729 708 l 1,48,49
 825 708 825 708 862 651 c 128,-1,50
 899 594 899 594 905 522 c 1,51,-1
 987 515 l 1,52,-1
 981 932 l 1,53,-1
 905 932 l 1,54,55
 887 889 887 889 872.5 864.5 c 128,-1,56
 858 840 858 840 817 809 c 1,57,-1
 740 809 l 1,58,-1
 512 814 l 1,59,-1
 512 1061 l 1,60,-1
 488 1185 l 1,61,-1
 512 1246 l 1,62,-1
 512 1277 l 1,63,-1
 543 1308 l 1,64,-1
 574 1308 l 1,65,-1
 642 1325 l 1,66,67
 765 1308 765 1308 820 1264 c 128,-1,68
 875 1220 875 1220 931 1169.5 c 128,-1,69
 987 1119 987 1119 1069 977 c 1,70,-1
 1134 1038 l 1,71,72
 1110 1138 1110 1138 1095.5 1198 c 128,-1,73
 1081 1258 1081 1258 1093 1407 c 1,74,75
 916 1401 916 1401 811 1382 c 1,76,-1
 799 1382 l 1,77,-1
 770 1376 l 1,78,-1
 729 1401 l 1,79,-1
 729 1401 l 1,80,-1
 705 1401 l 1,81,-1
 60 1407 l 1,0,-1
EndSplineSet
Validated: 37
EndChar

StartChar: F
Encoding: 70 70 41
Width: 1294
Flags: W
LayerCount: 2
Fore
SplineSet
843 474 m 2,0,1
 843 456 843 456 838 452 c 128,-1,2
 833 448 833 448 810 448 c 0,3,4
 779 448 779 448 774 452 c 128,-1,5
 769 456 769 456 767 480 c 0,6,7
 763 533 763 533 755.5 563.5 c 128,-1,8
 748 594 748 594 717 608 c 128,-1,9
 686 622 686 622 621 626 c 128,-1,10
 556 630 556 630 483 630 c 1,11,-1
 483 519 l 1,12,-1
 485 445 l 1,13,-1
 475 402 l 1,14,-1
 474 374 l 1,15,-1
 466 357 l 1,16,-1
 475 335 l 1,17,-1
 475 309 l 1,18,-1
 490 283 l 1,19,20
 493 234 493 234 499 204.5 c 128,-1,21
 505 175 505 175 520 160.5 c 128,-1,22
 535 146 535 146 563.5 141.5 c 128,-1,23
 592 137 592 137 638 137 c 0,24,25
 661 137 661 137 665.5 132 c 128,-1,26
 670 127 670 127 670 101 c 0,27,28
 670 67 670 67 667 59.5 c 128,-1,29
 664 52 664 52 654 52 c 2,30,-1
 632 52 l 1,31,-1
 570 54 l 1,32,33
 280 70 280 70 229.5 47.5 c 128,-1,34
 179 25 179 25 134 9.5 c 128,-1,35
 89 -6 89 -6 59 -32 c 1,36,-1
 48 -32 l 2,37,38
 32 -32 32 -32 28.5 -26 c 128,-1,39
 25 -20 25 -20 25 13 c 0,40,41
 25 35 25 35 28.5 41.5 c 128,-1,42
 32 48 32 48 46 52 c 1,43,44
 98 89 98 89 122 99 c 128,-1,45
 146 109 146 109 184 163 c 128,-1,46
 222 217 222 217 231 314 c 1,47,-1
 233 397 l 1,48,-1
 246 427 l 1,49,-1
 235 561 l 1,50,-1
 245 987 l 1,51,-1
 253 1019 l 1,52,-1
 271 1022 l 1,53,-1
 259 1059 l 1,54,-1
 237 1078 l 1,55,56
 231 1219 231 1219 220.5 1254.5 c 128,-1,57
 210 1290 210 1290 188 1300 c 128,-1,58
 166 1310 166 1310 129 1312 c 0,59,60
 96 1314 96 1314 90.5 1317 c 128,-1,61
 85 1320 85 1320 90 1342 c 128,-1,62
 95 1364 95 1364 98 1370.5 c 128,-1,63
 101 1377 101 1377 112 1398 c 1,64,-1
 127 1398 l 2,65,66
 154 1398 154 1398 223.5 1396.5 c 128,-1,67
 293 1395 293 1395 363.5 1379 c 128,-1,68
 434 1363 434 1363 671.5 1382 c 128,-1,69
 909 1401 909 1401 1005 1401 c 1,70,-1
 1042 1395 l 1,71,-1
 1082 1377 l 1,72,-1
 1101 1401 l 1,73,-1
 1228 1400 l 1,74,75
 1208 1240 1208 1240 1218 1200.5 c 128,-1,76
 1228 1161 1228 1161 1269 997 c 1,77,-1
 1177 952 l 1,78,79
 1129 1031 1129 1031 1083.5 1091 c 128,-1,80
 1038 1151 1038 1151 999 1202.5 c 128,-1,81
 960 1254 960 1254 892 1280 c 1,82,83
 570 1281 570 1281 546 1280 c 128,-1,84
 522 1279 522 1279 510.5 1276 c 128,-1,85
 499 1273 499 1273 494.5 1265.5 c 128,-1,86
 490 1258 490 1258 488 1245 c 1,87,88
 485 1233 485 1233 484 1159.5 c 128,-1,89
 483 1086 483 1086 485 863 c 1,90,-1
 485 763 l 1,91,-1
 485 736 l 1,92,-1
 516 736 l 2,93,94
 542 736 542 736 553 737 c 128,-1,95
 564 738 564 738 595 741 c 128,-1,96
 626 744 626 744 652 747 c 128,-1,97
 678 750 678 750 694 755 c 1,98,99
 744 767 744 767 759 810 c 0,100,101
 763 824 763 824 764 833.5 c 128,-1,102
 765 843 765 843 769 888 c 1,103,104
 772 904 772 904 777.5 911 c 128,-1,105
 783 918 783 918 801 918 c 0,106,107
 826 918 826 918 833.5 915 c 128,-1,108
 841 912 841 912 841 894 c 0,109,110
 841 888 841 888 840 847 c 2,111,-1
 838 702 l 1,112,-1
 821 685 l 1,113,-1
 825 663 l 1,114,-1
 829 648 l 1,115,-1
 840 634 l 1,116,-1
 832 562 l 1,117,-1
 843 513 l 1,118,-1
 843 474 l 2,0,1
EndSplineSet
Validated: 33
EndChar

StartChar: G
Encoding: 71 71 42
Width: 1242
Flags: W
LayerCount: 2
Fore
SplineSet
1202 751 m 1,1,-1
 1217 637 l 1,2,-1
 1183 590 l 1,3,4
 1179 494 1179 494 1179 408 c 0,5,6
 1179 328 1179 328 1161.5 225 c 128,-1,7
 1144 122 1144 122 1027.5 81.5 c 128,-1,8
 911 41 911 41 763 41 c 0,9,10
 632 41 632 41 565 67 c 128,-1,11
 498 93 498 93 410 145 c 1,12,-1
 359 202 l 1,13,14
 308 214 308 214 248.5 284.5 c 128,-1,15
 189 355 189 355 155 422.5 c 128,-1,16
 121 490 121 490 108.5 560.5 c 128,-1,17
 96 631 96 631 25 704 c 1,18,-1
 91 824 l 1,19,20
 100 939 100 939 151.5 1037.5 c 128,-1,21
 203 1136 203 1136 224 1158 c 1,22,-1
 281 1150 l 1,23,-1
 290 1221 l 1,24,25
 377 1305 377 1305 475 1350 c 128,-1,26
 573 1395 573 1395 653 1406.5 c 128,-1,27
 733 1418 733 1418 821.5 1415.5 c 128,-1,28
 910 1413 910 1413 1130 1447 c 1,29,30
 1140 1420 1140 1420 1123 1371 c 1,31,32
 1117 1344 1117 1344 1117 1310 c 1,33,34
 1111 1271 1111 1271 1125.5 1278 c 128,-1,35
 1140 1285 1140 1285 1140.5 1236 c 128,-1,36
 1141 1187 1141 1187 1152 1140 c 128,-1,37
 1163 1093 1163 1093 1184 1068 c 1,38,-1
 1096 1028 l 1,39,40
 1092 1086 1092 1086 1078 1118 c 128,-1,41
 1064 1150 1064 1150 1048 1181.5 c 128,-1,42
 1032 1213 1032 1213 1012 1236 c 0,43,44
 980 1275 980 1275 915 1296.5 c 128,-1,45
 850 1318 850 1318 773 1315.5 c 128,-1,46
 696 1313 696 1313 610 1277.5 c 128,-1,47
 524 1242 524 1242 448 1130.5 c 128,-1,48
 372 1019 372 1019 353.5 917 c 128,-1,49
 335 815 335 815 344.5 716 c 128,-1,50
 354 617 354 617 370.5 533 c 128,-1,51
 387 449 387 449 434.5 371 c 128,-1,52
 482 293 482 293 569 230 c 128,-1,53
 656 167 656 167 746.5 162 c 128,-1,54
 837 157 837 157 877 167 c 128,-1,55
 917 177 917 177 930 195 c 0,56,57
 934 202 934 202 937 213.5 c 128,-1,58
 940 225 940 225 945 353 c 1,59,-1
 985 417 l 1,60,-1
 974 485 l 1,61,-1
 986 509 l 1,62,-1
 952 526 l 1,63,-1
 946 541 l 1,64,65
 935 626 935 626 923 642 c 0,66,67
 918 649 918 649 900 657 c 1,68,69
 767 683 767 683 767 694 c 2,70,-1
 767 737 l 1,71,72
 774 754 774 754 792 754 c 1,73,-1
 941 745 l 1,74,0
 1063 725 1063 725 1202 751 c 1,1,-1
EndSplineSet
Validated: 33
EndChar

StartChar: H
Encoding: 72 72 43
Width: 1566
Flags: W
LayerCount: 2
Fore
SplineSet
1063 817 m 1,0,1
 1063 1051 1063 1051 1061.5 1132 c 128,-1,2
 1060 1213 1060 1213 1048.5 1249.5 c 128,-1,3
 1037 1286 1037 1286 1014 1293.5 c 128,-1,4
 991 1301 991 1301 951 1301 c 0,5,6
 920 1301 920 1301 914.5 1304.5 c 128,-1,7
 909 1308 909 1308 907 1317 c 1,8,9
 907 1328 907 1328 907 1349 c 0,10,11
 907 1369 907 1369 909 1373 c 0,12,13
 912 1384 912 1384 916 1386.5 c 128,-1,14
 920 1389 920 1389 941 1389 c 2,15,-1
 1185 1384 l 1,16,17
 1253 1384 1253 1384 1318 1385 c 128,-1,18
 1383 1386 1383 1386 1439 1389 c 1,19,-1
 1458 1389 l 2,20,21
 1482 1389 1482 1389 1482 1362 c 2,22,-1
 1482 1351 l 1,23,-1
 1482 1332 l 2,24,25
 1482 1315 1482 1315 1476 1309.5 c 128,-1,26
 1470 1304 1470 1304 1446 1301 c 0,27,28
 1386 1292 1386 1292 1361.5 1271.5 c 128,-1,29
 1337 1251 1337 1251 1329 1200 c 1,30,31
 1294 1133 1294 1133 1306.5 1127 c 128,-1,32
 1319 1121 1319 1121 1316.5 1072.5 c 128,-1,33
 1314 1024 1314 1024 1289 950 c 1,34,35
 1303 919 1303 919 1277 884 c 1,36,37
 1309 837 1309 837 1320 776 c 1,38,39
 1314 534 1314 534 1315 476.5 c 128,-1,40
 1316 419 1316 419 1317.5 373 c 128,-1,41
 1319 327 1319 327 1321 286 c 1,42,43
 1322 242 1322 242 1328.5 214 c 128,-1,44
 1335 186 1335 186 1348.5 170 c 128,-1,45
 1362 154 1362 154 1385.5 148 c 128,-1,46
 1409 142 1409 142 1446 142 c 0,47,48
 1480 142 1480 142 1485.5 138 c 128,-1,49
 1491 134 1491 134 1491 106 c 0,50,51
 1491 73 1491 73 1488.5 67 c 128,-1,52
 1486 61 1486 61 1474 61 c 2,53,-1
 1452 61 l 2,54,55
 1435 61 1435 61 1346.5 70.5 c 128,-1,56
 1258 80 1258 80 978 63 c 1,57,-1
 922 61 l 1,58,-1
 912 61 l 2,59,60
 894 61 894 61 891 67 c 128,-1,61
 888 73 888 73 888 109 c 0,62,63
 888 132 888 132 894.5 137 c 128,-1,64
 901 142 901 142 941 147 c 0,65,66
 973 152 973 152 995 163 c 128,-1,67
 1017 174 1017 174 1029 194.5 c 128,-1,68
 1041 215 1041 215 1048.5 249.5 c 128,-1,69
 1056 284 1056 284 1072 285 c 1,70,71
 1058 361 1058 361 1068.5 387 c 128,-1,72
 1079 413 1079 413 1065 457 c 1,73,74
 1105 472 1105 472 1098.5 491.5 c 128,-1,75
 1092 511 1092 511 1061 534 c 1,76,-1
 1061 680 l 1,77,-1
 509 638 l 1,78,79
 513 329 513 329 516.5 272 c 128,-1,80
 520 215 520 215 533 186.5 c 128,-1,81
 546 158 546 158 570 151 c 128,-1,82
 594 144 594 144 638 142 c 1,83,84
 671 142 671 142 677.5 138 c 128,-1,85
 684 134 684 134 684 106 c 0,86,87
 684 75 684 75 681 68 c 128,-1,88
 678 61 678 61 664 61 c 2,89,-1
 467 66 l 1,90,-1
 457 75 l 1,91,-1
 414 81 l 1,92,-1
 391 79 l 1,93,-1
 380 87 l 1,94,-1
 362 75 l 1,95,-1
 358 64 l 1,96,-1
 325 64 l 1,97,-1
 264 70 l 1,98,99
 176 63 176 63 60 21 c 1,100,-1
 49 21 l 2,101,102
 32 21 32 21 28.5 27.5 c 128,-1,103
 25 34 25 34 25 66 c 0,104,105
 25 79 25 79 57 98.5 c 128,-1,106
 89 118 89 118 103 122.5 c 128,-1,107
 117 127 117 127 134 130 c 1,108,109
 186 150 186 150 211 181 c 128,-1,110
 236 212 236 212 245 273 c 1,111,112
 249 315 249 315 252.5 492 c 128,-1,113
 256 669 256 669 256 955 c 0,114,115
 256 1076 256 1076 252.5 1144.5 c 128,-1,116
 249 1213 249 1213 239 1247 c 128,-1,117
 229 1281 229 1281 206.5 1291 c 128,-1,118
 184 1301 184 1301 143 1321 c 1,119,120
 108 1324 108 1324 103 1327 c 128,-1,121
 98 1330 98 1330 98 1346 c 2,122,-1
 98 1365 l 2,123,124
 98 1393 98 1393 102.5 1400 c 128,-1,125
 107 1407 107 1407 132 1407 c 1,126,-1
 399 1384 l 1,127,128
 457 1384 457 1384 508 1385 c 128,-1,129
 559 1386 559 1386 623 1389 c 1,130,-1
 645 1389 l 2,131,132
 666 1389 666 1389 666 1362 c 2,133,-1
 666 1351 l 1,134,-1
 666 1332 l 2,135,136
 666 1313 666 1313 659 1308.5 c 128,-1,137
 652 1304 652 1304 624 1301 c 0,138,139
 538 1294 538 1294 520 1200 c 1,140,141
 460 1152 460 1152 473 1135 c 128,-1,142
 486 1118 486 1118 490.5 1072 c 128,-1,143
 495 1026 495 1026 509 986 c 1,144,145
 509 921 509 921 509 776 c 1,146,-1
 1063 817 l 1,0,1
EndSplineSet
Validated: 33
EndChar

StartChar: I
Encoding: 73 73 44
Width: 587
Flags: W
LayerCount: 2
Fore
SplineSet
37 1407 m 1,0,-1
 319 1399 l 1,1,-1
 381 1357 l 1,2,-1
 418 1386 l 1,3,-1
 550 1392 l 1,4,-1
 537 1336 l 1,5,6
 468 1320 468 1320 449 1284 c 128,-1,7
 430 1248 430 1248 418 1117 c 1,8,-1
 418 920 l 1,9,-1
 400 878 l 1,10,-1
 374 878 l 1,11,-1
 324 812 l 1,12,-1
 350 775 l 1,13,-1
 350 741 l 1,14,-1
 392 719 l 1,15,-1
 413 719 l 1,16,-1
 413 674 l 1,17,-1
 430 247 l 1,18,19
 438 153 438 153 493 117 c 1,20,-1
 562 104 l 1,21,-1
 562 45 l 1,22,23
 313 59 313 59 62 45 c 1,24,-1
 56 117 l 1,25,26
 118 125 118 125 137.5 150.5 c 128,-1,27
 157 176 157 176 163 263 c 1,28,-1
 157 1181 l 1,29,30
 131 1260 131 1260 112.5 1290 c 128,-1,31
 94 1320 94 1320 25 1320 c 1,32,-1
 37 1407 l 1,0,-1
EndSplineSet
Validated: 33
EndChar

StartChar: J
Encoding: 74 74 45
Width: 869
Flags: W
LayerCount: 2
Fore
SplineSet
470 1023 m 1,0,-1
 452 1051 l 1,1,-1
 450 1162 l 2,2,3
 449 1234 449 1234 446.5 1254.5 c 128,-1,4
 444 1275 444 1275 440 1284 c 1,5,6
 432 1310 432 1310 407 1318 c 128,-1,7
 382 1326 382 1326 321 1330 c 1,8,9
 298 1330 298 1330 291 1330.5 c 128,-1,10
 284 1331 284 1331 280 1334 c 0,11,12
 277 1336 277 1336 277 1343 c 2,13,-1
 277 1371 l 2,14,15
 277 1392 277 1392 281.5 1396.5 c 128,-1,16
 286 1401 286 1401 310 1401 c 2,17,-1
 375 1400 l 1,18,-1
 393 1369 l 1,19,-1
 425 1396 l 1,20,-1
 571 1397 l 1,21,22
 641 1377 641 1377 702 1383 c 128,-1,23
 763 1389 763 1389 795 1391 c 1,24,-1
 825 1391 l 2,25,26
 844 1391 844 1391 844 1367 c 2,27,-1
 844 1335 l 2,28,29
 844 1320 844 1320 838 1315.5 c 128,-1,30
 832 1311 832 1311 807 1308 c 0,31,32
 758 1303 758 1303 734.5 1282.5 c 128,-1,33
 711 1262 711 1262 703 1217 c 1,34,35
 699 1177 699 1177 697.5 1106 c 128,-1,36
 696 1035 696 1035 696 890 c 2,37,-1
 696 818 l 1,38,-1
 677 822 l 1,39,-1
 679 793 l 1,40,-1
 667 780 l 1,41,-1
 653 754 l 1,42,-1
 649 704 l 1,43,-1
 663 721 l 1,44,-1
 682 725 l 1,45,-1
 698 709 l 1,46,-1
 694 568 l 1,47,-1
 692 523 l 2,48,49
 691 480 691 480 681 456 c 1,50,-1
 662 433 l 1,51,-1
 681 394 l 1,52,53
 677 365 677 365 668 325.5 c 128,-1,54
 659 286 659 286 639 249 c 0,55,56
 608 193 608 193 570.5 139 c 128,-1,57
 533 85 533 85 484.5 40 c 128,-1,58
 436 -5 436 -5 379.5 -27 c 128,-1,59
 323 -49 323 -49 283 -54 c 2,60,-1
 242 -60 l 1,61,-1
 200 -57 l 2,62,63
 158 -55 158 -55 112 -29 c 1,64,65
 66 -47 66 -47 45 -18 c 0,66,67
 25 10 25 10 37 48 c 0,68,69
 50 86 50 86 84 79 c 0,70,71
 118 71 118 71 176 57 c 0,72,73
 233 43 233 43 284 43 c 1,74,-1
 318 86 l 1,75,-1
 360 107 l 2,76,77
 402 128 402 128 426 282 c 256,78,79
 450 436 450 436 444 521 c 1,80,-1
 460 666 l 1,81,-1
 452 856 l 1,82,-1
 470 1023 l 1,0,-1
EndSplineSet
Validated: 33
EndChar

StartChar: K
Encoding: 75 75 46
Width: 1389
Flags: W
LayerCount: 2
Fore
SplineSet
442 644 m 1,0,1
 442 572 442 572 439 461 c 1,2,3
 442 409 442 409 403 324 c 1,4,5
 444 268 444 268 448 235.5 c 128,-1,6
 452 203 452 203 462.5 185.5 c 128,-1,7
 473 168 473 168 494.5 161 c 128,-1,8
 516 154 516 154 549 152 c 0,9,10
 583 150 583 150 589 145.5 c 128,-1,11
 595 141 595 141 595 114 c 0,12,13
 595 85 595 85 592 78 c 128,-1,14
 589 71 589 71 576 71 c 0,15,16
 373 77 373 77 60 -6 c 1,17,-1
 49 -6 l 2,18,19
 33 -6 33 -6 29 -0.5 c 128,-1,20
 25 5 25 5 25 39 c 0,21,22
 25 61 25 61 29 66 c 128,-1,23
 33 71 33 71 47 75 c 1,24,25
 83 79 83 79 106.5 89.5 c 128,-1,26
 130 100 130 100 153 160.5 c 128,-1,27
 176 221 176 221 181 254.5 c 128,-1,28
 186 288 186 288 186 341 c 2,29,-1
 186 387 l 1,30,-1
 186 413 l 1,31,-1
 193 552 l 1,32,-1
 205 581 l 1,33,-1
 186 614 l 1,34,-1
 188 904 l 1,35,-1
 203 923 l 1,36,-1
 217 946 l 1,37,-1
 231 950 l 1,38,-1
 228 985 l 1,39,-1
 208 1004 l 1,40,-1
 190 1008 l 1,41,-1
 190 1108 l 1,42,43
 185 1224 185 1224 174 1254 c 128,-1,44
 163 1284 163 1284 142.5 1294.5 c 128,-1,45
 122 1305 122 1305 86 1309 c 1,46,47
 55 1316 55 1316 54 1318 c 0,48,49
 50 1322 50 1322 50 1357 c 0,50,51
 50 1382 50 1382 55.5 1388.5 c 128,-1,52
 61 1395 61 1395 84 1395 c 2,53,-1
 110 1395 l 1,54,55
 126 1392 126 1392 183 1392 c 256,56,57
 240 1392 240 1392 341 1375 c 1,58,59
 377 1360 377 1360 409 1345 c 1,60,61
 436 1349 436 1349 424 1378 c 1,62,63
 468 1375 468 1375 492 1383.5 c 128,-1,64
 516 1392 516 1392 547 1395 c 1,65,-1
 569 1395 l 2,66,67
 591 1395 591 1395 591 1367 c 0,68,69
 591 1326 591 1326 585.5 1317.5 c 128,-1,70
 580 1309 580 1309 549 1305 c 1,71,72
 497 1301 497 1301 476.5 1280 c 128,-1,73
 456 1259 456 1259 451 1207 c 1,74,75
 445 1170 445 1170 442.5 1067.5 c 128,-1,76
 440 965 440 965 440 833 c 1,77,78
 466 774 466 774 518.5 804.5 c 128,-1,79
 571 835 571 835 595 861 c 0,80,81
 629 896 629 896 666.5 936.5 c 128,-1,82
 704 977 704 977 775 1044 c 1,83,-1
 828 1065 l 1,84,-1
 814 1102 l 1,85,86
 861 1158 861 1158 877 1183 c 128,-1,87
 893 1208 893 1208 893 1229 c 0,88,89
 893 1266 893 1266 864 1264 c 1,90,91
 838 1264 838 1264 832 1271.5 c 128,-1,92
 826 1279 826 1279 826 1303 c 0,93,94
 826 1335 826 1335 830.5 1343.5 c 128,-1,95
 835 1352 835 1352 849 1352 c 2,96,-1
 858 1352 l 1,97,98
 908 1347 908 1347 929.5 1346 c 128,-1,99
 951 1345 951 1345 992 1323 c 1,100,101
 1180 1334 1180 1334 1226 1352 c 1,102,-1
 1245 1352 l 2,103,104
 1260 1352 1260 1352 1264.5 1343.5 c 128,-1,105
 1269 1335 1269 1335 1269 1310 c 0,106,107
 1269 1280 1269 1280 1263.5 1275.5 c 128,-1,108
 1258 1271 1258 1271 1224 1260 c 0,109,110
 1198 1252 1198 1252 1180 1245 c 128,-1,111
 1162 1238 1162 1238 1140 1223 c 128,-1,112
 1118 1208 1118 1208 1088 1183 c 128,-1,113
 1058 1158 1058 1158 1010.5 1114.5 c 128,-1,114
 963 1071 963 1071 913.5 1027 c 128,-1,115
 864 983 864 983 783 858 c 1,116,117
 905 634 905 634 1019 428 c 2,118,-1
 1076 325 l 1,119,-1
 1105 274 l 1,120,-1
 1093 237 l 1,121,-1
 1118 200 l 1,122,-1
 1135 165 l 1,123,-1
 1203 146 l 1,124,-1
 1273 71 l 1,125,126
 1412 -80 1412 -80 1499 -102.5 c 128,-1,127
 1586 -125 1586 -125 1666.5 -110.5 c 128,-1,128
 1747 -96 1747 -96 1857 -46 c 1,129,130
 1907 -59 1907 -59 1867 -176 c 1,131,132
 1785 -199 1785 -199 1743.5 -210.5 c 128,-1,133
 1702 -222 1702 -222 1571 -224 c 128,-1,134
 1440 -226 1440 -226 1376 -195.5 c 128,-1,135
 1312 -165 1312 -165 1220.5 -101 c 128,-1,136
 1129 -37 1129 -37 1005.5 104 c 128,-1,137
 882 245 882 245 836 314 c 128,-1,138
 790 383 790 383 747 449 c 128,-1,139
 704 515 704 515 676 556.5 c 128,-1,140
 648 598 648 598 631 653 c 1,141,142
 582 704 582 704 577 713 c 1,143,-1
 442 644 l 1,0,1
EndSplineSet
Validated: 33
EndChar

StartChar: L
Encoding: 76 76 47
Width: 1156
Flags: W
LayerCount: 2
Fore
SplineSet
71 1357 m 2,0,1
 71 1386 71 1386 76 1393 c 128,-1,2
 81 1400 81 1400 105 1400 c 0,3,4
 111 1400 111 1400 124 1400 c 2,5,-1
 140 1400 l 1,6,-1
 159 1397 l 1,7,-1
 199 1395 l 1,8,-1
 244 1395 l 1,9,-1
 289 1395 l 1,10,-1
 342 1386 l 1,11,-1
 423 1384 l 1,12,-1
 436 1375 l 1,13,-1
 455 1373 l 1,14,-1
 484 1376 l 1,15,-1
 494 1373 l 1,16,-1
 502 1385 l 1,17,-1
 571 1400 l 1,18,-1
 592 1400 l 2,19,20
 613 1400 613 1400 613 1373 c 0,21,22
 613 1330 613 1330 606.5 1322 c 128,-1,23
 600 1314 600 1314 572 1312 c 1,24,25
 521 1305 521 1305 496 1287 c 128,-1,26
 471 1269 471 1269 462 1219 c 0,27,28
 458 1194 458 1194 453 1000 c 1,29,-1
 453 816 l 2,30,31
 453 598 453 598 454 469.5 c 128,-1,32
 455 341 455 341 457 294 c 0,33,34
 458 252 458 252 461.5 228.5 c 128,-1,35
 465 205 465 205 477 191.5 c 128,-1,36
 489 178 489 178 511 175 c 128,-1,37
 533 172 533 172 569 172 c 0,38,39
 664 172 664 172 796 181.5 c 128,-1,40
 928 191 928 191 956 209 c 1,41,42
 986 226 986 226 1011.5 372.5 c 128,-1,43
 1037 519 1037 519 1052 603 c 1,44,45
 1060 640 1060 640 1075 640 c 1,46,47
 1131 609 1131 609 1131 570 c 0,48,49
 1131 553 1131 553 1127 516 c 128,-1,50
 1123 479 1123 479 1117.5 360 c 128,-1,51
 1112 241 1112 241 1104 196 c 128,-1,52
 1096 151 1096 151 1089 112 c 0,53,54
 1084 87 1084 87 1080.5 72 c 128,-1,55
 1077 57 1077 57 1073.5 50.5 c 128,-1,56
 1070 44 1070 44 1064 43 c 128,-1,57
 1058 42 1058 42 1047 42 c 0,58,59
 1042 42 1042 42 1037 42 c 256,60,61
 1032 42 1032 42 1016 68 c 1,62,-1
 979 57 l 1,63,-1
 941 74 l 1,64,-1
 925 46 l 1,65,-1
 595 48 l 2,66,67
 519 48 519 48 443 48 c 1,68,69
 356 57 356 57 284 45 c 128,-1,70
 212 33 212 33 170 13.5 c 128,-1,71
 128 -6 128 -6 69 -20 c 1,72,-1
 48 -22 l 1,73,74
 32 -22 32 -22 28.5 -15 c 128,-1,75
 25 -8 25 -8 25 67 c 0,76,77
 25 87 25 87 35.5 97 c 128,-1,78
 46 107 46 107 79 109.5 c 128,-1,79
 112 112 112 112 135 121 c 128,-1,80
 158 130 158 130 179 154 c 128,-1,81
 200 178 200 178 206 220 c 1,82,83
 205 334 205 334 207 503 c 1,84,-1
 216 716 l 1,85,-1
 227 795 l 1,86,-1
 253 809 l 1,87,-1
 241 837 l 1,88,-1
 243 861 l 1,89,-1
 221 885 l 1,90,-1
 211 1034 l 1,91,92
 207 1210 207 1210 198.5 1251.5 c 128,-1,93
 190 1293 190 1293 171 1300 c 128,-1,94
 152 1307 152 1307 116 1312 c 1,95,96
 85 1314 85 1314 78 1317 c 128,-1,97
 71 1320 71 1320 71 1334 c 2,98,-1
 71 1357 l 2,0,1
EndSplineSet
Validated: 33
EndChar

StartChar: M
Encoding: 77 77 48
Width: 1836
Flags: W
LayerCount: 2
Fore
SplineSet
25 1455 m 1,1,2
 90 1586 90 1586 155.5 1605 c 128,-1,3
 221 1624 221 1624 328 1585 c 0,4,5
 435 1545 435 1545 538 1413 c 256,6,7
 641 1281 641 1281 727 1071 c 1,8,-1
 748 995 l 1,9,-1
 700 954 l 1,10,-1
 756 897 l 1,11,-1
 813 862 l 1,12,-1
 811 809 l 1,13,-1
 855 757 l 1,14,-1
 854 704 l 1,15,-1
 898 652 l 1,16,17
 984 442 984 442 1000 405 c 1,18,19
 1069 558 1069 558 1202 858 c 1,20,-1
 1270 1009 l 2,21,22
 1324 1131 1324 1131 1354 1212 c 0,23,24
 1384 1292 1384 1292 1402 1365 c 1,25,26
 1407 1381 1407 1381 1410.5 1386 c 128,-1,27
 1414 1391 1414 1391 1426 1391 c 2,28,-1
 1438 1391 l 1,29,-1
 1521 1390 l 1,30,-1
 1524 1375 l 1,31,-1
 1514 1370 l 1,32,-1
 1539 1365 l 1,33,-1
 1559 1370 l 1,34,-1
 1562 1383 l 1,35,-1
 1591 1389 l 1,36,-1
 1638 1389 l 1,37,38
 1733 1391 1733 1391 1761 1394 c 1,39,-1
 1782 1394 l 2,40,41
 1794 1394 1794 1394 1797.5 1387.5 c 128,-1,42
 1801 1381 1801 1381 1801 1361 c 0,43,44
 1801 1336 1801 1336 1800 1325.5 c 128,-1,45
 1799 1315 1799 1315 1797 1312 c 0,46,47
 1794 1308 1794 1308 1784 1305 c 128,-1,48
 1774 1302 1774 1302 1744 1298 c 0,49,50
 1707 1292 1707 1292 1687 1283.5 c 128,-1,51
 1667 1275 1667 1275 1657.5 1249.5 c 128,-1,52
 1648 1224 1648 1224 1645 1176.5 c 128,-1,53
 1642 1129 1642 1129 1619 1080 c 1,54,55
 1642 1024 1642 1024 1619 971 c 1,56,-1
 1642 908 l 1,57,-1
 1644 754 l 1,58,-1
 1637 479 l 1,59,-1
 1630 416 l 1,60,-1
 1638 377 l 1,61,-1
 1617 305 l 1,62,63
 1650 248 1650 248 1655 212.5 c 128,-1,64
 1660 177 1660 177 1674 158 c 128,-1,65
 1688 139 1688 139 1711.5 131.5 c 128,-1,66
 1735 124 1735 124 1774 122 c 1,67,68
 1802 122 1802 122 1806.5 118.5 c 128,-1,69
 1811 115 1811 115 1811 84 c 0,70,71
 1811 54 1811 54 1808 47 c 128,-1,72
 1805 40 1805 40 1795 40 c 2,73,-1
 1761 40 l 2,74,75
 1740 40 1740 40 1710.5 41 c 128,-1,76
 1681 42 1681 42 1642 52 c 128,-1,77
 1603 62 1603 62 1566 62 c 1,78,79
 1535 44 1535 44 1502 67 c 1,80,81
 1484 44 1484 44 1451 67 c 1,82,83
 1388 73 1388 73 1365.5 57.5 c 128,-1,84
 1343 42 1343 42 1308 41 c 128,-1,85
 1273 40 1273 40 1253 40 c 2,86,-1
 1240 40 l 2,87,88
 1224 40 1224 40 1221 45 c 128,-1,89
 1218 50 1218 50 1218 86 c 0,90,91
 1218 110 1218 110 1222.5 116 c 128,-1,92
 1227 122 1227 122 1240 124 c 1,93,94
 1297 128 1297 128 1329 136.5 c 128,-1,95
 1361 145 1361 145 1375 175.5 c 128,-1,96
 1389 206 1389 206 1397 326 c 1,97,-1
 1397 433 l 1,98,-1
 1397 507 l 1,99,-1
 1397 712 l 1,100,-1
 1405 746 l 1,101,-1
 1429 763 l 1,102,-1
 1414 804 l 1,103,-1
 1396 822 l 1,104,-1
 1396 861 l 1,105,-1
 1399 1024 l 1,106,-1
 1402 1077 l 1,107,-1
 1387 1028 l 1,108,-1
 1363 947 l 1,109,-1
 1313 828 l 1,110,-1
 1229 639 l 1,111,-1
 1155 480 l 2,112,113
 1096 352 1096 352 1055 254.5 c 128,-1,114
 1014 157 1014 157 1001 136.5 c 128,-1,115
 988 116 988 116 915.5 129.5 c 128,-1,116
 843 143 843 143 831 167.5 c 128,-1,117
 819 192 819 192 787 273 c 128,-1,118
 755 354 755 354 704 481.5 c 128,-1,119
 653 609 653 609 570 809 c 1,120,-1
 548 912 l 1,121,-1
 516 945 l 1,122,-1
 510 1016 l 1,123,-1
 485 1064 l 1,124,-1
 469 1109 l 1,125,-1
 472 1062 l 1,126,-1
 463 1030 l 1,127,-1
 472 1003 l 1,128,-1
 463 953 l 1,129,-1
 462 932 l 1,130,-1
 463 914 l 1,131,-1
 472 902 l 1,132,-1
 454 866 l 1,133,-1
 470 840 l 1,134,-1
 471 762 l 1,135,-1
 464 673 l 1,136,-1
 451 548 l 1,137,138
 469 398 469 398 472 314 c 128,-1,139
 475 230 475 230 492 188.5 c 128,-1,140
 509 147 509 147 542 136.5 c 128,-1,141
 575 126 575 126 632 126 c 1,142,143
 663 124 663 124 663 97 c 0,144,145
 663 59 663 59 659 49.5 c 128,-1,146
 655 40 655 40 641 40 c 2,147,-1
 618 40 l 2,148,149
 599 40 599 40 572.5 41 c 128,-1,150
 546 42 546 42 517.5 43 c 128,-1,151
 489 44 489 44 481 85 c 1,152,153
 406 74 406 74 405 61 c 1,154,155
 395 44 395 44 360 86 c 1,156,157
 325 44 325 44 291 43 c 128,-1,158
 257 42 257 42 227.5 41 c 128,-1,159
 198 40 198 40 183 40 c 1,160,161
 175 37 175 37 166 37 c 0,162,163
 158 37 158 37 154 37 c 0,164,165
 143 37 143 37 140.5 44.5 c 128,-1,166
 138 52 138 52 138 86 c 0,167,168
 138 110 138 110 142 115 c 128,-1,169
 146 120 146 120 161 122 c 0,170,171
 233 131 233 131 261.5 149.5 c 128,-1,172
 290 168 290 168 303 212 c 1,173,174
 312 236 312 236 318.5 269.5 c 128,-1,175
 325 303 325 303 352 433 c 1,176,-1
 344 655 l 1,177,-1
 349 839 l 1,178,-1
 354 1007 l 1,179,-1
 356 1045 l 1,180,181
 358 1113 358 1113 358 1137 c 0,182,183
 358 1186 358 1186 359.5 1220.5 c 128,-1,184
 361 1255 361 1255 336.5 1312.5 c 128,-1,185
 312 1370 312 1370 213.5 1429.5 c 128,-1,0
 115 1489 115 1489 25 1455 c 1,1,2
EndSplineSet
Validated: 33
EndChar

StartChar: N
Encoding: 78 78 49
Width: 1633
Flags: W
LayerCount: 2
Fore
SplineSet
25 1481 m 1,0,1
 94 1588 94 1588 168 1609.5 c 128,-1,2
 242 1631 242 1631 363 1592 c 128,-1,3
 484 1553 484 1553 612 1429 c 128,-1,4
 740 1305 740 1305 861.5 1097 c 128,-1,5
 983 889 983 889 1205 472 c 1,6,-1
 1219 1121 l 1,7,8
 1205 1248 1205 1248 1178 1270 c 128,-1,9
 1151 1292 1151 1292 1063 1320 c 1,10,-1
 1063 1391 l 1,11,-1
 1135 1381 l 1,12,-1
 1227 1365 l 1,13,14
 1313 1391 1313 1391 1562 1391 c 1,15,-1
 1554 1341 l 1,16,17
 1481 1327 1481 1327 1447.5 1302 c 128,-1,18
 1414 1277 1414 1277 1387 1158 c 1,19,-1
 1381 106 l 1,20,21
 1449 -55 1449 -55 1499 -122.5 c 128,-1,22
 1549 -190 1549 -190 1596 -196.5 c 128,-1,23
 1643 -203 1643 -203 1676.5 -171.5 c 128,-1,24
 1710 -140 1710 -140 1734 -151 c 128,-1,25
 1758 -162 1758 -162 1747.5 -200.5 c 128,-1,26
 1737 -239 1737 -239 1700 -267.5 c 128,-1,27
 1663 -296 1663 -296 1572 -288 c 128,-1,28
 1481 -280 1481 -280 1404 -235 c 128,-1,29
 1327 -190 1327 -190 1206 -60 c 128,-1,30
 1085 70 1085 70 1104 133 c 1,31,-1
 1144 169 l 1,32,-1
 1132 219 l 1,33,-1
 1090 211 l 1,34,-1
 1078 190 l 1,35,-1
 1063 176 l 1,36,-1
 1030 176 l 1,37,-1
 1030 197 l 1,38,39
 834 557 834 557 559 1051 c 1,40,-1
 577 275 l 1,41,42
 591 156 591 156 608 141.5 c 128,-1,43
 625 127 625 127 719 120 c 1,44,-1
 714 50 l 1,45,-1
 268 50 l 1,46,-1
 274 99 l 1,47,48
 336 127 336 127 359.5 141.5 c 128,-1,49
 383 156 383 156 396 283 c 1,50,-1
 411 765 l 1,51,-1
 392 1024 l 1,52,-1
 391 1271 l 1,53,54
 349 1369 349 1369 288 1404 c 128,-1,55
 227 1439 227 1439 176.5 1464 c 128,-1,56
 126 1489 126 1489 25 1481 c 1,0,1
EndSplineSet
Validated: 33
EndChar

StartChar: O
Encoding: 79 79 50
Width: 1334
Flags: W
LayerCount: 2
Fore
SplineSet
613 1449 m 0,0,1
 720 1449 720 1449 918 1428 c 1,2,-1
 918 1421 l 1,3,4
 791 1341 791 1341 648 1341 c 1,5,6
 480 1312 480 1312 480 1293 c 1,7,8
 424 1270 424 1270 378 1168 c 1,9,10
 289 1019 289 1019 289 764 c 2,11,-1
 289 746 l 2,12,13
 289 482 289 482 387 359 c 1,14,15
 490 190 490 190 597 162 c 1,16,17
 630 147 630 147 666 141 c 128,-1,18
 702 135 702 135 757.5 154.5 c 128,-1,19
 813 174 813 174 899 232 c 1,20,21
 911 266 911 266 944 266 c 2,22,-1
 950 266 l 1,23,-1
 950 304 l 1,24,-1
 947 319 l 1,25,26
 1042 452 1042 452 1042 657 c 1,27,-1
 1045 709 l 1,28,29
 1045 939 1045 939 953 1065 c 1,30,31
 855 1215 855 1215 734 1237 c 1,32,-1
 562 1275 l 1,33,34
 521 1269 521 1269 521 1293 c 0,35,36
 521 1318 521 1318 686 1318 c 0,37,38
 878 1318 878 1318 1004 1224 c 1,39,-1
 1007 1207 l 1,40,-1
 1007 1201 l 1,41,-1
 1001 1190 l 1,42,43
 1093 1172 1093 1172 1093 1146 c 1,44,45
 1187 1030 1187 1030 1211 955 c 1,46,47
 1233 878 1233 878 1255 758 c 1,48,-1
 1309 648 l 1,49,50
 1245 567 1245 567 1239 519 c 1,51,52
 1207 397 1207 397 1084 239 c 1,53,54
 942 66 942 66 699 48 c 1,55,56
 584 48 584 48 435 103 c 1,57,58
 327 162 327 162 327 197 c 2,59,-1
 327 200 l 1,60,-1
 333 221 l 1,61,62
 245 237 245 237 245 263 c 1,63,64
 112 438 112 438 101 573 c 1,65,-1
 82 715 l 1,66,-1
 25 812 l 1,67,68
 86 925 86 925 117 1031 c 1,69,70
 190 1201 190 1201 289 1307 c 1,71,72
 416 1449 416 1449 613 1449 c 0,0,1
EndSplineSet
Validated: 33
EndChar

StartChar: P
Encoding: 80 80 51
Width: 1270
Flags: W
LayerCount: 2
Fore
SplineSet
-298 1437 m 1,0,-1
 -292 1437 l 1,1,2
 -242 1393 -242 1393 39 1369 c 1,3,-1
 512 1422 l 1,4,-1
 676 1422 l 2,5,6
 921 1422 921 1422 1094 1255 c 1,7,8
 1167 1164 1167 1164 1197 1093 c 1,9,10
 1252 1068 1252 1068 1252 1057 c 1,11,-1
 1197 963 l 1,12,13
 1197 784 1197 784 1007 641 c 1,14,15
 823 552 823 552 708 552 c 2,16,-1
 669 552 l 1,17,-1
 495 563 l 1,18,-1
 490 396 l 1,19,-1
 490 390 l 1,20,-1
 474 370 l 1,21,-1
 485 333 l 1,22,23
 452 327 452 327 452 317 c 1,24,-1
 458 292 l 1,25,-1
 463 292 l 1,26,-1
 485 307 l 1,27,-1
 495 307 l 1,28,29
 512 109 512 109 599 109 c 1,30,-1
 626 114 l 1,31,-1
 659 114 l 1,32,-1
 669 58 l 1,33,-1
 616 53 l 1,34,-1
 420 53 l 2,35,36
 320 53 320 53 120 0 c 1,37,38
 88 44 88 44 88 58 c 1,39,-1
 94 58 l 1,40,41
 251 112 251 112 251 188 c 1,42,-1
 256 256 l 1,43,-1
 256 1057 l 1,44,45
 187 1122 187 1122 137 1135 c 1,46,-1
 137 1161 l 1,47,48
 148 1182 148 1182 170 1182 c 1,49,-1
 306 1171 l 1,50,-1
 338 1171 l 1,51,-1
 631 1182 l 1,52,-1
 638 1146 l 1,53,54
 546 1146 546 1146 502 1021 c 1,55,56
 485 987 485 987 485 948 c 2,57,-1
 485 823 l 1,58,59
 469 804 469 804 469 786 c 1,60,61
 490 779 490 779 490 750 c 2,62,-1
 490 745 l 1,63,64
 469 722 469 722 469 703 c 1,65,66
 490 703 490 703 490 656 c 1,67,-1
 495 651 l 1,68,-1
 502 651 l 1,69,-1
 669 646 l 1,70,71
 821 646 821 646 915 818 c 1,72,73
 936 923 936 923 936 989 c 1,74,75
 910 1145 910 1145 860 1168 c 1,76,-1
 854 1178 l 1,77,-1
 893 1180 l 1,78,-1
 917 1199 l 1,79,-1
 911 1195 l 1,80,-1
 897 1229 l 1,81,-1
 866 1243 l 1,82,-1
 856 1220 l 1,83,-1
 828 1222 l 1,84,-1
 822 1209 l 1,85,-1
 817 1209 l 1,86,87
 702 1318 702 1318 550 1318 c 1,88,89
 550 1325 550 1325 469 1328 c 1,90,91
 294 1328 294 1328 -64 1229 c 1,92,-1
 -97 1229 l 1,93,94
 -226 1244 -226 1244 -226 1276 c 1,95,-1
 -298 1437 l 1,0,-1
EndSplineSet
Validated: 1
EndChar

StartChar: Q
Encoding: 81 81 52
Width: 1334
Flags: W
LayerCount: 2
Fore
SplineSet
629 1439 m 1,0,1
 730 1449 730 1449 940 1430 c 1,2,-1
 940 1426 l 1,3,4
 921 1397 921 1397 800 1353 c 1,5,6
 513 1321 513 1321 513 1291 c 1,7,8
 473 1278 473 1278 367 1098 c 1,9,10
 313 953 313 953 313 747 c 0,11,12
 313 477 313 477 418 337 c 1,13,14
 500 187 500 187 651 137 c 1,15,-1
 703 125 l 1,16,17
 779 125 779 125 920 210 c 1,18,19
 935 241 935 241 959 241 c 2,20,-1
 971 241 l 1,21,-1
 971 299 l 1,22,23
 1068 436 1068 436 1068 739 c 0,24,25
 1068 947 1068 947 943 1106 c 1,26,27
 885 1201 885 1201 742 1241 c 1,28,29
 560 1274 560 1274 560 1283 c 2,30,-1
 560 1295 l 2,31,32
 560 1318 560 1318 687 1318 c 2,33,-1
 699 1318 l 2,34,35
 913 1318 913 1318 1029 1218 c 1,36,-1
 1029 1206 l 1,37,-1
 1025 1191 l 1,38,39
 1118 1169 1118 1169 1118 1140 c 1,40,41
 1231 1006 1231 1006 1246 917 c 0,42,43
 1278 732 1278 732 1312 693 c 1,44,-1
 1335 643 l 1,45,46
 1276 584 1276 584 1250 473 c 1,47,48
 1204 347 1204 347 1068 191 c 1,49,-1
 1052 176 l 1,50,-1
 1052 172 l 1,51,52
 1059 172 1059 172 1110 91 c 1,53,54
 1223 -61 1223 -61 1297 -90 c 1,55,-1
 1359 -109 l 1,56,-1
 1553 -70 l 1,57,58
 1580 -76 1580 -76 1580 -82 c 2,59,-1
 1580 -97 l 1,60,61
 1502 -206 1502 -206 1332 -206 c 0,62,63
 1105 -206 1105 -206 905 41 c 1,64,-1
 870 76 l 1,65,-1
 866 76 l 1,66,67
 805 45 805 45 718 45 c 2,68,-1
 703 45 l 2,69,70
 575 45 575 45 427 110 c 1,71,72
 342 162 342 162 342 191 c 1,73,-1
 350 218 l 1,74,75
 271 218 271 218 245 280 c 1,76,77
 113 455 113 455 113 593 c 1,78,79
 93 739 93 739 78 739 c 1,80,-1
 39 812 l 1,81,82
 93 913 93 913 144 1063 c 1,83,84
 320 1439 320 1439 629 1439 c 1,0,1
EndSplineSet
Validated: 33
EndChar

StartChar: R
Encoding: 82 82 53
Width: 1610
Flags: W
LayerCount: 2
Fore
SplineSet
890 1435 m 1,0,1
 1061 1410 1061 1410 1160 1337 c 1,2,3
 1202 1297 1202 1297 1202 1269 c 1,4,-1
 1236 1274 l 1,5,-1
 1458 1008 l 1,6,-1
 1458 1003 l 1,7,8
 1435 963 1435 963 1420 820 c 1,9,10
 1380 688 1380 688 1254 596 c 1,11,-1
 1240 576 l 1,12,13
 1256 576 1256 576 1311 496 c 1,14,-1
 1311 486 l 1,15,-1
 1306 450 l 1,16,-1
 1363 408 l 1,17,-1
 1377 429 l 1,18,-1
 1382 429 l 1,19,20
 1505 310 1505 310 1571 179 c 1,21,22
 1629 33 1629 33 1789 -142 c 1,23,24
 1880 -199 1880 -199 1916 -199 c 1,25,-1
 2101 -164 l 1,26,-1
 2110 -164 l 1,27,-1
 2134 -169 l 1,28,-1
 2134 -189 l 1,29,30
 2052 -299 2052 -299 1902 -299 c 1,31,32
 1710 -307 1710 -307 1557 -147 c 1,33,34
 1355 62 1355 62 1292 179 c 1,35,-1
 1080 496 l 1,36,-1
 975 491 l 1,37,-1
 857 491 l 1,38,-1
 829 496 l 1,39,-1
 815 491 l 1,40,-1
 815 299 l 2,41,42
 815 289 815 289 782 283 c 1,43,-1
 782 262 l 2,44,45
 782 247 782 247 810 247 c 1,46,47
 810 136 810 136 881 96 c 1,48,-1
 942 91 l 1,49,-1
 942 39 l 1,50,-1
 748 54 l 1,51,52
 667 54 667 54 460 -23 c 1,53,-1
 460 -17 l 1,54,-1
 451 44 l 1,55,56
 557 44 557 44 578 205 c 1,57,-1
 578 716 l 1,58,-1
 583 945 l 1,59,60
 583 1039 583 1039 493 1039 c 2,61,-1
 484 1039 l 1,62,63
 472 1055 472 1055 478 1086 c 128,-1,64
 484 1117 484 1117 498 1117 c 0,65,66
 792 1097 792 1097 919 1111 c 1,67,-1
 919 1044 l 1,68,-1
 871 1044 l 1,69,70
 805 991 805 991 805 852 c 2,71,-1
 805 789 l 1,72,-1
 801 606 l 1,73,-1
 815 601 l 1,74,75
 1087 601 1087 601 1114 682 c 1,76,77
 1193 733 1193 733 1193 898 c 0,78,79
 1193 1133 1193 1133 1065 1218 c 1,80,81
 959 1291 959 1291 794 1297 c 1,82,83
 555 1291 555 1291 238 1222 c 1,84,-1
 200 1217 l 1,85,86
 91 1236 91 1236 91 1257 c 1,87,-1
 25 1425 l 1,88,-1
 34 1425 l 1,89,90
 142 1363 142 1363 318 1363 c 0,91,92
 408 1363 408 1363 593.5 1402.5 c 128,-1,93
 779 1442 779 1442 890 1435 c 1,0,1
EndSplineSet
Validated: 33
EndChar

StartChar: S
Encoding: 83 83 54
Width: 1114
Flags: W
LayerCount: 2
Fore
SplineSet
894 1443 m 1,0,1
 911 1276 911 1276 988 1075 c 1,2,-1
 900 1070 l 1,3,4
 870 1150 870 1150 785.5 1206 c 128,-1,5
 701 1262 701 1262 620 1287 c 128,-1,6
 539 1312 539 1312 463 1296.5 c 128,-1,7
 387 1281 387 1281 348.5 1222.5 c 128,-1,8
 310 1164 310 1164 345 1108 c 128,-1,9
 380 1052 380 1052 375 1029 c 2,10,-1
 370 1005 l 1,11,-1
 384 997 l 1,12,-1
 383 985 l 1,13,-1
 392 977 l 1,14,-1
 390 967 l 1,15,-1
 405 953 l 1,16,-1
 404 959 l 1,17,-1
 409 960 l 1,18,-1
 417 963 l 1,19,-1
 422 953 l 1,20,-1
 426 959 l 1,21,-1
 435 956 l 1,22,-1
 432 962 l 1,23,-1
 438 971 l 1,24,-1
 443 971 l 1,25,-1
 449 978 l 1,26,-1
 453 980 l 1,27,-1
 459 984 l 1,28,-1
 477 993 l 1,29,-1
 525 963 l 2,30,31
 573 933 573 933 704.5 877 c 128,-1,32
 836 821 836 821 917.5 724 c 128,-1,33
 999 627 999 627 1089 451 c 1,34,-1
 1043 358 l 1,35,36
 997 246 997 246 925 172 c 128,-1,37
 853 98 853 98 742 49 c 128,-1,38
 631 0 631 0 529 -7 c 128,-1,39
 427 -14 427 -14 348 1.5 c 128,-1,40
 269 17 269 17 176 85.5 c 128,-1,41
 83 154 83 154 54 222.5 c 128,-1,42
 25 291 25 291 51 363 c 128,-1,43
 77 435 77 435 138 487.5 c 128,-1,44
 199 540 199 540 257.5 556 c 128,-1,45
 316 572 316 572 358 565 c 1,46,47
 369 479 369 479 389 405 c 1,48,49
 297 423 297 423 248 410 c 128,-1,50
 199 397 199 397 181 335 c 128,-1,51
 163 273 163 273 208 210 c 128,-1,52
 253 147 253 147 305 120 c 128,-1,53
 357 93 357 93 436 83 c 128,-1,54
 515 73 515 73 591 92 c 128,-1,55
 667 111 667 111 731 170.5 c 128,-1,56
 795 230 795 230 813 298 c 1,57,-1
 846 333 l 1,58,-1
 834 383 l 1,59,60
 819 389 819 389 804 444 c 1,61,62
 777 522 777 522 549 646 c 1,63,64
 310 746 310 746 231.5 811 c 128,-1,65
 153 876 153 876 121 944.5 c 128,-1,66
 89 1013 89 1013 64 1066 c 1,67,-1
 110 1123 l 1,68,69
 130 1175 130 1175 172 1240.5 c 128,-1,70
 214 1306 214 1306 277 1350 c 128,-1,71
 340 1394 340 1394 395.5 1406 c 128,-1,72
 451 1418 451 1418 541 1418 c 128,-1,73
 631 1418 631 1418 695 1412 c 128,-1,74
 759 1406 759 1406 827 1425 c 2,75,-1
 894 1443 l 1,0,1
EndSplineSet
Validated: 33
EndChar

StartChar: T
Encoding: 84 84 55
Width: 1107
Flags: W
LayerCount: 2
Fore
SplineSet
86 1389 m 1,0,1
 124 1413 124 1413 164 1388 c 1,2,-1
 201 1387 l 1,3,-1
 318 1385 l 1,4,5
 358 1345 358 1345 780 1395 c 1,6,-1
 894 1397 l 1,7,-1
 952 1398 l 1,8,-1
 1010 1399 l 1,9,10
 1021 1202 1021 1202 1082 993 c 1,11,-1
 1014 942 l 1,12,13
 970 1058 970 1058 909 1130 c 128,-1,14
 848 1202 848 1202 801 1223.5 c 128,-1,15
 754 1245 754 1245 686 1238 c 1,16,-1
 685 795 l 1,17,-1
 684 661 l 1,18,-1
 670 560 l 1,19,-1
 633 517 l 1,20,-1
 643 428 l 1,21,-1
 683 352 l 1,22,23
 698 201 698 201 770 137 c 1,24,-1
 838 114 l 1,25,-1
 838 42 l 1,26,27
 692 40 692 40 582 54.5 c 128,-1,28
 472 69 472 69 435.5 53 c 128,-1,29
 399 37 399 37 254 35 c 1,30,-1
 263 100 l 1,31,32
 331 137 331 137 409 201 c 1,33,-1
 404 1102 l 1,34,-1
 426 1151 l 1,35,-1
 409 1245 l 1,36,37
 258 1252 258 1252 216.5 1205.5 c 128,-1,38
 175 1159 175 1159 136 1112 c 1,39,-1
 99 1090 l 1,40,41
 97 1029 97 1029 97 964 c 1,42,-1
 25 972 l 1,43,-1
 86 1389 l 1,0,1
EndSplineSet
Validated: 33
EndChar

StartChar: U
Encoding: 85 85 56
Width: 1305
Flags: W
LayerCount: 2
Fore
SplineSet
236 1014 m 1,0,-1
 247 1092 l 1,1,-1
 182 1169 l 1,2,3
 179 1215 179 1215 175 1228 c 128,-1,4
 171 1241 171 1241 165 1254 c 0,5,6
 156 1276 156 1276 125.5 1296.5 c 128,-1,7
 95 1317 95 1317 44 1322 c 0,8,9
 31 1324 31 1324 25 1365 c 1,10,11
 25 1389 25 1389 29 1398 c 128,-1,12
 33 1407 33 1407 46 1407 c 0,13,14
 167 1401 167 1401 203 1388.5 c 128,-1,15
 239 1376 239 1376 367 1382.5 c 128,-1,16
 495 1389 495 1389 572 1404 c 1,17,18
 608 1406 608 1406 608 1372 c 0,19,20
 608 1332 608 1332 601 1326 c 128,-1,21
 594 1320 594 1320 556 1317 c 1,22,23
 472 1289 472 1289 449 1258 c 128,-1,24
 426 1227 426 1227 425 1138 c 1,25,-1
 421 1022 l 1,26,-1
 419 784 l 1,27,-1
 402 696 l 1,28,-1
 419 622 l 1,29,30
 406 517 406 517 404.5 471 c 128,-1,31
 403 425 403 425 425 397 c 128,-1,32
 447 369 447 369 460 343 c 1,33,34
 488 255 488 255 552.5 234 c 128,-1,35
 617 213 617 213 707 213 c 0,36,37
 804 213 804 213 878.5 254.5 c 128,-1,38
 953 296 953 296 982 369 c 1,39,40
 1003 416 1003 416 1010.5 475 c 128,-1,41
 1018 534 1018 534 1018 646 c 1,42,-1
 1013 1151 l 1,43,44
 1005 1215 1005 1215 982 1239 c 128,-1,45
 959 1263 959 1263 887 1311 c 1,46,47
 858 1314 858 1314 831 1322 c 1,48,49
 827 1326 827 1326 851 1396 c 1,50,-1
 864 1396 l 1,51,52
 877 1394 877 1394 992 1363 c 1,53,-1
 1068 1366 l 1,54,55
 1131 1356 1131 1356 1191 1345 c 1,56,57
 1239 1369 1239 1369 1266 1372 c 1,58,59
 1280 1372 1280 1372 1278 1330 c 128,-1,60
 1276 1288 1276 1288 1246 1283 c 0,61,62
 1155 1269 1155 1269 1151 935 c 1,63,-1
 1098 839 l 1,64,-1
 1137 772 l 1,65,-1
 1145 636 l 1,66,67
 1138 523 1138 523 1134.5 485.5 c 128,-1,68
 1131 448 1131 448 1123 411 c 1,69,70
 1089 230 1089 230 965 135 c 128,-1,71
 841 40 841 40 642 40 c 0,72,73
 477 40 477 40 376 125 c 1,74,75
 251 175 251 175 214 298 c 1,76,77
 206 321 206 321 201.5 341 c 128,-1,78
 197 361 197 361 193.5 386.5 c 128,-1,79
 190 412 190 412 188 450.5 c 128,-1,80
 186 489 186 489 185 615 c 2,81,-1
 183 802 l 1,82,-1
 189 990 l 1,83,-1
 236 1014 l 1,0,-1
EndSplineSet
Validated: 33
EndChar

StartChar: V
Encoding: 86 86 57
Width: 1607
Flags: W
LayerCount: 2
Fore
SplineSet
336.5 1576 m 128,-1,1
 440 1522 440 1522 540 1381.5 c 128,-1,2
 640 1241 640 1241 883 548 c 1,3,-1
 942 367 l 1,4,5
 951 370 951 370 1135 843 c 1,6,-1
 1188 926 l 1,7,-1
 1229 1021 l 1,8,-1
 1242 1110 l 1,9,10
 1277 1199 1277 1199 1277 1214 c 2,11,-1
 1277 1230 l 1,12,-1
 1277 1245 l 1,13,-1
 1277 1260 l 2,14,15
 1277 1323 1277 1323 1135 1323 c 2,16,-1
 1117 1323 l 1,17,18
 1106 1327 1106 1327 1106 1347 c 2,19,-1
 1106 1393 l 2,20,21
 1106 1416 1106 1416 1128 1416 c 1,22,23
 1269 1400 1269 1400 1392 1405 c 1,24,-1
 1396 1401 l 1,25,-1
 1393 1388 l 1,26,-1
 1453 1362 l 1,27,-1
 1469 1384 l 1,28,-1
 1500 1405 l 1,29,-1
 1570 1405 l 1,30,31
 1582 1401 1582 1401 1582 1382 c 2,32,-1
 1582 1358 l 2,33,34
 1582 1319 1582 1319 1544 1319 c 1,35,36
 1498 1305 1498 1305 1448 1224 c 1,37,-1
 1290 891 l 2,38,39
 1132 557 1132 557 1062 391 c 0,40,41
 992 224 992 224 1012 177 c 0,42,43
 1032 129 1032 129 1109 127 c 0,44,45
 1135 127 1135 127 1135 92 c 0,46,47
 1135 41 1135 41 1117 41 c 2,48,-1
 968 48 l 1,49,-1
 856 66 l 1,50,-1
 832 60 l 1,51,-1
 805 60 l 1,52,-1
 793 45 l 1,53,-1
 751 86 l 1,54,55
 729 78 729 78 732 51 c 1,56,-1
 663 45 l 1,57,-1
 659 41 l 1,58,-1
 655 41 l 1,59,-1
 655 45 l 1,60,-1
 651 41 l 1,61,-1
 603 41 l 2,62,63
 577 41 577 41 577 88 c 2,64,-1
 577 100 l 2,65,66
 577 127 577 127 621 127 c 0,67,68
 706 127 706 127 723 187 c 1,69,70
 723 236 723 236 595 579 c 1,71,-1
 615 647 l 1,72,-1
 584 680 l 1,73,-1
 578 737 l 1,74,-1
 540 731 l 1,75,76
 409 1079 409 1079 343 1224 c 1,77,78
 301 1352 301 1352 248 1395 c 128,-1,79
 195 1438 195 1438 155 1468 c 128,-1,80
 115 1498 115 1498 25 1507 c 1,81,82
 97 1604 97 1604 165 1617 c 128,-1,0
 233 1630 233 1630 336.5 1576 c 128,-1,1
EndSplineSet
Validated: 33
EndChar

StartChar: W
Encoding: 87 87 58
Width: 2239
Flags: W
LayerCount: 2
Fore
SplineSet
172 1655.5 m 128,-1,1
 241 1667 241 1667 345 1607.5 c 128,-1,2
 449 1548 449 1548 545.5 1404 c 128,-1,3
 642 1260 642 1260 707 1060 c 2,4,-1
 772 860 l 1,5,-1
 747 752 l 1,6,-1
 768 694 l 1,7,-1
 810 716 l 1,8,-1
 901 459 l 1,9,-1
 909 459 l 1,10,11
 1093 886 1093 886 1126 995 c 2,12,-1
 1159 1103 l 1,13,-1
 1159 1105 l 1,14,-1
 1159 1106 l 1,15,-1
 1129 1208 l 2,16,17
 1099 1310 1099 1310 1020 1310 c 1,18,19
 1004 1314 1004 1314 1004 1334 c 2,20,-1
 1004 1354 l 2,21,22
 1004 1395 1004 1395 1020 1395 c 2,23,-1
 1389 1385 l 1,24,-1
 1431 1370 l 1,25,-1
 1447 1360 l 1,26,-1
 1464 1373 l 1,27,-1
 1479 1395 l 1,28,-1
 1495 1395 l 2,29,30
 1521 1395 1521 1395 1521 1372 c 2,31,-1
 1521 1334 l 2,32,33
 1521 1310 1521 1310 1485 1310 c 1,34,35
 1398 1303 1398 1303 1398 1257 c 2,36,-1
 1398 1245 l 1,37,-1
 1398 1220 l 2,38,39
 1398 1196 1398 1196 1465 983 c 1,40,-1
 1520 827 l 1,41,-1
 1531 745 l 1,42,-1
 1642 463 l 1,43,-1
 1651 459 l 1,44,-1
 1795 815 l 2,45,46
 1938 1170 1938 1170 1938 1212 c 2,47,-1
 1938 1254 l 1,48,49
 1931 1290 1931 1290 1902 1296.5 c 128,-1,50
 1873 1303 1873 1303 1857 1310 c 1,51,52
 1848 1310 1848 1310 1844 1354 c 1,53,-1
 1848 1388 l 1,54,-1
 1870 1392 l 1,55,-1
 1912 1392 l 1,56,-1
 1954 1385 l 1,57,-1
 1986 1380 l 1,58,-1
 2009 1390 l 1,59,-1
 2082 1386 l 1,60,61
 2122 1392 2122 1392 2164 1392 c 2,62,-1
 2206 1392 l 1,63,-1
 2214 1384 l 1,64,-1
 2214 1322 l 2,65,66
 2214 1314 2214 1314 2181 1308 c 1,67,68
 2118 1272 2118 1272 2106 1180 c 1,69,-1
 2014 971 l 1,70,-1
 1922 763 l 1,71,-1
 1863 637 l 1,72,-1
 1803 512 l 1,73,-1
 1730 262 l 1,74,-1
 1733 258 l 1,75,76
 1791 126 1791 126 1842 126 c 1,77,78
 1852 123 1852 123 1852 103 c 2,79,-1
 1852 79 l 2,80,81
 1852 51 1852 51 1838 45 c 1,82,-1
 1547 59 l 1,83,-1
 1475 74 l 1,84,-1
 1402 45 l 1,85,-1
 1402 49 l 1,86,-1
 1398 45 l 1,87,-1
 1360 45 l 2,88,89
 1332 45 1332 45 1332 84 c 1,90,-1
 1337 88 l 1,91,-1
 1332 92 l 1,92,-1
 1337 96 l 1,93,-1
 1332 96 l 1,94,95
 1332 129 1332 129 1368 129 c 1,96,97
 1459 137 1459 137 1459 184 c 2,98,-1
 1459 196 l 2,99,100
 1459 253 1459 253 1248 834 c 1,101,-1
 1248 840 l 2,102,103
 1248 845 1248 845 1244 845 c 2,104,-1
 1239 845 l 1,105,-1
 1120 590 l 2,106,107
 1002 336 1002 336 980 266 c 1,108,109
 1027 142 1027 142 1095 142 c 1,110,111
 1108 127 1108 127 1108 115 c 2,112,-1
 1108 92 l 2,113,114
 1108 63 1108 63 1091 57 c 1,115,-1
 941 69 l 1,116,-1
 802 50 l 1,117,-1
 712 60 l 1,118,-1
 656 62 l 1,119,-1
 653 57 l 1,120,-1
 616 57 l 2,121,122
 586 57 586 57 586 96 c 1,123,-1
 591 99 l 1,124,-1
 586 103 l 1,125,-1
 591 107 l 1,126,-1
 586 107 l 1,127,128
 586 142 586 142 624 142 c 1,129,130
 713 149 713 149 713 196 c 2,131,-1
 713 208 l 2,132,133
 713 266 713 266 541 770 c 1,134,-1
 456 1147 l 1,135,136
 403 1215 403 1215 375 1302 c 1,137,138
 303 1388 303 1388 251.5 1431 c 128,-1,139
 200 1474 200 1474 159.5 1509 c 128,-1,140
 119 1544 119 1544 25 1552 c 1,141,0
 103 1644 103 1644 172 1655.5 c 128,-1,1
EndSplineSet
Validated: 33
EndChar

StartChar: X
Encoding: 88 88 59
Width: 1639
Flags: W
LayerCount: 2
Fore
SplineSet
1313 -40.5 m 128,-1,1
 1234 30 1234 30 1088 258 c 1,2,-1
 999 446 l 1,3,4
 942 486 942 486 877 612 c 1,5,6
 750 461 750 461 692 383 c 128,-1,7
 634 305 634 305 608 265.5 c 128,-1,8
 582 226 582 226 576.5 211 c 128,-1,9
 571 196 571 196 571 180 c 0,10,11
 571 149 571 149 594.5 141 c 128,-1,12
 618 133 618 133 694 129 c 0,13,14
 710 129 710 129 713 123.5 c 128,-1,15
 716 118 716 118 716 97 c 0,16,17
 716 61 716 61 713 52.5 c 128,-1,18
 710 44 710 44 694 44 c 2,19,-1
 659 44 l 2,20,21
 650 44 650 44 621.5 45 c 128,-1,22
 593 46 593 46 578.5 50 c 128,-1,23
 564 54 564 54 496 74 c 1,24,25
 467 45 467 45 447 48 c 1,26,27
 439 67 439 67 431 54 c 1,28,29
 425 48 425 48 412 48 c 1,30,31
 398 67 398 67 377 66 c 128,-1,32
 356 65 356 65 319 46 c 1,33,-1
 289 46 l 2,34,35
 242 46 242 46 240 50 c 1,36,37
 235 52 235 52 235 88 c 0,38,39
 235 118 235 118 240.5 124.5 c 128,-1,40
 246 131 246 131 280 141 c 1,41,42
 292 146 292 146 308 153 c 128,-1,43
 324 160 324 160 346.5 180 c 128,-1,44
 369 200 369 200 403 237.5 c 128,-1,45
 437 275 437 275 490 336.5 c 128,-1,46
 543 398 543 398 616.5 487 c 128,-1,47
 690 576 690 576 827 726 c 1,48,49
 725 940 725 940 536 1140 c 1,50,-1
 539 1209 l 1,51,-1
 539 1253 l 1,52,-1
 514 1270 l 1,53,-1
 488 1297 l 1,54,-1
 469 1295 l 1,55,56
 420 1301 420 1301 346 1361 c 128,-1,57
 272 1421 272 1421 222 1425 c 128,-1,58
 172 1429 172 1429 25 1413 c 1,59,60
 93 1542 93 1542 155 1561.5 c 128,-1,61
 217 1581 217 1581 330.5 1556 c 128,-1,62
 444 1531 444 1531 571 1422 c 128,-1,63
 698 1313 698 1313 811 1167 c 128,-1,64
 924 1021 924 1021 977 893 c 1,65,66
 988 908 988 908 997 919 c 128,-1,67
 1006 930 1006 930 1021.5 950.5 c 128,-1,68
 1037 971 1037 971 1065 1008 c 128,-1,69
 1093 1045 1093 1045 1144 1112 c 0,70,71
 1197 1181 1197 1181 1217.5 1214.5 c 128,-1,72
 1238 1248 1238 1248 1238 1266 c 0,73,74
 1238 1286 1238 1286 1216.5 1293.5 c 128,-1,75
 1195 1301 1195 1301 1138 1303 c 0,76,77
 1121 1303 1121 1303 1116.5 1314 c 128,-1,78
 1112 1325 1112 1325 1112 1355 c 0,79,80
 1112 1377 1112 1377 1116.5 1383.5 c 128,-1,81
 1121 1390 1121 1390 1138 1390 c 2,82,-1
 1160 1390 l 1,83,-1
 1222 1390 l 1,84,-1
 1232 1356 l 1,85,-1
 1259 1362 l 1,86,-1
 1293 1342 l 1,87,-1
 1310 1388 l 1,88,89
 1361 1378 1361 1378 1413 1384 c 128,-1,90
 1465 1390 1465 1390 1510 1394 c 1,91,-1
 1528 1394 l 2,92,93
 1546 1394 1546 1394 1549 1386.5 c 128,-1,94
 1552 1379 1552 1379 1552 1343 c 0,95,96
 1552 1323 1552 1323 1546 1316.5 c 128,-1,97
 1540 1310 1540 1310 1510 1296 c 1,98,99
 1493 1294 1493 1294 1460.5 1267.5 c 128,-1,100
 1428 1241 1428 1241 1372.5 1183 c 128,-1,101
 1317 1125 1317 1125 1236.5 1030.5 c 128,-1,102
 1156 936 1156 936 1041 801 c 1,103,104
 1193 534 1193 534 1317 277 c 1,105,-1
 1412 166 l 1,106,107
 1485 44 1485 44 1536 -16.5 c 128,-1,108
 1587 -77 1587 -77 1588 -78 c 128,-1,109
 1589 -79 1589 -79 1628.5 -80 c 128,-1,110
 1668 -81 1668 -81 1696.5 -47 c 128,-1,111
 1725 -13 1725 -13 1745.5 -22.5 c 128,-1,112
 1766 -32 1766 -32 1762 -70 c 128,-1,113
 1758 -108 1758 -108 1729.5 -141.5 c 128,-1,114
 1701 -175 1701 -175 1619.5 -179 c 128,-1,115
 1538 -183 1538 -183 1465 -147 c 128,-1,0
 1392 -111 1392 -111 1313 -40.5 c 128,-1,1
EndSplineSet
Validated: 33
EndChar

StartChar: Y
Encoding: 89 89 60
Width: 1669
Flags: W
LayerCount: 2
Fore
SplineSet
193 1602 m 1,0,1
 447 1602 447 1602 670 1368 c 1,2,3
 722 1321 722 1321 850.5 1077.5 c 128,-1,4
 979 834 979 834 1030 767 c 1,5,6
 1329 1218 1329 1218 1329 1271 c 0,7,8
 1329 1307 1329 1307 1202 1317 c 1,9,-1
 1197 1322 l 1,10,-1
 1197 1383 l 2,11,12
 1197 1391 1197 1391 1218 1398 c 1,13,-1
 1380 1393 l 1,14,-1
 1634 1388 l 1,15,-1
 1644 1373 l 1,16,-1
 1644 1322 l 1,17,18
 1642 1312 1642 1312 1548 1276 c 1,19,20
 1379 1088 1379 1088 1101 666 c 1,21,-1
 1091 625 l 1,22,-1
 1091 554 l 2,23,24
 1091 157 1091 157 1136 157 c 1,25,26
 1136 135 1136 135 1279 126 c 1,27,-1
 1284 121 l 1,28,-1
 1284 106 l 2,29,30
 1284 50 1284 50 1268 50 c 0,31,32
 952 50 952 50 822 -1 c 1,33,-1
 644 -57 l 1,34,35
 614 -51 614 -51 614 -41 c 2,36,-1
 614 9 l 2,37,38
 614 26 614 26 695 40 c 1,39,40
 786 90 786 90 786 172 c 1,41,42
 807 172 807 172 812 559 c 1,43,-1
 812 584 l 2,44,45
 812 630 812 630 704 807 c 1,46,-1
 705 959 l 1,47,-1
 633 989 l 1,48,-1
 618 1048 l 1,49,-1
 524 1108 l 1,50,51
 406 1335 406 1335 289 1393 c 1,52,53
 174 1472 174 1472 76 1465 c 1,54,-1
 61 1465 l 1,55,-1
 25 1460 l 1,56,57
 34 1546 34 1546 146 1594 c 1,58,-1
 193 1602 l 1,0,1
EndSplineSet
Validated: 33
EndChar

StartChar: Z
Encoding: 90 90 61
Width: 1142
Flags: W
LayerCount: 2
Fore
SplineSet
1102 1339 m 2,0,1
 1102 1327 1102 1327 1096.5 1318.5 c 128,-1,2
 1091 1310 1091 1310 1069 1277 c 1,3,-1
 1018 1205 l 1,4,-1
 718 750 l 1,5,-1
 629 705 l 1,6,-1
 571 636 l 1,7,-1
 582 539 l 1,8,9
 415 252 415 252 377 185 c 1,10,11
 520 187 520 187 618.5 190 c 128,-1,12
 717 193 717 193 784 201.5 c 128,-1,13
 851 210 851 210 891 225.5 c 128,-1,14
 931 241 931 241 955 270 c 128,-1,15
 979 299 979 299 994 341 c 128,-1,16
 1009 383 1009 383 1025 445 c 1,17,18
 1030 470 1030 470 1037.5 476 c 128,-1,19
 1045 482 1045 482 1063 482 c 0,20,21
 1095 482 1095 482 1106 478 c 128,-1,22
 1117 474 1117 474 1117 458 c 0,23,24
 1117 443 1117 443 1112.5 412.5 c 128,-1,25
 1108 382 1108 382 1101.5 341.5 c 128,-1,26
 1095 301 1095 301 1088 258.5 c 128,-1,27
 1081 216 1081 216 1074 185 c 1,28,29
 1065 108 1065 108 1073 65.5 c 128,-1,30
 1081 23 1081 23 1076 12 c 128,-1,31
 1071 1 1071 1 1064.5 -1 c 128,-1,32
 1058 -3 1058 -3 1047 -3 c 1,33,-1
 979 38 l 1,34,-1
 710 69 l 1,35,-1
 611 91 l 1,36,-1
 546 37 l 1,37,38
 235 57 235 57 65 38 c 1,39,-1
 54 38 l 2,40,41
 32 38 32 38 28.5 42 c 128,-1,42
 25 46 25 46 25 70 c 0,43,44
 25 102 25 102 27 109.5 c 128,-1,45
 29 117 29 117 38 126 c 1,46,47
 92 235 92 235 165 346.5 c 128,-1,48
 238 458 238 458 410 721 c 1,49,-1
 616 1012 l 1,50,51
 746 1262 746 1262 755 1277 c 1,52,53
 626 1274 626 1274 578.5 1274 c 128,-1,54
 531 1274 531 1274 489.5 1272 c 128,-1,55
 448 1270 448 1270 393 1252 c 128,-1,56
 338 1234 338 1234 256 1178 c 128,-1,57
 174 1122 174 1122 147 1045 c 1,58,-1
 148 1044 l 1,59,-1
 65 1050 l 1,60,61
 125 1181 125 1181 137 1249 c 128,-1,62
 149 1317 149 1317 160 1436 c 1,63,64
 293 1402 293 1402 352 1397.5 c 128,-1,65
 411 1393 411 1393 473 1354 c 1,66,67
 626 1391 626 1391 698 1391 c 1,68,69
 796 1374 796 1374 866.5 1363 c 128,-1,70
 937 1352 937 1352 1065 1395 c 1,71,72
 1090 1395 1090 1395 1096 1389 c 128,-1,73
 1102 1383 1102 1383 1102 1359 c 2,74,-1
 1102 1339 l 2,0,1
EndSplineSet
Validated: 33
EndChar

StartChar: backslash
Encoding: 92 92 63
Width: 880
Flags: W
LayerCount: 2
Fore
SplineSet
646 -147 m 1,0,-1
 120 1474 l 1,1,-1
 236 1474 l 1,2,-1
 760 -147 l 1,3,-1
 646 -147 l 1,0,-1
EndSplineSet
Validated: 1
EndChar

StartChar: underscore
Encoding: 95 95 66
Width: 2166
Flags: W
LayerCount: 2
Fore
SplineSet
2126 -2 m 1,0,-1
 40 -2 l 1,1,-1
 40 84 l 1,2,-1
 2126 84 l 1,3,-1
 2126 -2 l 1,0,-1
EndSplineSet
Validated: 1
EndChar

StartChar: a
Encoding: 97 97 68
Width: 793
Flags: W
LayerCount: 2
Fore
SplineSet
392 840 m 5,1,-1
 363 831 l 5,2,-1
 352 806 l 5,3,4
 332 789 332 789 321 769 c 6,5,-1
 310 749 l 5,6,-1
 299 729 l 6,7,8
 288 709 288 709 294 699 c 6,9,-1
 300 690 l 5,10,-1
 306 680 l 5,11,-1
 312 670 l 5,12,-1
 333 665 l 5,13,-1
 345 645 l 5,14,-1
 366 643 l 5,15,16
 396 650 396 650 422 642 c 6,17,-1
 448 634 l 5,18,-1
 473 625 l 5,19,-1
 499 617 l 5,20,-1
 499 675 l 5,21,-1
 499 733 l 5,22,-1
 499 790 l 5,23,-1
 499 848 l 5,24,-1
 477 850 l 5,25,-1
 456 853 l 5,26,-1
 434 855 l 6,27,0
 412 857 412 857 392 840 c 5,1,-1
757 923 m 5,28,-1
 757 904 l 5,29,-1
 757 884 l 5,30,-1
 730 884 l 5,31,-1
 702 884 l 5,32,-1
 686 871 l 6,33,34
 670 857 670 857 666 824 c 6,35,-1
 662 790 l 5,36,-1
 653 786 l 5,37,-1
 641 799 l 5,38,-1
 635 777 l 5,39,-1
 626 772 l 5,40,-1
 632 754 l 5,41,-1
 636 725 l 5,42,-1
 645 719 l 5,43,44
 651 701 651 701 645 694 c 6,45,-1
 639 688 l 5,46,-1
 632 681 l 5,47,-1
 626 674 l 5,48,-1
 635 666 l 5,49,-1
 641 648 l 5,50,-1
 653 649 l 5,51,-1
 662 640 l 5,52,-1
 662 595 l 5,53,-1
 662 550 l 5,54,-1
 656 502 l 5,55,-1
 662 460 l 5,56,-1
 656 402 l 5,57,-1
 662 350 l 5,58,-1
 675 320 l 6,59,60
 687 290 687 290 714 270 c 5,61,-1
 740 249 l 5,62,-1
 754 249 l 5,63,-1
 768 249 l 5,64,-1
 763 231 l 5,65,-1
 758 213 l 5,66,-1
 596 211 l 5,67,-1
 514 210 l 5,68,-1
 433 209 l 5,69,-1
 445 218 l 5,70,-1
 433 228 l 5,71,-1
 433 237 l 5,72,-1
 433 246 l 5,73,-1
 443 247 l 5,74,-1
 452 248 l 5,75,-1
 462 249 l 5,76,77
 474 241 474 241 489 244 c 5,78,-1
 489 262 l 5,79,-1
 498 268 l 6,80,81
 507 274 507 274 509 284 c 6,82,-1
 511 295 l 5,83,-1
 513 305 l 5,84,-1
 515 315 l 5,85,-1
 514 365 l 5,86,-1
 513 416 l 5,87,-1
 512 466 l 5,88,-1
 511 516 l 5,89,-1
 450 531 l 5,90,-1
 388 546 l 5,91,-1
 327 561 l 5,92,-1
 265 576 l 5,93,-1
 263 555 l 5,94,-1
 249 539 l 5,95,-1
 244 509 l 5,96,-1
 246 487 l 5,97,-1
 247 458 l 5,98,-1
 234 425 l 5,99,-1
 232 393 l 5,100,-1
 224 360 l 5,101,-1
 200 330 l 5,102,-1
 180 303 l 5,103,-1
 153 269 l 6,104,105
 129 239 129 239 105 216 c 6,106,-1
 82 194 l 5,107,-1
 58 171 l 6,108,109
 34 148 34 148 10 137 c 5,110,-1
 -13 125 l 5,111,-1
 -37 114 l 6,112,113
 -61 102 -61 102 -108 102 c 6,114,-1
 -155 102 l 5,115,-1
 -131 130 l 5,116,-1
 -109 132 l 5,117,-1
 -88 134 l 5,118,-1
 -66 136 l 6,119,120
 -45 138 -45 138 -25 159 c 6,121,-1
 -5 180 l 5,122,-1
 15 200 l 6,123,124
 35 221 35 221 52 262 c 6,125,-1
 68 303 l 5,126,-1
 85 343 l 5,127,128
 101 384 101 384 105 439 c 6,129,-1
 110 494 l 5,130,-1
 123 542 l 5,131,-1
 118 603 l 5,132,-1
 117 612 l 5,133,-1
 97 626 l 5,134,-1
 87 638 l 5,135,136
 76 649 76 649 78 661 c 6,137,-1
 80 672 l 5,138,-1
 82 684 l 6,139,140
 84 695 84 695 99 694 c 6,141,-1
 114 693 l 5,142,-1
 129 692 l 5,143,-1
 144 691 l 5,144,-1
 154 708 l 5,145,-1
 164 720 l 5,146,-1
 173 743 l 5,147,148
 195 757 195 757 205 785 c 5,149,-1
 226 810 l 5,150,-1
 248 834 l 5,151,152
 269 859 269 859 291 863 c 5,153,-1
 314 891 l 5,154,-1
 336 907 l 6,155,156
 358 923 358 923 379 923 c 6,157,-1
 399 923 l 5,158,-1
 420 923 l 5,159,-1
 449 914 l 5,160,-1
 519 923 l 5,161,-1
 590 914 l 5,162,-1
 678 923 l 5,163,-1
 757 923 l 5,28,-1
EndSplineSet
Validated: 1
EndChar

StartChar: b
Encoding: 98 98 69
Width: 663
Flags: W
LayerCount: 2
Fore
SplineSet
249 801 m 1,0,-1
 247 680 l 1,1,-1
 236 547 l 1,2,-1
 243 438 l 1,3,-1
 241 317 l 1,4,-1
 254 307 l 1,5,-1
 267 297 l 1,6,-1
 280 286 l 2,7,8
 293 276 293 276 326 270 c 1,9,-1
 359 276 l 1,10,-1
 389 275 l 2,11,12
 419 273 419 273 445 297 c 256,13,14
 471 321 471 321 483 346 c 0,15,16
 494 371 494 371 508 396 c 1,17,-1
 510 426 l 1,18,-1
 494 456 l 1,19,20
 490 486 490 486 459 514 c 0,21,22
 427 542 427 542 404 569 c 1,23,24
 356 584 356 584 333 586 c 2,25,-1
 309 588 l 1,26,-1
 311 607 l 2,27,28
 313 625 313 625 327 638 c 2,29,-1
 340 651 l 1,30,-1
 368 644 l 2,31,32
 396 636 396 636 416 642 c 0,33,34
 435 647 435 647 457 674 c 0,35,36
 478 700 478 700 476 721 c 2,37,-1
 474 741 l 1,38,-1
 483 773 l 1,39,40
 467 793 467 793 434 814 c 0,41,42
 400 835 400 835 373 845 c 1,43,44
 352 842 352 842 326 846 c 256,45,46
 300 850 300 850 275 826 c 2,47,-1
 249 801 l 1,0,-1
54 917 m 1,48,-1
 147 916 l 1,49,-1
 191 907 l 1,50,-1
 241 915 l 1,51,-1
 334 914 l 1,52,-1
 380 914 l 1,53,-1
 424 898 l 1,54,-1
 447 913 l 1,55,-1
 457 913 l 1,56,-1
 468 913 l 2,57,58
 508 913 508 913 543 870 c 0,59,60
 577 827 577 827 593 786 c 0,61,62
 609 744 609 744 607 711 c 0,63,64
 605 677 605 677 586 655 c 256,65,66
 567 633 567 633 544 626 c 2,67,-1
 521 618 l 1,68,-1
 520 606 l 1,69,-1
 518 594 l 1,70,-1
 544 578 l 2,71,72
 570 562 570 562 597 521 c 0,73,74
 624 479 624 479 631 425 c 256,75,76
 638 371 638 371 612 341 c 1,77,78
 603 288 603 288 578 264 c 0,79,80
 552 239 552 239 513 221 c 0,81,82
 474 202 474 202 413 204 c 2,83,-1
 351 206 l 1,84,-1
 286 213 l 2,85,86
 220 220 220 220 139 217 c 2,87,-1
 57 213 l 1,88,-1
 50 226 l 1,89,-1
 43 239 l 1,90,-1
 63 247 l 2,91,92
 82 254 82 254 89 264 c 0,93,94
 96 273 96 273 100 354 c 2,95,-1
 103 434 l 1,96,-1
 101 483 l 1,97,-1
 99 531 l 1,98,-1
 110 535 l 1,99,-1
 121 538 l 1,100,-1
 125 556 l 1,101,-1
 128 573 l 1,102,-1
 121 575 l 1,103,-1
 113 577 l 1,104,-1
 103 583 l 1,105,-1
 92 588 l 1,106,-1
 98 601 l 1,107,-1
 103 614 l 1,108,-1
 101 717 l 1,109,-1
 99 820 l 1,110,-1
 92 839 l 2,111,112
 85 857 85 857 75 865 c 1,113,-1
 64 872 l 1,114,-1
 45 874 l 1,115,-1
 25 876 l 1,116,-1
 40 897 l 1,117,-1
 54 917 l 1,48,-1
EndSplineSet
Validated: 33
EndChar

StartChar: c
Encoding: 99 99 70
Width: 705
Flags: W
LayerCount: 2
Fore
SplineSet
25 535 m 5,0,-1
 43 571 l 5,1,2
 43 607 43 607 63 676 c 4,3,4
 82 745 82 745 132 801 c 4,5,6
 181 856 181 856 247 890 c 4,7,8
 313 923 313 923 339 920 c 6,9,-1
 389 914 l 5,10,-1
 412 906 l 5,11,12
 435 913 435 913 452 916 c 4,13,14
 468 918 468 918 474 903 c 5,15,16
 498 900 498 900 509 910 c 5,17,18
 519 908 519 908 524 908 c 6,19,-1
 528 908 l 5,20,-1
 532 908 l 6,21,22
 535 908 535 908 546 910 c 4,23,24
 556 912 556 912 566 915 c 260,25,26
 576 918 576 918 584 921 c 4,27,28
 592 923 592 923 593 923 c 6,29,-1
 594 923 l 5,30,-1
 597 923 l 6,31,32
 599 923 599 923 603 920 c 4,33,34
 607 916 607 916 607 910 c 6,35,-1
 607 904 l 5,36,-1
 607 902 l 6,37,38
 607 899 607 899 606 894 c 4,39,40
 604 888 604 888 590 867 c 5,41,42
 605 852 605 852 599 838 c 6,43,-1
 592 824 l 5,44,-1
 597 814 l 5,45,-1
 601 803 l 5,46,-1
 607 769 l 6,47,48
 612 735 612 735 614 728 c 5,49,50
 615 720 615 720 615 715 c 6,51,-1
 615 710 l 5,52,-1
 609 702 l 6,53,54
 603 694 603 694 589 690 c 6,55,-1
 574 685 l 5,56,-1
 570 685 l 6,57,58
 566 685 566 685 563 694 c 4,59,60
 560 702 560 702 554 721 c 4,61,62
 548 739 548 739 540 760 c 4,63,64
 532 780 532 780 513 797 c 4,65,66
 493 814 493 814 460 827 c 4,67,68
 427 839 427 839 397 848 c 5,69,-1
 343 851 l 5,70,-1
 311 839 l 5,71,72
 267 839 267 839 219 780 c 4,73,74
 171 720 171 720 171 652 c 6,75,-1
 171 583 l 5,76,-1
 162 535 l 5,77,78
 171 492 171 492 188 435 c 260,79,80
 205 378 205 378 235 337 c 260,81,82
 265 296 265 296 305 279 c 4,83,84
 344 262 344 262 377 272 c 6,85,-1
 410 282 l 5,86,-1
 435 282 l 6,87,88
 459 282 459 282 497 299 c 260,89,90
 535 316 535 316 563 337 c 4,91,92
 590 357 590 357 635 388 c 6,93,-1
 680 419 l 5,94,-1
 662 381 l 6,95,96
 643 343 643 343 601 304 c 4,97,98
 558 264 558 264 518 239 c 4,99,100
 477 213 477 213 446 209 c 4,101,102
 414 205 414 205 388 189 c 4,103,104
 361 172 361 172 345 172 c 6,105,-1
 329 172 l 5,106,-1
 298 172 l 6,107,108
 266 172 266 172 211 197 c 5,109,110
 155 221 155 221 135 245 c 5,111,-1
 114 268 l 5,112,-1
 118 290 l 5,113,-1
 122 311 l 5,114,-1
 115 333 l 5,115,-1
 107 355 l 5,116,-1
 81 352 l 5,117,-1
 55 349 l 5,118,-1
 40 399 l 6,119,120
 25 449 25 449 34 492 c 5,121,-1
 25 535 l 5,0,-1
EndSplineSet
Validated: 33
EndChar

StartChar: d
Encoding: 100 100 71
Width: 694
Flags: W
LayerCount: 2
Fore
SplineSet
243 378 m 1,0,-1
 251 343 l 1,1,2
 251 307 251 307 270 298 c 0,3,4
 292 287 292 287 314 283 c 128,-1,5
 336 279 336 279 361 279 c 0,6,7
 449 279 449 279 491 354 c 1,8,-1
 511 392 l 1,9,10
 532 429 532 429 532 505 c 1,11,-1
 544 539 l 1,12,-1
 532 580 l 1,13,-1
 532 615 l 1,14,-1
 532 633 l 2,15,16
 532 650 532 650 523 702 c 1,17,-1
 513 724 l 1,18,19
 507 748 507 748 482 780 c 2,20,-1
 470 795 l 2,21,22
 457 811 457 811 422 826 c 2,23,-1
 405 833 l 2,24,25
 387 840 387 840 366 840 c 2,26,-1
 355 840 l 1,27,-1
 344 840 l 2,28,29
 318 840 318 840 296 837 c 128,-1,30
 274 834 274 834 263 832 c 2,31,-1
 251 830 l 1,32,-1
 251 717 l 1,33,-1
 248 675 l 1,34,-1
 251 604 l 1,35,-1
 251 548 l 1,36,-1
 243 482 l 1,37,-1
 251 435 l 1,38,-1
 243 378 l 1,0,-1
108 774 m 1,39,-1
 108 800 l 2,40,41
 108 826 108 826 92.5 849 c 128,-1,42
 77 872 77 872 55 874 c 0,43,44
 42 876 42 876 33.5 876 c 128,-1,45
 25 876 25 876 25 886 c 0,46,47
 25 889 25 889 29.5 894.5 c 128,-1,48
 34 900 34 900 38.5 905 c 128,-1,49
 43 910 43 910 48 913.5 c 128,-1,50
 53 917 53 917 55 917 c 256,51,52
 57 917 57 917 61.5 916 c 128,-1,53
 66 915 66 915 77.5 914.5 c 128,-1,54
 89 914 89 914 108.5 912.5 c 128,-1,55
 128 911 128 911 163 911 c 0,56,57
 192 911 192 911 212 912 c 128,-1,58
 232 913 232 913 247.5 913.5 c 128,-1,59
 263 914 263 914 274 915 c 128,-1,60
 285 916 285 916 295 917 c 0,61,62
 315 920 315 920 337.5 921.5 c 128,-1,63
 360 923 360 923 398 914 c 1,64,-1
 424 923 l 1,65,-1
 440 923 l 2,66,67
 456 923 456 923 509 904 c 1,68,-1
 535 894 l 2,69,70
 561 884 561 884 586 838 c 1,71,-1
 616 823 l 1,72,73
 634 803 634 803 655 743 c 1,74,-1
 665 712 l 2,75,76
 675 682 675 682 675 642 c 2,77,-1
 675 621 l 1,78,-1
 675 601 l 1,79,-1
 675 555 l 1,80,-1
 666 535 l 1,81,82
 675 509 675 509 648 435 c 2,83,-1
 634 397 l 2,84,85
 620 360 620 360 572 307 c 2,86,-1
 548 280 l 2,87,88
 524 253 524 253 459 224 c 1,89,-1
 426 210 l 2,90,91
 393 195 393 195 356 195 c 2,92,-1
 338 195 l 1,93,-1
 319 195 l 2,94,95
 298 195 298 195 278.5 197.5 c 128,-1,96
 259 200 259 200 238.5 202 c 128,-1,97
 218 204 218 204 196 206 c 128,-1,98
 174 208 174 208 148 208 c 0,99,100
 124 208 124 208 109 206.5 c 128,-1,101
 94 205 94 205 84 204.5 c 128,-1,102
 74 204 74 204 67 203 c 128,-1,103
 60 202 60 202 53 202 c 0,104,105
 39 202 39 202 39 212 c 0,106,107
 39 220 39 220 46.5 231.5 c 128,-1,108
 54 243 54 243 61 245 c 0,109,110
 73 248 73 248 82 255 c 128,-1,111
 91 262 91 262 97 276 c 256,112,113
 103 290 103 290 106 314 c 1,114,-1
 117 338 l 1,115,-1
 108 357 l 1,116,-1
 114 391 l 1,117,-1
 115 452 l 1,118,-1
 121 528 l 1,119,-1
 139 535 l 1,120,-1
 156 542 l 1,121,-1
 159 571 l 1,122,-1
 166 599 l 1,123,-1
 150 620 l 1,124,-1
 128 640 l 1,125,-1
 118 707 l 1,126,-1
 108 774 l 1,39,-1
EndSplineSet
Validated: 33
EndChar

StartChar: e
Encoding: 101 101 72
Width: 626
Flags: W
LayerCount: 2
Fore
SplineSet
58 917 m 5,0,-1
 50 905 l 5,1,-1
 42 892 l 5,2,-1
 33 880 l 5,3,-1
 25 867 l 5,4,-1
 45 866 l 5,5,-1
 64 864 l 5,6,-1
 84 861 l 6,7,8
 103 858 103 858 109 832 c 4,9,10
 114 806 114 806 114 742 c 6,11,-1
 114 677 l 5,12,-1
 116 655 l 5,13,-1
 117 633 l 5,14,-1
 135 627 l 5,15,-1
 153 621 l 5,16,-1
 142 603 l 5,17,-1
 130 585 l 5,18,-1
 135 567 l 5,19,-1
 140 548 l 5,20,-1
 124 522 l 5,21,-1
 111 516 l 5,22,-1
 114 408 l 5,23,-1
 114 291 l 5,24,-1
 120 285 l 5,25,-1
 107 278 l 5,26,-1
 104 272 l 6,27,28
 101 265 101 265 80 253 c 6,29,-1
 58 240 l 5,30,-1
 49 238 l 5,31,-1
 40 236 l 5,32,-1
 38 212 l 5,33,-1
 36 187 l 5,34,-1
 132 194 l 6,35,36
 228 200 228 200 328 204 c 6,37,-1
 427 207 l 5,38,-1
 543 202 l 5,39,-1
 659 197 l 5,40,-1
 723 192 l 5,41,-1
 787 187 l 5,42,-1
 829 190 l 6,43,44
 870 193 870 193 898 197 c 6,45,-1
 926 200 l 5,46,-1
 910 214 l 5,47,-1
 893 227 l 5,48,-1
 882 228 l 5,49,-1
 870 246 l 5,50,-1
 854 238 l 6,51,52
 837 230 837 230 794 229 c 6,53,-1
 751 227 l 5,54,-1
 700 231 l 5,55,-1
 673 240 l 5,56,-1
 615 237 l 5,57,-1
 574 252 l 5,58,-1
 523 264 l 5,59,-1
 471 275 l 5,60,-1
 430 280 l 5,61,-1
 388 275 l 5,62,-1
 330 283 l 5,63,-1
 271 282 l 5,64,-1
 271 411 l 5,65,-1
 271 539 l 5,66,-1
 295 539 l 5,67,-1
 318 539 l 5,68,-1
 348 534 l 6,69,70
 377 529 377 529 415 514 c 4,71,72
 452 499 452 499 458 469 c 5,73,-1
 463 438 l 5,74,-1
 483 440 l 5,75,-1
 502 441 l 5,76,-1
 502 552 l 5,77,-1
 502 663 l 5,78,-1
 485 673 l 5,79,-1
 467 682 l 5,80,-1
 464 671 l 5,81,-1
 460 659 l 5,82,-1
 456 640 l 6,83,84
 452 620 452 620 438 612 c 260,85,86
 424 604 424 604 398 601 c 6,87,-1
 371 598 l 5,88,-1
 321 597 l 5,89,-1
 271 595 l 5,90,-1
 271 714 l 5,91,-1
 271 832 l 5,92,-1
 277 844 l 5,93,-1
 282 856 l 5,94,-1
 298 862 l 5,95,-1
 313 867 l 5,96,-1
 351 866 l 5,97,-1
 388 864 l 5,98,-1
 427 863 l 5,99,-1
 447 855 l 5,100,-1
 475 827 l 5,101,-1
 503 799 l 5,102,-1
 521 765 l 5,103,-1
 538 731 l 5,104,-1
 553 710 l 5,105,-1
 567 689 l 5,106,-1
 578 692 l 5,107,-1
 588 695 l 5,108,-1
 578 752 l 5,109,-1
 567 809 l 5,110,-1
 556 863 l 5,111,-1
 563 917 l 5,112,-1
 410 916 l 5,113,-1
 334 915 l 5,114,-1
 257 914 l 5,115,-1
 207 915 l 5,116,-1
 155 904 l 5,117,-1
 108 916 l 5,118,-1
 58 917 l 5,0,-1
EndSplineSet
Validated: 9
EndChar

StartChar: f
Encoding: 102 102 73
Width: 565
Flags: W
LayerCount: 2
Fore
SplineSet
36 199 m 1,0,-1
 28 244 l 1,1,2
 58 244 58 244 75 259 c 128,-1,3
 92 274 92 274 103 311 c 1,4,-1
 107 770 l 1,5,-1
 105 794 l 2,6,7
 103 818 103 818 94 830 c 1,8,9
 84 841 84 841 56 850 c 2,10,-1
 28 859 l 1,11,-1
 27 887 l 1,12,-1
 26 901 l 1,13,-1
 25 915 l 1,14,-1
 113 914 l 1,15,-1
 200 913 l 1,16,-1
 276 909 l 1,17,-1
 375 911 l 1,18,-1
 445 913 l 1,19,-1
 515 915 l 1,20,-1
 585 917 l 1,21,-1
 655 919 l 1,22,-1
 718 923 l 2,23,24
 781 926 781 926 798 915 c 256,25,26
 815 904 815 904 828 886 c 0,27,28
 841 867 841 867 834 850 c 0,29,30
 826 833 826 833 810 841 c 1,31,32
 793 848 793 848 787 859 c 256,33,34
 781 870 781 870 746 870 c 256,35,36
 711 870 711 870 663 867 c 0,37,38
 614 863 614 863 547 848 c 0,39,40
 479 833 479 833 416 822 c 256,41,42
 353 811 353 811 312 811 c 2,43,-1
 271 811 l 1,44,-1
 269 705 l 1,45,-1
 267 598 l 1,46,-1
 308 595 l 1,47,-1
 349 591 l 1,48,49
 394 595 394 595 414.5 608 c 128,-1,50
 435 621 435 621 438 662 c 1,51,-1
 465 662 l 1,52,-1
 465 431 l 1,53,-1
 424 434 l 1,54,55
 416 483 416 483 403 492 c 128,-1,56
 390 501 390 501 368 513 c 1,57,-1
 260 505 l 1,58,-1
 260 447 l 1,59,-1
 237 429 l 1,60,-1
 244 381 l 1,61,-1
 239 337 l 1,62,-1
 260 274 l 1,63,-1
 281 262 l 1,64,65
 301 249 301 249 343 237 c 1,66,67
 360 218 360 218 342 200 c 1,68,-1
 36 199 l 1,0,-1
EndSplineSet
Validated: 33
EndChar

StartChar: g
Encoding: 103 103 74
Width: 672
Flags: W
LayerCount: 2
Fore
SplineSet
483 443 m 1,0,-1
 483 460 l 1,1,-1
 483 469 l 2,2,3
 483 477 483 477 465 494 c 1,4,-1
 455 502 l 2,5,6
 446 510 446 510 427 513 c 1,7,-1
 418 515 l 1,8,-1
 408 516 l 1,9,-1
 402 517 l 1,10,-1
 399 518 l 2,11,12
 396 518 396 518 392 518 c 2,13,-1
 389 518 l 1,14,-1
 387 518 l 1,15,-1
 383 518 l 1,16,-1
 381 518 l 2,17,18
 379 518 379 518 379 522 c 2,19,-1
 379 524 l 1,20,-1
 379 526 l 1,21,-1
 379 528 l 1,22,-1
 379 528 l 1,23,24
 379 529 379 529 383 535 c 2,25,-1
 385 538 l 2,26,27
 387 541 387 541 393 547 c 2,28,-1
 395 549 l 2,29,30
 398 552 398 552 404 556 c 2,31,-1
 407 558 l 2,32,33
 410 560 410 560 412 560 c 2,34,-1
 413 560 l 1,35,-1
 414 560 l 1,36,-1
 418 560 l 1,37,-1
 420 560 l 2,38,39
 422 560 422 560 446 557 c 2,40,-1
 458 556 l 2,41,42
 470 554 470 554 505 561 c 2,43,-1
 523 565 l 2,44,45
 540 568 540 568 563 572 c 2,46,-1
 574 574 l 2,47,48
 585 576 585 576 598 577 c 2,49,-1
 605 578 l 2,50,51
 611 578 611 578 620 579 c 1,52,-1
 624 580 l 2,53,54
 628 580 628 580 631 580 c 2,55,-1
 632 580 l 1,56,-1
 633 580 l 1,57,-1
 640 580 l 1,58,-1
 644 580 l 2,59,60
 647 580 647 580 647 575 c 2,61,-1
 647 572 l 1,62,-1
 647 569 l 1,63,-1
 647 566 l 1,64,-1
 647 565 l 2,65,66
 647 563 647 563 640 557 c 2,67,-1
 636 553 l 2,68,69
 632 550 632 550 628 542 c 2,70,-1
 626 537 l 1,71,-1
 624 533 l 1,72,-1
 624 532 l 1,73,-1
 623 532 l 1,74,75
 623 531 623 531 613 511 c 2,76,-1
 608 501 l 2,77,78
 603 491 603 491 603 480 c 2,79,-1
 603 475 l 1,80,-1
 603 469 l 1,81,-1
 597 427 l 1,82,-1
 603 388 l 1,83,-1
 596 361 l 1,84,-1
 603 350 l 1,85,-1
 603 344 l 2,86,87
 603 338 603 338 563 299 c 2,88,-1
 543 279 l 2,89,90
 523 259 523 259 493 241 c 2,91,-1
 478 232 l 2,92,93
 463 223 463 223 426 208 c 1,94,-1
 408 200 l 2,95,96
 389 192 389 192 364 192 c 2,97,-1
 351 192 l 1,98,-1
 338 192 l 1,99,-1
 303 192 l 1,100,-1
 285 192 l 2,101,102
 267 192 267 192 210 218 c 1,103,-1
 181 230 l 2,104,105
 152 243 152 243 111 289 c 2,106,-1
 91 311 l 2,107,108
 70 334 70 334 48 397 c 1,109,-1
 36 429 l 2,110,111
 25 460 25 460 25 497 c 2,112,-1
 25 516 l 1,113,-1
 25 534 l 1,114,-1
 25 572 l 1,115,-1
 25 591 l 2,116,117
 25 610 25 610 52 682 c 2,118,-1
 66 718 l 2,119,120
 79 754 79 754 128 811 c 2,121,-1
 152 839 l 2,122,123
 176 867 176 867 233 902 c 2,124,-1
 261 919 l 2,125,126
 289 936 289 936 329 936 c 1,127,-1
 349 929 l 1,128,-1
 369 936 l 1,129,-1
 384 936 l 1,130,-1
 391 936 l 2,131,132
 398 936 398 936 422 925 c 1,133,-1
 429 932 l 1,134,135
 439 931 439 931 454 928 c 1,136,-1
 462 927 l 1,137,138
 469 925 469 925 481 923 c 1,139,-1
 487 921 l 2,140,141
 493 920 493 920 499 920 c 2,142,-1
 502 920 l 1,143,-1
 505 920 l 1,144,-1
 511 920 l 1,145,-1
 514 920 l 2,146,147
 517 920 517 920 530 923 c 2,148,-1
 536 924 l 2,149,150
 542 925 542 925 552 928 c 1,151,-1
 556 930 l 1,152,153
 561 931 561 931 568 934 c 2,154,-1
 571 935 l 2,155,156
 574 936 574 936 575 936 c 2,157,-1
 576 936 l 1,158,-1
 576 936 l 1,159,-1
 582 936 l 1,160,-1
 584 936 l 2,161,162
 587 936 587 936 587 930 c 2,163,-1
 587 927 l 1,164,-1
 587 924 l 1,165,-1
 587 920 l 1,166,-1
 587 918 l 2,167,168
 587 916 587 916 580 886 c 2,169,-1
 576 871 l 2,170,171
 572 856 572 856 586 803 c 1,172,-1
 592 776 l 2,173,174
 599 749 599 749 599 745 c 2,175,-1
 599 743 l 1,176,-1
 599 741 l 1,177,-1
 599 738 l 1,178,-1
 599 736 l 2,179,180
 599 734 599 734 593 732 c 2,181,-1
 590 731 l 2,182,183
 587 730 587 730 586 727 c 1,184,-1
 586 725 l 1,185,-1
 585 723 l 1,186,-1
 584 721 l 1,187,-1
 584 719 l 1,188,189
 583 718 583 718 580 714 c 2,190,-1
 578 711 l 2,191,192
 576 709 576 709 574 709 c 2,193,-1
 572 709 l 1,194,-1
 571 709 l 1,195,-1
 568 709 l 1,196,-1
 567 709 l 2,197,198
 565 709 565 709 561 719 c 1,199,-1
 558 723 l 1,200,201
 556 728 556 728 547 745 c 2,202,-1
 542 754 l 1,203,-1
 537 762 l 1,204,-1
 536 770 l 1,205,-1
 535 774 l 2,206,207
 534 778 534 778 521 795 c 2,208,-1
 515 803 l 2,209,210
 508 811 508 811 485 824 c 1,211,-1
 473 830 l 2,212,213
 461 836 461 836 427 844 c 2,214,-1
 409 848 l 2,215,216
 392 852 392 852 369 858 c 1,217,-1
 355 858 l 1,218,-1
 346 852 l 1,219,-1
 326 852 l 1,220,-1
 316 852 l 2,221,222
 306 852 306 852 281 837 c 2,223,-1
 269 830 l 2,224,225
 256 822 256 822 226 786 c 2,226,-1
 210 767 l 2,227,228
 195 749 195 749 180 700 c 2,229,-1
 173 676 l 2,230,231
 165 651 165 651 165 618 c 2,232,-1
 165 601 l 1,233,-1
 165 584 l 1,234,-1
 165 547 l 1,235,-1
 165 529 l 2,236,237
 165 510 165 510 173 488 c 2,238,-1
 177 476 l 1,239,-1
 181 465 l 1,240,-1
 173 463 l 1,241,-1
 168 461 l 1,242,-1
 164 460 l 1,243,-1
 159 438 l 1,244,-1
 156 426 l 1,245,-1
 153 415 l 1,246,-1
 162 413 l 1,247,-1
 167 411 l 1,248,-1
 171 410 l 1,249,-1
 178 400 l 1,250,-1
 181 395 l 1,251,-1
 184 390 l 1,252,-1
 190 400 l 1,253,-1
 193 404 l 1,254,-1
 196 409 l 1,255,-1
 219 373 l 1,256,-1
 231 354 l 1,257,-1
 242 336 l 1,258,-1
 282 318 l 1,259,-1
 301 309 l 1,260,-1
 321 300 l 1,261,-1
 355 300 l 1,262,-1
 372 300 l 1,263,-1
 389 300 l 1,264,-1
 398 300 l 1,265,-1
 403 300 l 1,266,-1
 407 300 l 1,267,-1
 424 304 l 1,268,-1
 433 306 l 1,269,-1
 438 293 l 1,270,-1
 454 317 l 1,271,-1
 461 322 l 1,272,-1
 470 318 l 1,273,-1
 475 341 l 1,274,-1
 479 349 l 2,275,276
 483 356 483 356 483 367 c 2,277,-1
 483 373 l 1,278,-1
 483 378 l 1,279,-1
 483 411 l 1,280,-1
 483 427 l 1,281,-1
 483 443 l 1,0,-1
EndSplineSet
Validated: 37
EndChar

StartChar: h
Encoding: 104 104 75
Width: 790
Flags: W
LayerCount: 2
Fore
SplineSet
29 923 m 1,0,-1
 209 919 l 1,1,-1
 237 899 l 1,2,3
 275 915 275 915 345 915 c 1,4,-1
 345 911 l 2,5,6
 345 883 345 883 317 883 c 1,7,8
 269 865 269 865 269 787 c 1,9,-1
 265 751 l 1,10,-1
 265 671 l 2,11,12
 265 643 265 643 241 643 c 1,13,-1
 213 611 l 1,14,-1
 517 599 l 1,15,-1
 517 779 l 1,16,17
 504 867 504 867 441 867 c 1,18,-1
 437 871 l 1,19,20
 439 911 439 911 445 911 c 0,21,22
 612 911 612 911 681 899 c 1,23,-1
 749 903 l 1,24,-1
 757 903 l 1,25,26
 757 871 757 871 733 871 c 1,27,28
 685 857 685 857 685 799 c 1,29,30
 680 799 680 799 677 763 c 1,31,-1
 685 279 l 1,32,33
 691 243 691 243 725 219 c 1,34,-1
 765 215 l 1,35,-1
 765 183 l 1,36,-1
 677 187 l 1,37,-1
 557 187 l 1,38,-1
 457 183 l 1,39,-1
 457 191 l 1,40,-1
 453 219 l 1,41,42
 521 219 521 219 521 319 c 2,43,-1
 521 327 l 1,44,-1
 517 515 l 1,45,-1
 261 527 l 1,46,47
 272 251 272 251 289 251 c 1,48,49
 308 227 308 227 353 227 c 1,50,-1
 353 195 l 1,51,-1
 225 199 l 1,52,-1
 173 199 l 1,53,-1
 45 195 l 1,54,-1
 45 203 l 1,55,-1
 41 231 l 1,56,57
 109 231 109 231 109 307 c 1,58,-1
 105 607 l 1,59,-1
 105 795 l 1,60,61
 90 879 90 879 25 879 c 1,62,-1
 25 883 l 1,63,-1
 29 923 l 1,0,-1
EndSplineSet
Validated: 1
EndChar

StartChar: i
Encoding: 105 105 76
Width: 390
Flags: W
LayerCount: 2
Fore
SplineSet
42 923 m 1,0,-1
 210 919 l 1,1,-1
 247 897 l 1,2,-1
 269 912 l 1,3,-1
 348 915 l 1,4,-1
 340 886 l 1,5,6
 299 877 299 877 288 858.5 c 128,-1,7
 277 840 277 840 269 772 c 1,8,-1
 269 670 l 1,9,-1
 258 648 l 1,10,-1
 243 648 l 1,11,-1
 213 613 l 1,12,-1
 228 594 l 1,13,-1
 228 576 l 1,14,-1
 254 564 l 1,15,-1
 266 564 l 1,16,-1
 266 541 l 1,17,-1
 277 318 l 1,18,19
 281 270 281 270 314 250 c 1,20,-1
 355 243 l 1,21,-1
 355 213 l 1,22,23
 206 220 206 220 57 213 c 1,24,-1
 53 250 l 1,25,26
 90 255 90 255 101.5 268 c 128,-1,27
 113 281 113 281 117 326 c 1,28,-1
 113 806 l 1,29,30
 98 847 98 847 87 862 c 128,-1,31
 76 877 76 877 35 877 c 1,32,-1
 42 923 l 1,0,-1
EndSplineSet
Validated: 33
EndChar

StartChar: j
Encoding: 106 106 77
Width: 473
Flags: W
LayerCount: 2
Fore
SplineSet
236 657 m 1,0,-1
 236 705 l 1,1,-1
 238 768 l 1,2,-1
 234 819 l 2,3,4
 232 844 232 844 229 850 c 1,5,6
 225 866 225 866 211.5 871.5 c 128,-1,7
 198 877 198 877 165 879 c 0,8,9
 152 879 152 879 148.5 879.5 c 128,-1,10
 145 880 145 880 143 881 c 0,11,12
 141 883 141 883 141 887 c 256,13,14
 141 891 141 891 141 904 c 256,15,16
 141 917 141 917 143.5 920 c 128,-1,17
 146 923 146 923 159 923 c 2,18,-1
 300 921 l 2,19,20
 338 921 338 921 371 921.5 c 128,-1,21
 404 922 404 922 422 923 c 1,22,-1
 438 923 l 2,23,24
 448 923 448 923 448 908 c 2,25,-1
 448 904 l 1,26,-1
 448 894 l 2,27,28
 448 885 448 885 444.5 882.5 c 128,-1,29
 441 880 441 880 428 878 c 0,30,31
 401 874 401 874 388.5 861.5 c 128,-1,32
 376 849 376 849 372 821 c 1,33,-1
 370 673 l 1,34,-1
 356 661 l 1,35,-1
 341 649 l 1,36,-1
 347 625 l 1,37,-1
 335 601 l 1,38,-1
 352 572 l 1,39,-1
 368 542 l 1,40,-1
 365 501 l 1,41,-1
 362 460 l 1,42,43
 365 349 365 349 361.5 313 c 128,-1,44
 358 277 358 277 350.5 252.5 c 128,-1,45
 343 228 343 228 332 205 c 0,46,47
 315 170 315 170 288.5 139.5 c 128,-1,48
 262 109 262 109 231.5 86 c 128,-1,49
 201 63 201 63 168.5 49.5 c 128,-1,50
 136 36 136 36 105 36 c 0,51,52
 68 36 68 36 46.5 50.5 c 128,-1,53
 25 65 25 65 25 73 c 128,-1,54
 25 81 25 81 31.5 92.5 c 128,-1,55
 38 104 38 104 47.5 114 c 128,-1,56
 57 124 57 124 69 130 c 128,-1,57
 81 136 81 136 93 136 c 0,58,59
 100 136 100 136 119 123.5 c 128,-1,60
 138 111 138 111 166 116 c 128,-1,61
 194 121 194 121 207.5 135.5 c 128,-1,62
 221 150 221 150 227 178 c 1,63,64
 229 195 229 195 231 216.5 c 128,-1,65
 233 238 233 238 235 321 c 1,66,-1
 242 464 l 1,67,-1
 236 583 l 1,68,-1
 236 657 l 1,0,-1
EndSplineSet
Validated: 33
EndChar

StartChar: k
Encoding: 107 107 78
Width: 748
Flags: W
LayerCount: 2
Fore
SplineSet
248 523 m 1,0,1
 248 485 248 485 248 441 c 0,2,3
 248 398 248 398 249 351 c 0,4,5
 249 323 249 323 251 306 c 128,-1,6
 253 289 253 289 259 279.5 c 128,-1,7
 265 270 265 270 276 266 c 128,-1,8
 287 262 287 262 305 261 c 0,9,10
 324 260 324 260 326.5 258 c 128,-1,11
 329 256 329 256 338 241 c 1,12,13
 329 226 329 226 328 222 c 128,-1,14
 327 218 327 218 320 218 c 0,15,16
 211 222 211 222 43 218 c 1,17,-1
 37 218 l 2,18,19
 29 218 29 218 27 221.5 c 128,-1,20
 25 225 25 225 25 243 c 0,21,22
 25 255 25 255 27 257.5 c 128,-1,23
 29 260 29 260 37 263 c 1,24,25
 56 265 56 265 68.5 270.5 c 128,-1,26
 81 276 81 276 93 287 c 128,-1,27
 105 298 105 298 108 316 c 128,-1,28
 111 334 111 334 111 362 c 2,29,-1
 111 386 l 1,30,31
 135 383 135 383 130 441 c 1,32,-1
 123 462 l 1,33,-1
 142 492 l 1,34,-1
 133 510 l 1,35,-1
 113 536 l 1,36,-1
 113 770 l 1,37,-1
 110 832 l 1,38,-1
 99 864 l 1,39,-1
 77 875 l 1,40,-1
 57 877 l 1,41,-1
 41 880 l 1,42,-1
 40 881 l 1,43,-1
 38 884 l 1,44,-1
 38 902 l 1,45,-1
 38 916 l 1,46,-1
 44 922 l 1,47,-1
 56 922 l 1,48,-1
 70 922 l 1,49,-1
 79 921 l 1,50,-1
 109 921 l 1,51,-1
 140 921 l 1,52,-1
 194 920 l 1,53,-1
 213 920 l 1,54,-1
 226 920 l 1,55,-1
 239 920 l 1,56,-1
 251 920 l 1,57,-1
 262 920 l 1,58,-1
 287 921 l 1,59,-1
 304 922 l 1,60,-1
 316 922 l 1,61,-1
 328 922 l 1,62,-1
 328 908 l 1,63,-1
 328 886 l 1,64,-1
 322 877 l 1,65,-1
 305 875 l 1,66,-1
 278 872 l 1,67,-1
 255 850 l 1,68,-1
 253 823 l 1,69,-1
 250 803 l 1,70,-1
 247 693 l 1,71,-1
 247 624 l 1,72,73
 260 592 260 592 317 625 c 1,74,-1
 330 638 l 1,75,-1
 348 657 l 1,76,-1
 388 700 l 1,77,-1
 426 742 l 1,78,-1
 436 755 l 1,79,-1
 447 767 l 1,80,-1
 472 797 l 1,81,-1
 489 823 l 1,82,-1
 489 834 l 1,83,-1
 489 854 l 1,84,-1
 441 853 l 1,85,-1
 428 853 l 1,86,-1
 421 861 l 1,87,-1
 421 874 l 1,88,-1
 421 891 l 1,89,-1
 426 899 l 1,90,-1
 433 899 l 1,91,-1
 438 899 l 1,92,-1
 465 897 l 1,93,-1
 520 896 l 1,94,-1
 566 896 l 1,95,-1
 583 896 l 1,96,-1
 595 896 l 1,97,-1
 606 896 l 1,98,99
 627 897 627 897 638 897.5 c 128,-1,100
 649 898 649 898 667 899 c 1,101,-1
 678 899 l 2,102,103
 685 899 685 899 687.5 895 c 128,-1,104
 690 891 690 891 690 877 c 0,105,106
 690 862 690 862 687 859 c 128,-1,107
 684 856 684 856 666 851 c 1,108,109
 653 846 653 846 643 842.5 c 128,-1,110
 633 839 633 839 609 823 c 1,111,-1
 578 797 l 1,112,-1
 527 750 l 1,113,-1
 474 703 l 1,114,-1
 431 637 l 1,115,-1
 470 579 l 1,116,-1
 508 521 l 1,117,-1
 534 481 l 1,118,-1
 560 441 l 1,119,-1
 585 400 l 1,120,-1
 611 360 l 1,121,-1
 652 313 l 1,122,-1
 692 266 l 1,123,-1
 733 218 l 2,124,125
 773 171 773 171 795 161 c 2,126,-1
 817 150 l 1,127,-1
 838 140 l 2,128,129
 860 129 860 129 882 129 c 2,130,-1
 903 129 l 1,131,-1
 925 129 l 2,132,133
 946 129 946 129 956 132 c 1,134,-1
 965 136 l 1,135,-1
 975 139 l 1,136,-1
 984 142 l 1,137,-1
 995 136 l 1,138,-1
 1006 130 l 1,139,-1
 1016 124 l 2,140,141
 1027 118 1027 118 1017 109 c 2,142,-1
 1008 101 l 1,143,-1
 998 92 l 1,144,-1
 988 83 l 1,145,-1
 972 78 l 1,146,-1
 955 73 l 1,147,-1
 939 67 l 1,148,149
 922 62 922 62 887 61 c 1,150,-1
 852 61 l 1,151,-1
 816 60 l 2,152,153
 781 59 781 59 764 67 c 2,154,-1
 747 76 l 1,155,-1
 730 84 l 2,156,157
 713 92 713 92 689 109 c 2,158,-1
 664 126 l 1,159,-1
 640 143 l 2,160,161
 615 160 615 160 582 198 c 2,162,-1
 549 236 l 1,163,-1
 516 273 l 1,164,-1
 483 311 l 1,165,-1
 471 329 l 1,166,-1
 459 348 l 1,167,-1
 446 366 l 1,168,-1
 434 384 l 1,169,-1
 423 402 l 1,170,-1
 411 420 l 1,171,-1
 400 437 l 2,172,173
 388 455 388 455 373 477 c 128,-1,174
 358 499 358 499 349 528 c 1,175,-1
 345 549 l 1,176,-1
 334 548 l 1,177,178
 323 555 323 555 320 560 c 1,179,-1
 248 523 l 1,0,1
EndSplineSet
Validated: 33
EndChar

StartChar: l
Encoding: 108 108 79
Width: 690
Flags: W
LayerCount: 2
Fore
SplineSet
37 895 m 2,0,1
 37 910 37 910 40 913.5 c 128,-1,2
 43 917 43 917 58 917 c 0,3,4
 61 917 61 917 70 917 c 1,5,6
 159 897 159 897 242 906 c 128,-1,7
 325 915 325 915 344 917 c 1,8,-1
 357 917 l 2,9,10
 370 917 370 917 370 902 c 0,11,12
 370 880 370 880 366 876 c 128,-1,13
 362 872 362 872 345 871 c 0,14,15
 313 868 313 868 297.5 858.5 c 128,-1,16
 282 849 282 849 277 823 c 0,17,18
 275 810 275 810 273 760.5 c 128,-1,19
 271 711 271 711 271 616 c 0,20,21
 271 503 271 503 272 437.5 c 128,-1,22
 273 372 273 372 274 347 c 0,23,24
 275 325 275 325 277 313 c 128,-1,25
 279 301 279 301 286.5 294.5 c 128,-1,26
 294 288 294 288 307 286.5 c 128,-1,27
 320 285 320 285 343 285 c 0,28,29
 401 285 401 285 445.5 289.5 c 128,-1,30
 490 294 490 294 508 303 c 256,31,32
 526 312 526 312 617 412 c 1,33,34
 621 431 621 431 631 431 c 0,35,36
 665 431 665 431 665 411 c 0,37,38
 665 402 665 402 634 361 c 128,-1,39
 603 320 603 320 598.5 297 c 128,-1,40
 594 274 594 274 589 254 c 0,41,42
 586 241 586 241 584 233 c 128,-1,43
 582 225 582 225 580 222 c 128,-1,44
 578 219 578 219 574 218.5 c 128,-1,45
 570 218 570 218 564 218 c 0,46,47
 561 218 561 218 557 218 c 0,48,49
 554 218 554 218 547 218 c 256,50,51
 540 218 540 218 431 224.5 c 128,-1,52
 322 231 322 231 235 231 c 0,53,54
 190 231 190 231 163.5 225.5 c 128,-1,55
 137 220 137 220 103 219.5 c 128,-1,56
 69 219 69 219 45 218 c 1,57,-1
 39 218 l 2,58,59
 29 218 29 218 27 221 c 128,-1,60
 25 224 25 224 25 242 c 0,61,62
 25 255 25 255 28 258 c 128,-1,63
 31 261 31 261 50 263 c 0,64,65
 72 265 72 265 85 271.5 c 128,-1,66
 98 278 98 278 105.5 292.5 c 128,-1,67
 113 307 113 307 119 357 c 1,68,-1
 120 557 l 1,69,-1
 123 589 l 1,70,-1
 156 586 l 1,71,-1
 160 621 l 1,72,-1
 135 640 l 1,73,-1
 147 671 l 1,74,-1
 123 728 l 1,75,76
 120 819 120 819 115 840.5 c 128,-1,77
 110 862 110 862 98.5 865.5 c 128,-1,78
 87 869 87 869 64 871 c 0,79,80
 45 872 45 872 41 873.5 c 128,-1,81
 37 875 37 875 37 883 c 2,82,-1
 37 895 l 2,0,1
EndSplineSet
Validated: 33
EndChar

StartChar: m
Encoding: 109 109 80
Width: 960
Flags: W
LayerCount: 2
Fore
SplineSet
472 439 m 1,0,-1
 495 509 l 1,1,-1
 527 573 l 1,2,-1
 553 683 l 1,3,-1
 588 787 l 1,4,-1
 598 821 l 1,5,-1
 607 855 l 2,6,7
 614 878 614 878 617 896.5 c 128,-1,8
 620 915 620 915 632 926 c 128,-1,9
 644 937 644 937 650 943.5 c 128,-1,10
 656 950 656 950 668 950 c 0,11,12
 677 950 677 950 696.5 947 c 128,-1,13
 716 944 716 944 761 944 c 256,14,15
 806 944 806 944 819 920.5 c 128,-1,16
 832 897 832 897 824.5 891 c 128,-1,17
 817 885 817 885 811.5 873.5 c 128,-1,18
 806 862 806 862 806 840 c 0,19,20
 806 827 806 827 809 794.5 c 128,-1,21
 812 762 812 762 816.5 720 c 128,-1,22
 821 678 821 678 818 631.5 c 128,-1,23
 815 585 815 585 820.5 539.5 c 128,-1,24
 826 494 826 494 830.5 454.5 c 128,-1,25
 835 415 835 415 837 391 c 0,26,27
 840 347 840 347 848 321 c 128,-1,28
 856 295 856 295 867 281.5 c 128,-1,29
 878 268 878 268 890 263 c 128,-1,30
 902 258 902 258 914 257 c 1,31,32
 935 253 935 253 935 244 c 0,33,34
 935 239 935 239 928.5 235.5 c 128,-1,35
 922 232 922 232 919 222 c 0,36,37
 917 216 917 216 909.5 213.5 c 128,-1,38
 902 211 902 211 896 211 c 0,39,40
 871 211 871 211 842 214.5 c 128,-1,41
 813 218 813 218 775 218 c 0,42,43
 759 218 759 218 738.5 217 c 128,-1,44
 718 216 718 216 697 215 c 128,-1,45
 676 214 676 214 658 212.5 c 128,-1,46
 640 211 640 211 628 211 c 2,47,-1
 624 211 l 2,48,49
 620 211 620 211 617 214 c 1,50,51
 613 216 613 216 613 220 c 2,52,-1
 613 224 l 1,53,-1
 613 227 l 2,54,55
 613 230 613 230 619 236 c 256,56,57
 625 242 625 242 628 247 c 2,58,-1
 631 252 l 1,59,-1
 632 253 l 2,60,61
 632 254 632 254 641 257 c 256,62,63
 650 260 650 260 661 268 c 128,-1,64
 672 276 672 276 681 291.5 c 128,-1,65
 690 307 690 307 690 333 c 0,66,67
 690 375 690 375 691 477 c 1,68,-1
 718 510 l 1,69,-1
 740 543 l 1,70,-1
 710 549 l 1,71,-1
 695 570 l 1,72,-1
 677 589 l 1,73,74
 676 706 676 706 672 768 c 1,75,-1
 670 768 l 1,76,-1
 481 238 l 1,77,-1
 470 238 l 1,78,-1
 459 238 l 1,79,-1
 427 236 l 1,80,-1
 395 234 l 1,81,-1
 377 282 l 1,82,-1
 359 330 l 1,83,-1
 349 391 l 1,84,-1
 320 457 l 1,85,-1
 290 550 l 1,86,-1
 260 642 l 1,87,-1
 229 707 l 1,88,-1
 198 771 l 1,89,-1
 196 771 l 1,90,91
 193 742 193 742 189 704 c 128,-1,92
 185 666 185 666 181.5 623.5 c 128,-1,93
 178 581 178 581 183 538 c 128,-1,94
 188 495 188 495 185 456 c 128,-1,95
 182 417 182 417 180 385.5 c 128,-1,96
 178 354 178 354 178 336 c 0,97,98
 178 294 178 294 221 257 c 1,99,-1
 234 257 l 1,100,-1
 247 257 l 1,101,-1
 257 257 l 1,102,-1
 267 257 l 1,103,-1
 274 254 l 1,104,-1
 280 251 l 1,105,-1
 280 248 l 1,106,-1
 280 244 l 1,107,-1
 280 243 l 1,108,-1
 280 241 l 1,109,-1
 277 236 l 1,110,-1
 273 231 l 1,111,-1
 268 226 l 1,112,-1
 263 220 l 1,113,-1
 258 216 l 1,114,-1
 253 211 l 1,115,-1
 252 211 l 1,116,-1
 250 211 l 1,117,-1
 214 215 l 1,118,-1
 178 218 l 1,119,120
 123 218 123 218 96 214.5 c 128,-1,121
 69 211 69 211 38 211 c 0,122,123
 25 211 25 211 25 221 c 0,124,125
 25 222 25 222 27.5 227.5 c 128,-1,126
 30 233 30 233 33.5 239 c 128,-1,127
 37 245 37 245 40.5 250.5 c 128,-1,128
 44 256 44 256 47 257 c 0,129,130
 61 263 61 263 71.5 273.5 c 128,-1,131
 82 284 82 284 89.5 306.5 c 128,-1,132
 97 329 97 329 102 365.5 c 128,-1,133
 107 402 107 402 113 457 c 1,134,135
 114 636 114 636 124 731 c 128,-1,136
 134 826 134 826 134 851 c 0,137,138
 134 881 134 881 120.5 892 c 128,-1,139
 107 903 107 903 104.5 928 c 128,-1,140
 102 953 102 953 129 950 c 128,-1,141
 156 947 156 947 193 947 c 0,142,143
 221 947 221 947 252.5 950 c 128,-1,144
 284 953 284 953 298 953 c 0,145,146
 305 953 305 953 309 949.5 c 128,-1,147
 313 946 313 946 315.5 937.5 c 128,-1,148
 318 929 318 929 321 914.5 c 128,-1,149
 324 900 324 900 331 877 c 2,150,-1
 346 829 l 1,151,-1
 350 790 l 1,152,-1
 372 744 l 1,153,-1
 387 695 l 1,154,-1
 402 634 l 1,155,-1
 422 585 l 1,156,-1
 442 524 l 1,157,-1
 456 482 l 1,158,-1
 470 439 l 1,159,-1
 471 439 l 1,160,-1
 472 439 l 1,0,-1
EndSplineSet
Validated: 33
EndChar

StartChar: n
Encoding: 110 110 81
Width: 745
Flags: W
LayerCount: 2
Fore
SplineSet
-141 1027 m 1,0,-1
 -110 1045 l 2,1,2
 -80 1062 -80 1062 -39 1068 c 0,3,4
 1 1073 1 1073 56 1063 c 0,5,6
 110 1053 110 1053 161 1021 c 256,7,8
 212 989 212 989 221 964 c 1,9,-1
 247 944 l 1,10,-1
 247 921 l 1,11,-1
 246 898 l 1,12,-1
 282 875 l 1,13,-1
 318 852 l 1,14,-1
 336 829 l 2,15,16
 353 806 353 806 387 732 c 1,17,-1
 438 652 l 1,18,-1
 495 546 l 1,19,-1
 551 440 l 1,20,-1
 556 443 l 1,21,-1
 561 445 l 1,22,-1
 559 620 l 1,23,-1
 557 794 l 1,24,-1
 551 824 l 1,25,26
 544 853 544 853 532 876 c 0,27,28
 519 899 519 899 501 910 c 256,29,30
 483 921 483 921 471 923 c 2,31,-1
 458 925 l 1,32,-1
 458 942 l 1,33,-1
 458 958 l 1,34,-1
 464 963 l 1,35,-1
 470 968 l 1,36,-1
 518 966 l 2,37,38
 565 964 565 964 636 964 c 2,39,-1
 706 964 l 1,40,-1
 719 949 l 1,41,-1
 731 934 l 1,42,-1
 724 923 l 1,43,-1
 716 911 l 1,44,-1
 695 918 l 2,45,46
 674 925 674 925 659 896 c 0,47,48
 643 867 643 867 643 838 c 2,49,-1
 643 808 l 1,50,-1
 637 547 l 1,51,-1
 631 285 l 1,52,-1
 637 256 l 2,53,54
 643 226 643 226 675 178 c 0,55,56
 706 130 706 130 733 108 c 1,57,58
 759 85 759 85 804 85 c 0,59,60
 848 85 848 85 872 106 c 2,61,-1
 896 127 l 1,62,-1
 889 92 l 2,63,64
 882 56 882 56 865 32 c 0,65,66
 848 7 848 7 807 6 c 0,67,68
 766 4 766 4 720 12 c 0,69,70
 674 19 674 19 627 52 c 0,71,72
 579 85 579 85 542 129 c 256,73,74
 505 173 505 173 494 195 c 2,75,-1
 483 216 l 1,76,-1
 487 233 l 1,77,-1
 497 241 l 1,78,-1
 504 258 l 1,79,-1
 498 265 l 1,80,-1
 500 272 l 1,81,-1
 501 279 l 1,82,-1
 503 284 l 1,83,-1
 505 288 l 1,84,-1
 505 297 l 1,85,-1
 505 305 l 1,86,-1
 494 312 l 1,87,-1
 483 318 l 1,88,-1
 478 318 l 1,89,-1
 473 318 l 1,90,-1
 468 318 l 1,91,-1
 463 318 l 1,92,-1
 465 312 l 1,93,-1
 466 305 l 1,94,-1
 466 301 l 1,95,-1
 466 297 l 1,96,-1
 465 291 l 1,97,-1
 463 285 l 1,98,-1
 459 282 l 1,99,-1
 455 279 l 1,100,-1
 449 274 l 1,101,-1
 442 268 l 1,102,-1
 396 364 l 2,103,104
 350 459 350 459 311 527 c 2,105,-1
 272 594 l 1,106,-1
 247 636 l 1,107,-1
 223 677 l 1,108,-1
 198 719 l 1,109,-1
 173 760 l 1,110,-1
 179 550 l 1,111,-1
 181 444 l 1,112,-1
 184 339 l 1,113,-1
 188 326 l 1,114,-1
 191 313 l 2,115,116
 198 286 198 286 218 275 c 1,117,118
 237 263 237 263 253 262 c 2,119,-1
 269 260 l 1,120,-1
 266 241 l 1,121,-1
 262 222 l 1,122,-1
 209 224 l 2,123,124
 156 226 156 226 89 222 c 2,125,-1
 21 218 l 1,126,-1
 21 230 l 1,127,-1
 21 242 l 1,128,-1
 35 249 l 2,129,130
 49 256 49 256 60 268 c 0,131,132
 70 279 70 279 80 285 c 0,133,134
 89 291 89 291 86 313 c 1,135,-1
 82 334 l 1,136,-1
 83 474 l 1,137,-1
 84 615 l 1,138,-1
 84 755 l 1,139,-1
 85 895 l 1,140,-1
 76 907 l 2,141,142
 67 918 67 918 46 943 c 256,143,144
 25 968 25 968 8 986 c 1,145,146
 -10 1003 -10 1003 -29 1013 c 0,147,148
 -49 1023 -49 1023 -66 1022 c 0,149,150
 -84 1020 -84 1020 -96 1010 c 256,151,152
 -108 1000 -108 1000 -109 997 c 2,153,-1
 -111 994 l 1,154,-1
 -126 1011 l 1,155,-1
 -141 1027 l 1,0,-1
EndSplineSet
Validated: 33
EndChar

StartChar: o
Encoding: 111 111 82
Width: 753
Flags: W
LayerCount: 2
Fore
SplineSet
395 927 m 6,0,-1
 399 927 l 6,1,2
 613 927 613 927 665 770 c 5,3,-1
 702 717 l 5,4,5
 728 635 728 635 728 573 c 6,6,-1
 728 515 l 5,7,8
 704 366 704 366 638 293 c 5,9,-1
 547 235 l 5,10,11
 466 196 466 196 388 196 c 4,12,13
 159 196 159 196 62 371 c 5,14,15
 25 453 25 453 25 490 c 5,16,-1
 49 501 l 5,17,-1
 64 538 l 5,18,-1
 75 563 l 5,19,-1
 62 598 l 5,20,-1
 25 585 l 5,21,22
 25 820 25 820 277 911 c 5,23,24
 332 927 332 927 395 927 c 6,0,-1
317 779 m 6,25,-1
 317 740 l 5,26,-1
 328 725 l 5,27,28
 328 717 328 717 317 717 c 5,29,30
 254 737 254 737 254 783 c 6,31,-1
 254 791 l 6,32,33
 254 812 254 812 266 834 c 5,34,-1
 262 834 l 5,35,36
 173 757 173 757 173 600 c 6,37,-1
 173 577 l 6,38,39
 173 338 173 338 336 266 c 5,40,-1
 388 258 l 5,41,42
 517 258 517 258 565 414 c 5,43,-1
 580 530 l 5,44,45
 580 713 580 713 476 818 c 5,46,47
 422 861 422 861 388 861 c 6,48,-1
 377 861 l 5,49,50
 317 826 317 826 317 779 c 6,25,-1
EndSplineSet
Validated: 1
EndChar

StartChar: p
Encoding: 112 112 83
Width: 646
Flags: W
LayerCount: 2
Fore
SplineSet
263 643 m 1,0,-1
 263 638 l 2,1,2
 263 632 263 632 270 624 c 0,3,4
 277 615 277 615 288 609 c 256,5,6
 299 603 299 603 313 600 c 0,7,8
 326 597 326 597 333 597 c 2,9,-1
 340 597 l 1,10,-1
 374 597 l 2,11,12
 408 597 408 597 440 635 c 0,13,14
 471 672 471 672 471 704 c 2,15,-1
 471 735 l 1,16,-1
 471 749 l 2,17,18
 471 762 471 762 462 784 c 1,19,20
 452 805 452 805 446 826 c 1,21,22
 421 835 421 835 400 843 c 256,23,24
 379 851 379 851 373 860 c 1,25,-1
 355 851 l 1,26,-1
 342 851 l 2,27,28
 328 851 328 851 306 850 c 0,29,30
 284 848 284 848 274 846 c 2,31,-1
 263 843 l 1,32,-1
 263 743 l 1,33,-1
 263 643 l 1,0,-1
113 784 m 1,34,-1
 113 811 l 2,35,36
 113 837 113 837 96 860 c 256,37,38
 79 883 79 883 68 884 c 2,39,-1
 57 885 l 1,40,-1
 50 886 l 2,41,42
 43 887 43 887 34 888 c 0,43,44
 25 888 25 888 25 893 c 2,45,-1
 25 897 l 1,46,-1
 25 899 l 2,47,48
 25 901 25 901 30 907 c 0,49,50
 34 912 34 912 40 917 c 0,51,52
 45 922 45 922 50 926 c 0,53,54
 55 929 55 929 56 929 c 2,55,-1
 57 929 l 1,56,-1
 59 929 l 2,57,58
 60 929 60 929 65 928 c 0,59,60
 69 927 69 927 81 926 c 0,61,62
 92 925 92 925 104 918 c 1,63,64
 134 923 134 923 153 923 c 2,65,-1
 171 923 l 1,66,-1
 189 923 l 1,67,-1
 206 923 l 1,68,-1
 237 925 l 1,69,-1
 268 927 l 1,70,-1
 298 929 l 2,71,72
 327 931 327 931 356 933 c 256,73,74
 385 935 385 935 401 935 c 2,75,-1
 417 935 l 1,76,-1
 468 935 l 2,77,78
 518 935 518 935 531 923 c 2,79,-1
 544 911 l 1,80,-1
 551 900 l 1,81,-1
 557 888 l 1,82,-1
 552 877 l 1,83,-1
 546 865 l 1,84,-1
 558 858 l 1,85,-1
 570 850 l 1,86,-1
 583 856 l 1,87,-1
 595 862 l 1,88,-1
 608 850 l 2,89,90
 621 837 621 837 621 795 c 2,91,-1
 621 753 l 1,92,-1
 621 731 l 2,93,94
 621 709 621 709 598 668 c 256,95,96
 575 627 575 627 539 596 c 0,97,98
 502 564 502 564 457 545 c 0,99,100
 411 525 411 525 389 525 c 2,101,-1
 366 525 l 1,102,-1
 349 525 l 2,103,104
 331 525 331 525 307 542 c 0,105,106
 283 558 283 558 273 566 c 2,107,-1
 263 573 l 1,108,-1
 263 470 l 1,109,-1
 263 367 l 1,110,-1
 263 334 l 2,111,112
 263 301 263 301 284 275 c 256,113,114
 305 249 305 249 326 249 c 2,115,-1
 346 249 l 1,116,-1
 354 249 l 2,117,118
 361 249 361 249 366 245 c 0,119,120
 370 241 370 241 370 238 c 2,121,-1
 370 235 l 1,122,-1
 370 232 l 2,123,124
 370 229 370 229 366 226 c 0,125,126
 362 222 362 222 360 219 c 2,127,-1
 358 216 l 1,128,-1
 356 214 l 2,129,130
 354 211 354 211 350 208 c 0,131,132
 345 205 345 205 337 205 c 2,133,-1
 328 205 l 1,134,-1
 315 205 l 2,135,136
 302 205 302 205 270 208 c 256,137,138
 238 211 238 211 217 211 c 2,139,-1
 195 211 l 1,140,-1
 178 211 l 2,141,142
 161 211 161 211 138 210 c 0,143,144
 114 209 114 209 98 208 c 256,145,146
 82 207 82 207 73 206 c 256,147,148
 64 205 64 205 62 205 c 2,149,-1
 60 205 l 1,150,-1
 55 205 l 2,151,152
 49 205 49 205 45 207 c 256,153,154
 41 209 41 209 41 212 c 2,155,-1
 41 214 l 1,156,-1
 41 218 l 2,157,158
 41 221 41 221 48 234 c 256,159,160
 55 247 55 247 61 248 c 2,161,-1
 66 249 l 1,162,-1
 75 251 l 2,163,164
 84 253 84 253 99 274 c 0,165,166
 113 295 113 295 113 313 c 2,167,-1
 113 331 l 1,168,-1
 136 339 l 1,169,-1
 149 343 l 1,170,-1
 145 361 l 1,171,-1
 131 375 l 1,172,-1
 131 389 l 1,173,-1
 130 403 l 1,174,-1
 122 416 l 1,175,-1
 113 428 l 1,176,-1
 113 606 l 1,177,-1
 113 784 l 1,34,-1
EndSplineSet
Validated: 1
EndChar

StartChar: q
Encoding: 113 113 84
Width: 763
Flags: W
LayerCount: 2
Fore
SplineSet
396 935 m 0,0,1
 634 935 634 935 720 683 c 1,2,-1
 732 583 l 1,3,-1
 732 568 l 2,4,5
 732 402 732 402 613 281 c 1,6,-1
 590 278 l 1,7,8
 566 239 566 239 526 224 c 1,9,-1
 526 220 l 1,10,11
 634 52 634 52 732 52 c 2,12,-1
 736 52 l 1,13,-1
 812 63 l 1,14,15
 852 29 852 29 816 2 c 1,16,17
 761 -17 761 -17 720 -17 c 2,18,-1
 694 -17 l 2,19,20
 555 -17 555 -17 461 90 c 1,21,22
 452 90 452 90 389 187 c 1,23,-1
 350 193 l 1,24,25
 133 193 133 193 44 415 c 1,26,27
 25 490 25 490 49 550 c 1,28,-1
 25 576 l 1,29,30
 25 824 25 824 273 916 c 1,31,32
 331 935 331 935 396 935 c 0,0,1
396 862 m 1,33,34
 350 828 350 828 333 801 c 1,35,-1
 350 751 l 1,36,-1
 361 736 l 1,37,38
 361 729 361 729 350 729 c 1,39,40
 285 750 285 750 285 794 c 1,41,-1
 292 839 l 1,42,43
 185 773 185 773 174 637 c 1,44,-1
 185 568 l 1,45,46
 185 356 185 356 350 274 c 1,47,-1
 407 266 l 1,48,49
 537 266 537 266 587 407 c 1,50,51
 606 468 606 468 606 534 c 0,52,53
 606 780 606 780 434 855 c 1,54,-1
 396 862 l 1,33,34
EndSplineSet
Validated: 33
EndChar

StartChar: r
Encoding: 114 114 85
Width: 734
Flags: W
LayerCount: 2
Fore
SplineSet
329 916 m 1,1,2
 456 912 456 912 506 898.5 c 128,-1,3
 556 885 556 885 579 866 c 2,4,-1
 602 847 l 1,5,-1
 625 827 l 2,6,7
 648 808 648 808 656 788 c 2,8,-1
 664 769 l 1,9,-1
 672 749 l 2,10,11
 680 729 680 729 674 707 c 2,12,-1
 669 685 l 1,13,-1
 663 663 l 2,14,15
 657 641 657 641 643 620 c 2,16,-1
 629 599 l 1,17,-1
 614 578 l 2,18,19
 600 557 600 557 585 549 c 2,20,-1
 570 542 l 1,21,-1
 555 534 l 1,22,-1
 540 526 l 1,23,-1
 540 522 l 1,24,-1
 540 519 l 1,25,-1
 540 511 l 1,26,-1
 558 500 l 2,27,28
 576 488 576 488 632 444 c 256,29,30
 688 400 688 400 725 351 c 1,31,32
 761 301 761 301 817 240 c 0,33,34
 872 179 872 179 922 156 c 256,35,36
 972 133 972 133 1010 133 c 256,37,38
 1048 133 1048 133 1073 140 c 2,39,-1
 1097 146 l 1,40,-1
 1134 158 l 2,41,42
 1171 170 1171 170 1174 155 c 1,43,-1
 1176 139 l 1,44,-1
 1177 124 l 2,45,46
 1178 108 1178 108 1157 105 c 2,47,-1
 1135 102 l 1,48,-1
 1126 98 l 2,49,50
 1117 93 1117 93 1069 83 c 0,51,52
 1020 73 1020 73 952 77 c 0,53,54
 884 80 884 80 840 94 c 0,55,56
 796 107 796 107 692 183 c 256,57,58
 588 259 588 259 530 324 c 256,59,60
 472 389 472 389 418 447 c 0,61,62
 364 504 364 504 335 529 c 1,63,-1
 305 553 l 1,64,-1
 305 592 l 1,65,-1
 408 583 l 1,66,67
 452 587 452 587 468 602.5 c 128,-1,68
 484 618 484 618 492 662 c 128,-1,69
 500 706 500 706 490.5 761.5 c 128,-1,70
 481 817 481 817 446.5 839.5 c 128,-1,71
 412 862 412 862 352 866 c 1,72,73
 273 859 273 859 257 804 c 1,74,-1
 261 329 l 1,75,76
 276 279 276 279 298 267.5 c 128,-1,77
 320 256 320 256 356 241 c 1,78,-1
 356 210 l 1,79,-1
 28 203 l 1,80,-1
 25 256 l 1,81,82
 65 256 65 256 76.5 275 c 128,-1,83
 88 294 88 294 94 315 c 128,-1,84
 100 336 100 336 100 607 c 1,85,-1
 130 619 l 1,86,-1
 97 649 l 1,87,-1
 93 717 l 1,88,-1
 88 786 l 1,89,90
 85 847 85 847 28 866 c 1,91,-1
 37 923 l 1,92,0
 204 908 204 908 329 916 c 1,1,2
EndSplineSet
Validated: 33
EndChar

StartChar: s
Encoding: 115 115 86
Width: 706
Flags: W
LayerCount: 2
Fore
SplineSet
580 971 m 1,0,1
 591 871 591 871 640 751 c 1,2,-1
 584 748 l 1,3,4
 565 796 565 796 511 829.5 c 128,-1,5
 457 863 457 863 405 878 c 128,-1,6
 353 893 353 893 304.5 883.5 c 128,-1,7
 256 874 256 874 231.5 839 c 128,-1,8
 207 804 207 804 229.5 770.5 c 128,-1,9
 252 737 252 737 313.5 701.5 c 128,-1,10
 375 666 375 666 459 632.5 c 128,-1,11
 543 599 543 599 595 541 c 128,-1,12
 647 483 647 483 664 418 c 128,-1,13
 681 353 681 353 663.5 304 c 128,-1,14
 646 255 646 255 600 210.5 c 128,-1,15
 554 166 554 166 483 136.5 c 128,-1,16
 412 107 412 107 347 103 c 128,-1,17
 282 99 282 99 231.5 108.5 c 128,-1,18
 181 118 181 118 121.5 159 c 128,-1,19
 62 200 62 200 43.5 241 c 128,-1,20
 25 282 25 282 41.5 325 c 128,-1,21
 58 368 58 368 97 399.5 c 128,-1,22
 136 431 136 431 173.5 440.5 c 128,-1,23
 211 450 211 450 249 446 c 1,24,25
 245 394 245 394 243 350 c 1,26,27
 199 361 199 361 167.5 353 c 128,-1,28
 136 345 136 345 124.5 308 c 128,-1,29
 113 271 113 271 136 231.5 c 128,-1,30
 159 192 159 192 198 177.5 c 128,-1,31
 237 163 237 163 287.5 157 c 128,-1,32
 338 151 338 151 386.5 162.5 c 128,-1,33
 435 174 435 174 476 209.5 c 128,-1,34
 517 245 517 245 528 285.5 c 128,-1,35
 539 326 539 326 522 373 c 128,-1,36
 505 420 505 420 469 439 c 1,37,-1
 452 467 l 1,38,-1
 451 494 l 1,39,-1
 433 523 l 1,40,41
 401 504 401 504 411 479 c 1,42,-1
 360 494 l 1,43,44
 207 554 207 554 157 593 c 128,-1,45
 107 632 107 632 86.5 673 c 128,-1,46
 66 714 66 714 79 762.5 c 128,-1,47
 92 811 92 811 119 850 c 128,-1,48
 146 889 146 889 186 915.5 c 128,-1,49
 226 942 226 942 261.5 949 c 128,-1,50
 297 956 297 956 354.5 956 c 128,-1,51
 412 956 412 956 453 952.5 c 128,-1,52
 494 949 494 949 580 971 c 1,0,1
EndSplineSet
Validated: 33
EndChar

StartChar: t
Encoding: 116 116 87
Width: 719
Flags: W
LayerCount: 2
Fore
SplineSet
47 928 m 1,0,-1
 178 915 l 1,1,-1
 343 921 l 1,2,-1
 503 925 l 1,3,-1
 576 909 l 1,4,-1
 662 928 l 1,5,6
 655 867 655 867 658.5 832.5 c 128,-1,7
 662 798 662 798 670 769.5 c 128,-1,8
 678 741 678 741 694 718 c 1,9,-1
 649 684 l 1,10,11
 619 731 619 731 597.5 765.5 c 128,-1,12
 576 800 576 800 548.5 815 c 128,-1,13
 521 830 521 830 491 847 c 128,-1,14
 461 864 461 864 455 874 c 1,15,-1
 431 880 l 1,16,-1
 428 880 l 1,17,-1
 425 877 l 1,18,-1
 425 874 l 1,19,-1
 428 747 l 1,20,-1
 428 734 l 1,21,-1
 425 727 l 1,22,-1
 428 704 l 1,23,-1
 425 704 l 1,24,-1
 425 693 l 1,25,-1
 431 684 l 1,26,-1
 431 590 l 1,27,-1
 419 531 l 1,28,-1
 415 521 l 1,29,-1
 402 513 l 1,30,-1
 402 500 l 1,31,-1
 409 494 l 1,32,-1
 419 487 l 1,33,-1
 422 487 l 1,34,-1
 425 477 l 1,35,-1
 428 458 l 1,36,-1
 409 440 l 1,37,-1
 412 433 l 1,38,39
 412 433 412 433 412 433 c 1,40,-1
 412 433 l 1,41,-1
 412 433 l 1,42,-1
 412 430 l 1,43,44
 406 410 406 410 406 408.5 c 128,-1,45
 406 407 406 407 412 391 c 1,46,-1
 415 387 l 1,47,-1
 438 360 l 1,48,-1
 425 343 l 1,49,50
 431 284 431 284 449.5 268.5 c 128,-1,51
 468 253 468 253 477.5 251 c 128,-1,52
 487 249 487 249 537 243 c 1,53,-1
 537 207 l 1,54,55
 359 207 359 207 331 207 c 128,-1,56
 303 207 303 207 293.5 207 c 128,-1,57
 284 207 284 207 175 207 c 1,58,-1
 175 243 l 1,59,60
 208 243 208 243 228 250 c 128,-1,61
 248 257 248 257 256 273.5 c 128,-1,62
 264 290 264 290 261 330 c 1,63,-1
 267 460 l 1,64,-1
 267 534 l 1,65,-1
 271 604 l 1,66,-1
 267 614 l 1,67,-1
 267 624 l 1,68,-1
 274 633 l 1,69,-1
 254 667 l 1,70,-1
 264 704 l 1,71,-1
 258 750 l 1,72,-1
 261 861 l 1,73,-1
 218 861 l 2,74,75
 179 861 179 861 156 852 c 128,-1,76
 133 843 133 843 113 818.5 c 128,-1,77
 93 794 93 794 75 764 c 128,-1,78
 57 734 57 734 37 687 c 1,79,-1
 8 710 l 1,80,81
 37 814 37 814 47 928 c 1,0,-1
EndSplineSet
Validated: 37
EndChar

StartChar: u
Encoding: 117 117 88
Width: 771
Flags: W
LayerCount: 2
Fore
SplineSet
257 477 m 2,0,1
 257 398 257 398 298.5 349.5 c 128,-1,2
 340 301 340 301 417 301 c 0,3,4
 486 301 486 301 534 350 c 128,-1,5
 582 399 582 399 582 505 c 2,6,-1
 582 737 l 2,7,8
 582 778 582 778 577.5 804.5 c 128,-1,9
 573 831 573 831 563 846.5 c 128,-1,10
 553 862 553 862 536.5 869.5 c 128,-1,11
 520 877 520 877 495 880 c 0,12,13
 484 882 484 882 480 882.5 c 128,-1,14
 476 883 476 883 476 888 c 0,15,16
 476 895 476 895 479.5 899 c 128,-1,17
 483 903 483 903 489 908 c 1,18,19
 495 915 495 915 498.5 919 c 128,-1,20
 502 923 502 923 509 923 c 1,21,22
 555 903 555 903 645 917 c 1,23,24
 667 917 667 917 681.5 918 c 128,-1,25
 696 919 696 919 705.5 920 c 128,-1,26
 715 921 715 921 720 922 c 128,-1,27
 725 923 725 923 728 923 c 0,28,29
 734 923 734 923 740 920.5 c 128,-1,30
 746 918 746 918 746 911 c 0,31,32
 746 909 746 909 743 904.5 c 128,-1,33
 740 900 740 900 736.5 895 c 128,-1,34
 733 890 733 890 728.5 885.5 c 128,-1,35
 724 881 724 881 721 880 c 0,36,37
 708 876 708 876 697.5 868 c 128,-1,38
 687 860 687 860 680 844.5 c 128,-1,39
 673 829 673 829 669.5 804.5 c 128,-1,40
 666 780 666 780 666 742 c 1,41,-1
 654 492 l 1,42,43
 666 432 666 432 649.5 379.5 c 128,-1,44
 633 327 633 327 597.5 289 c 128,-1,45
 562 251 562 251 505 229 c 128,-1,46
 448 207 448 207 367 207 c 0,47,48
 317 207 317 207 275 233.5 c 128,-1,49
 233 260 233 260 195 276 c 128,-1,50
 157 292 157 292 136 331.5 c 128,-1,51
 115 371 115 371 115 420 c 1,52,-1
 125 471 l 1,53,-1
 115 761 l 1,54,55
 115 819 115 819 101.5 847.5 c 128,-1,56
 88 876 88 876 51 880 c 0,57,58
 36 882 36 882 30.5 883 c 128,-1,59
 25 884 25 884 25 892 c 0,60,61
 25 894 25 894 28.5 899.5 c 128,-1,62
 32 905 32 905 36.5 910.5 c 128,-1,63
 41 916 41 916 46.5 919.5 c 128,-1,64
 52 923 52 923 57 923 c 0,65,66
 64 923 64 923 84.5 920 c 128,-1,67
 105 917 105 917 155 917 c 1,68,-1
 225 908 l 1,69,70
 250 919 250 919 268.5 920 c 128,-1,71
 287 921 287 921 298 922 c 128,-1,72
 309 923 309 923 317 923 c 0,73,74
 329 923 329 923 333.5 920 c 128,-1,75
 338 917 338 917 338 912 c 0,76,77
 338 910 338 910 335.5 905.5 c 128,-1,78
 333 901 333 901 329 895.5 c 128,-1,79
 325 890 325 890 321 885.5 c 128,-1,80
 317 881 317 881 315 880 c 0,81,82
 296 873 296 873 284.5 865 c 128,-1,83
 273 857 273 857 267 845.5 c 128,-1,84
 261 834 261 834 259 815.5 c 128,-1,85
 257 797 257 797 257 768 c 2,86,-1
 257 695 l 1,87,-1
 217 702 l 1,88,-1
 234 679 l 1,89,-1
 214 642 l 1,90,-1
 230 614 l 1,91,-1
 257 623 l 1,92,-1
 257 477 l 2,0,1
EndSplineSet
Validated: 33
EndChar

StartChar: v
Encoding: 118 118 89
Width: 808
Flags: W
LayerCount: 2
Fore
SplineSet
35 923 m 2,0,-1
 177 910 l 1,1,-1
 193 900 l 1,2,-1
 209 906 l 1,3,-1
 230 897 l 1,4,-1
 299 921 l 1,5,-1
 309 923 l 1,6,-1
 309 921 l 1,7,-1
 311 923 l 1,8,-1
 336 923 l 2,9,10
 350 923 350 923 350 898 c 2,11,-1
 350 896 l 2,12,13
 350 878 350 878 331 878 c 1,14,15
 270 874 270 874 270 847 c 256,16,17
 270 820 270 820 399 472 c 1,18,-1
 432 388 l 1,19,20
 436 389 436 389 528 627 c 1,21,22
 605 813 605 813 605 845 c 0,23,24
 605 878 605 878 528 878 c 2,25,-1
 518 878 l 1,26,27
 511 880 511 880 511 890 c 2,28,-1
 511 909 l 2,29,30
 511 921 511 921 524 921 c 1,31,32
 620 912 620 912 777 921 c 1,33,34
 783 919 783 919 783 909 c 2,35,-1
 783 896 l 2,36,37
 783 876 783 876 763 876 c 1,38,39
 737 869 737 869 709 826 c 1,40,41
 536 477 536 477 497.5 390 c 128,-1,42
 459 303 459 303 470 278 c 256,43,44
 481 253 481 253 524 252 c 0,45,46
 538 252 538 252 538 234 c 0,47,48
 538 207 538 207 528 207 c 2,49,-1
 444 209 l 1,50,-1
 442 211 l 1,51,-1
 440 209 l 1,52,-1
 438 211 l 1,53,-1
 436 209 l 1,54,-1
 434 211 l 1,55,-1
 432 209 l 1,56,-1
 430 211 l 1,57,-1
 427 209 l 1,58,-1
 384 220 l 1,59,-1
 371 217 l 1,60,61
 356 217 356 217 352 211 c 1,62,-1
 350 209 l 1,63,-1
 326 231 l 1,64,65
 315 227 315 227 323 220 c 1,66,67
 322 207 322 207 318.5 209 c 128,-1,68
 315 211 315 211 310 214 c 1,69,-1
 278 209 l 1,70,-1
 276 207 l 1,71,-1
 274 207 l 1,72,-1
 274 209 l 1,73,-1
 272 207 l 1,74,-1
 246 207 l 2,75,76
 231 207 231 207 231 232 c 2,77,-1
 231 238 l 2,78,79
 231 252 231 252 256 252 c 0,80,81
 302 252 302 252 311 283 c 1,82,83
 311 309 311 309 233 501 c 1,84,-1
 254 563 l 1,85,-1
 186 626 l 1,86,87
 139 750 139 750 103 826 c 0,88,89
 78 878 78 878 33 878 c 1,90,91
 25 882 25 882 25 902 c 1,92,-1
 27 904 l 1,93,-1
 25 904 l 1,94,95
 28 923 28 923 35 923 c 2,0,-1
EndSplineSet
Validated: 33
EndChar

StartChar: w
Encoding: 119 119 90
Width: 1162
Flags: W
LayerCount: 2
Fore
SplineSet
34 923 m 2,0,-1
 151 914 l 1,1,-1
 310 923 l 2,2,3
 319 923 319 923 322 901 c 1,4,5
 322 879 322 879 305 879 c 1,6,7
 252 875 252 875 252 857 c 1,8,-1
 249 850 l 1,9,-1
 249 844 l 2,10,11
 249 820 249 820 347 532 c 1,12,-1
 384 388 l 1,13,-1
 389 388 l 1,14,15
 494 656 494 656 531 769 c 1,16,-1
 531 771 l 1,17,18
 507 879 507 879 457 879 c 1,19,20
 448 881 448 881 448 891 c 2,21,-1
 448 901 l 2,22,23
 448 923 448 923 457 923 c 1,24,-1
 615 904 l 1,25,-1
 642 921 l 1,26,-1
 700 921 l 1,27,-1
 702 923 l 1,28,-1
 705 923 l 1,29,-1
 705 921 l 1,30,-1
 707 923 l 1,31,-1
 728 923 l 2,32,33
 742 923 742 923 742 911 c 2,34,-1
 742 891 l 2,35,36
 742 879 742 879 721 879 c 1,37,38
 672 874 672 874 672 850 c 2,39,-1
 672 844 l 2,40,41
 672 818 672 818 701 734 c 1,42,-1
 682 683 l 1,43,-1
 735 618 l 1,44,-1
 787 483 l 1,45,-1
 817 388 l 1,46,-1
 822 388 l 1,47,48
 985 805 985 805 985 848 c 0,49,50
 985 879 985 879 910 879 c 2,51,-1
 906 879 l 2,52,53
 901 879 901 879 899 901 c 1,54,-1
 901 919 l 1,55,-1
 913 921 l 1,56,57
 976 930 976 930 1132 921 c 1,58,-1
 1137 917 l 1,59,-1
 1137 885 l 2,60,61
 1137 881 1137 881 1118 877 c 1,62,63
 1092 849 1092 849 1075 800 c 1,64,65
 969 581 969 581 860 317 c 1,66,-1
 862 315 l 1,67,68
 884 256 884 256 924 256 c 1,69,70
 931 254 931 254 931 244 c 2,71,-1
 931 232 l 2,72,73
 931 216 931 216 922 213 c 1,74,-1
 816 218 l 1,75,-1
 776 234 l 1,76,-1
 713 216 l 1,77,-1
 672 213 l 1,78,-1
 651 213 l 2,79,80
 635 213 635 213 635 234 c 1,81,-1
 637 236 l 1,82,-1
 635 238 l 1,83,-1
 637 240 l 1,84,-1
 635 240 l 1,85,86
 635 258 635 258 656 258 c 1,87,88
 707 262 707 262 707 286 c 2,89,-1
 707 293 l 2,90,91
 707 323 707 323 591 666 c 1,92,93
 591 672 591 672 586 672 c 1,94,95
 451 366 451 366 439 329 c 1,96,97
 455 264 455 264 499 264 c 1,98,99
 506 257 506 257 506 250 c 2,100,-1
 506 238 l 2,101,102
 506 222 506 222 499 224 c 1,103,-1
 497 220 l 1,104,105
 320 229 320 229 226 220 c 1,106,107
 210 220 210 220 210 240 c 1,108,-1
 212 242 l 1,109,-1
 210 244 l 1,110,-1
 212 246 l 1,111,-1
 210 246 l 1,112,113
 210 264 210 264 231 264 c 1,114,115
 282 268 282 268 282 293 c 2,116,-1
 282 299 l 2,117,118
 282 329 282 329 282 396 c 1,119,-1
 262 432 l 1,120,-1
 238 449 l 1,121,122
 138 804 138 804 69 867 c 0,123,124
 60 875 60 875 30 881 c 1,125,-1
 25 893 l 1,126,-1
 25 899 l 2,127,128
 25 923 25 923 34 923 c 2,0,-1
EndSplineSet
Validated: 33
EndChar

StartChar: x
Encoding: 120 120 91
Width: 831
Flags: W
LayerCount: 2
Fore
SplineSet
462 213 m 2,0,1
 452 213 452 213 450 217 c 128,-1,2
 448 221 448 221 448 238 c 0,3,4
 448 246 448 246 448.5 250.5 c 128,-1,5
 449 255 449 255 452.5 257.5 c 128,-1,6
 456 260 456 260 463 260.5 c 128,-1,7
 470 261 470 261 482 261 c 0,8,9
 533 262 533 262 533 288 c 0,10,11
 533 292 533 292 531.5 297.5 c 128,-1,12
 530 303 530 303 522 315.5 c 128,-1,13
 514 328 514 328 466.5 399.5 c 128,-1,14
 419 471 419 471 402 494 c 1,15,16
 400 499 400 499 398.5 501 c 128,-1,17
 397 503 397 503 387 516 c 1,18,19
 325 439 325 439 291.5 397 c 128,-1,20
 258 355 258 355 243 334 c 128,-1,21
 228 313 228 313 224.5 305 c 128,-1,22
 221 297 221 297 221 288 c 0,23,24
 221 272 221 272 235 267.5 c 128,-1,25
 249 263 249 263 293 261 c 0,26,27
 303 261 303 261 304.5 258 c 128,-1,28
 306 255 306 255 306 243 c 0,29,30
 306 224 306 224 304.5 219.5 c 128,-1,31
 303 215 303 215 293 215 c 2,32,-1
 273 215 l 2,33,34
 267 215 267 215 244.5 218.5 c 128,-1,35
 222 222 222 222 202 222.5 c 128,-1,36
 182 223 182 223 163 223 c 1,37,-1
 57 216 l 1,38,39
 29 216 29 216 28 218 c 1,40,41
 25 220 25 220 25 239 c 0,42,43
 25 255 25 255 28.5 258.5 c 128,-1,44
 32 262 32 262 51 267 c 0,45,46
 59 270 59 270 68 274 c 128,-1,47
 77 278 77 278 90 288.5 c 128,-1,48
 103 299 103 299 123 319 c 128,-1,49
 143 339 143 339 174 372 c 128,-1,50
 205 405 205 405 248 453 c 128,-1,51
 291 501 291 501 351 569 c 1,52,53
 308 626 308 626 249 748 c 1,54,-1
 245 804 l 1,55,-1
 215 813 l 1,56,-1
 184 825 l 1,57,58
 135 865 135 865 131.5 869 c 128,-1,59
 128 873 128 873 126 875 c 0,60,61
 114 887 114 887 86 891 c 0,62,63
 68 894 68 894 65.5 897.5 c 128,-1,64
 63 901 63 901 63 921 c 0,65,66
 63 935 63 935 65 938 c 128,-1,67
 67 941 67 941 77 941 c 2,68,-1
 285 927 l 1,69,70
 350 939 350 939 367 939.5 c 128,-1,71
 384 940 384 940 389 940 c 2,72,-1
 401 940 l 2,73,74
 409 940 409 940 411.5 935.5 c 128,-1,75
 414 931 414 931 414 917 c 0,76,77
 414 900 414 900 410 897 c 128,-1,78
 406 894 406 894 383 892 c 0,79,80
 338 890 338 890 338 866 c 0,81,82
 338 858 338 858 340 850 c 128,-1,83
 342 842 342 842 366 805 c 1,84,-1
 397 740 l 1,85,-1
 458 672 l 1,86,87
 465 680 465 680 475 692 c 2,88,-1
 493 713 l 1,89,-1
 543 748 l 1,90,-1
 562 771 l 1,91,92
 587 826 587 826 599 844 c 128,-1,93
 611 862 611 862 611 872 c 0,94,95
 611 883 611 883 598.5 887 c 128,-1,96
 586 891 586 891 552 892 c 0,97,98
 542 892 542 892 539.5 898 c 128,-1,99
 537 904 537 904 537 920 c 0,100,101
 537 932 537 932 539.5 935.5 c 128,-1,102
 542 939 542 939 552 939 c 1,103,-1
 600 928 l 1,104,105
 682 938 682 938 712.5 938.5 c 128,-1,106
 743 939 743 939 769 941 c 1,107,-1
 780 941 l 2,108,109
 790 941 790 941 792 937 c 128,-1,110
 794 933 794 933 794 914 c 0,111,112
 794 902 794 902 790.5 899 c 128,-1,113
 787 896 787 896 769 889 c 1,114,115
 759 887 759 887 740.5 873 c 128,-1,116
 722 859 722 859 657 796 c 1,117,-1
 563 695 l 1,118,-1
 496 622 l 1,119,120
 501 614 501 614 580 462 c 1,121,-1
 642 393 l 1,122,123
 674 349 674 349 691 335 c 128,-1,124
 708 321 708 321 728 296 c 0,125,126
 741 280 741 280 754.5 272 c 128,-1,127
 768 264 768 264 790 262 c 0,128,129
 800 261 800 261 803 256.5 c 128,-1,130
 806 252 806 252 806 239 c 0,131,132
 806 223 806 223 804 218.5 c 128,-1,133
 802 214 802 214 792 214 c 2,134,-1
 677 215 l 2,135,136
 619 215 619 215 569.5 214.5 c 128,-1,137
 520 214 520 214 489 213 c 1,138,-1
 462 213 l 2,0,1
EndSplineSet
Validated: 1
EndChar

StartChar: y
Encoding: 121 121 92
Width: 710
Flags: W
LayerCount: 2
Fore
SplineSet
431 335 m 2,0,1
 431 291 431 291 447 274.5 c 128,-1,2
 463 258 463 258 489 256 c 0,3,4
 506 254 506 254 512.5 252 c 128,-1,5
 519 250 519 250 519 243 c 0,6,7
 519 241 519 241 516 236 c 128,-1,8
 513 231 513 231 509 226 c 128,-1,9
 505 221 505 221 500 217 c 128,-1,10
 495 213 495 213 489 213 c 0,11,12
 477 213 477 213 465 214 c 128,-1,13
 453 215 453 215 425 217 c 128,-1,14
 397 219 397 219 377 219 c 0,15,16
 281 215 281 215 263.5 214 c 128,-1,17
 246 213 246 213 234 213 c 0,18,19
 221 213 221 213 221 224 c 0,20,21
 221 229 221 229 227.5 240 c 128,-1,22
 234 251 234 251 244 256 c 0,23,24
 259 263 259 263 268.5 270.5 c 128,-1,25
 278 278 278 278 283.5 295.5 c 128,-1,26
 289 313 289 313 293 439 c 0,27,28
 293 453 293 453 290.5 465.5 c 128,-1,29
 288 478 288 478 282.5 493 c 128,-1,30
 277 508 277 508 198 666 c 1,31,-1
 215 679 l 1,32,-1
 229 683 l 1,33,-1
 234 688 l 1,34,-1
 221 693 l 1,35,-1
 215 698 l 1,36,-1
 220 702 l 1,37,-1
 223 711 l 1,38,-1
 218 726 l 1,39,-1
 206 721 l 1,40,-1
 190 716 l 1,41,-1
 169 719 l 1,42,-1
 152 751 l 1,43,-1
 133 784 l 2,44,45
 114 816 114 816 101.5 835 c 128,-1,46
 89 854 89 854 79.5 864 c 128,-1,47
 70 874 70 874 61.5 877 c 128,-1,48
 53 880 53 880 42 881 c 0,49,50
 32 882 32 882 28.5 885 c 128,-1,51
 25 888 25 888 25 890 c 0,52,53
 25 893 25 893 28 899 c 128,-1,54
 31 905 31 905 36.5 910.5 c 128,-1,55
 42 916 42 916 48.5 920 c 128,-1,56
 55 924 55 924 61 924 c 0,57,58
 72 924 72 924 93 907 c 1,59,-1
 131 915 l 1,60,61
 156 918 156 918 187 918 c 0,62,63
 233 918 233 918 271 921 c 128,-1,64
 309 924 309 924 322 924 c 0,65,66
 333 924 333 924 336 920.5 c 128,-1,67
 339 917 339 917 339 909 c 0,68,69
 339 904 339 904 331.5 896.5 c 128,-1,70
 324 889 324 889 321 881 c 0,71,72
 319 878 319 878 311 876.5 c 128,-1,73
 303 875 303 875 294.5 871 c 128,-1,74
 286 867 286 867 278.5 858.5 c 128,-1,75
 271 850 271 850 271 834 c 0,76,77
 271 824 271 824 275.5 809.5 c 128,-1,78
 280 795 280 795 292.5 766.5 c 128,-1,79
 305 738 305 738 328 691.5 c 128,-1,80
 351 645 351 645 389 570 c 1,81,-1
 425 643 l 1,82,-1
 472 731 l 2,83,84
 500 784 500 784 505 799.5 c 128,-1,85
 510 815 510 815 510 832 c 0,86,87
 510 857 510 857 497 869 c 128,-1,88
 484 881 484 881 450 881 c 0,89,90
 444 881 444 881 438.5 882 c 128,-1,91
 433 883 433 883 433 888 c 0,92,93
 433 890 433 890 437 896 c 128,-1,94
 441 902 441 902 446.5 908.5 c 128,-1,95
 452 915 452 915 457.5 919.5 c 128,-1,96
 463 924 463 924 467 924 c 256,97,98
 471 924 471 924 476.5 923 c 128,-1,99
 482 922 482 922 507 920 c 128,-1,100
 532 918 532 918 557 918 c 0,101,102
 632 920 632 920 646.5 922 c 128,-1,103
 661 924 661 924 667 924 c 0,104,105
 674 924 674 924 679.5 920 c 128,-1,106
 685 916 685 916 685 912 c 0,107,108
 685 907 685 907 677.5 896.5 c 128,-1,109
 670 886 670 886 660 881 c 0,110,111
 643 873 643 873 631.5 864.5 c 128,-1,112
 620 856 620 856 607.5 839 c 128,-1,113
 595 822 595 822 561 760 c 1,114,-1
 509 701 l 1,115,-1
 499 643 l 1,116,117
 458 567 458 567 447.5 544 c 128,-1,118
 437 521 437 521 434 508 c 128,-1,119
 431 495 431 495 431 480 c 2,120,-1
 431 335 l 2,0,1
EndSplineSet
Validated: 1
EndChar

StartChar: z
Encoding: 122 122 93
Width: 622
Flags: W
LayerCount: 2
Fore
SplineSet
579 892 m 2,0,1
 579 886 579 886 576.5 881.5 c 128,-1,2
 574 877 574 877 562 860 c 0,3,4
 536 822 536 822 484 763 c 1,5,-1
 423 682 l 1,6,-1
 408 621 l 1,7,-1
 350 539 l 1,8,-1
 280 420 l 2,9,10
 226 330 226 330 206 295 c 1,11,12
 280 296 280 296 386 282 c 1,13,14
 450 308 450 308 470.5 316 c 128,-1,15
 491 324 491 324 503.5 339 c 128,-1,16
 516 354 516 354 550 430 c 1,17,18
 552 442 552 442 556 445.5 c 128,-1,19
 560 449 560 449 569 449 c 0,20,21
 586 449 586 449 591.5 446.5 c 128,-1,22
 597 444 597 444 597 436 c 0,23,24
 597 429 597 429 586.5 392 c 128,-1,25
 576 355 576 355 572.5 333 c 128,-1,26
 569 311 569 311 565 295 c 1,27,28
 560 255 560 255 564.5 233 c 128,-1,29
 569 211 569 211 566 205.5 c 128,-1,30
 563 200 563 200 560 199 c 128,-1,31
 557 198 557 198 551 198 c 1,32,-1
 516 219 l 1,33,-1
 232 221 l 1,34,-1
 139 237 l 1,35,-1
 92 220 l 1,36,-1
 45 219 l 1,37,-1
 40 219 l 2,38,39
 28 219 28 219 26.5 221 c 128,-1,40
 25 223 25 223 25 236 c 0,41,42
 25 252 25 252 26 256 c 128,-1,43
 27 260 27 260 31 265 c 1,44,-1
 59 321 l 1,45,-1
 135 436 l 1,46,-1
 168 440 l 1,47,-1
 195 463 l 1,48,-1
 202 491 l 1,49,-1
 176 499 l 1,50,51
 396 852 396 852 401 860 c 1,52,53
 334 858 334 858 309.5 858 c 128,-1,54
 285 858 285 858 264 857 c 128,-1,55
 243 856 243 856 214.5 847 c 128,-1,56
 186 838 186 838 144 809 c 128,-1,57
 102 780 102 780 88 740 c 1,58,-1
 88 739 l 1,59,-1
 45 742 l 1,60,61
 68 813 68 813 76 841.5 c 128,-1,62
 84 870 84 870 90 932 c 1,63,64
 158 914 158 914 231 902 c 1,65,66
 334 919 334 919 371 919 c 1,67,-1
 427 913 l 1,68,-1
 476 920 l 1,69,70
 531 921 531 921 550 921 c 2,71,-1
 560 921 l 2,72,73
 573 921 573 921 576 918 c 128,-1,74
 579 915 579 915 579 902 c 2,75,-1
 579 892 l 2,0,1
EndSplineSet
Validated: 33
EndChar

StartChar: aacute
Encoding: 225 225 105
Width: 793
Flags: W
LayerCount: 2
Fore
SplineSet
310 1089 m 1,0,-1
 298 1077 l 1,1,-1
 298 1065 l 2,2,3
 298 1061 298 1061 302 1054 c 128,-1,4
 306 1047 306 1047 310 1047 c 0,5,6
 330.926 1049 330.926 1049 366.5 1051 c 128,-1,7
 402 1053 402 1053 420 1054.5 c 128,-1,8
 438 1056 438 1056 465 1060.5 c 128,-1,9
 492 1065 492 1065 518 1073.5 c 128,-1,10
 544 1082 544 1082 574 1095 c 0,11,12
 586 1100 586 1100 608.5 1109.5 c 128,-1,13
 631 1119 631 1119 642 1123.5 c 128,-1,14
 653 1128 653 1128 668.5 1137.5 c 128,-1,15
 684 1147 684 1147 691.5 1156.5 c 128,-1,16
 699 1166 699 1166 705 1181 c 128,-1,17
 711 1196 711 1196 712 1215 c 0,18,19
 712 1227 712 1227 695.5 1266 c 128,-1,20
 679 1305 679 1305 670 1305 c 0,21,22
 643 1305 643 1305 550 1221 c 0,23,24
 522 1196 522 1196 488 1173.5 c 128,-1,25
 454 1151 454 1151 399.5 1120.5 c 128,-1,26
 345 1090 345 1090 334 1083 c 1,27,-1
 310 1089 l 1,0,-1
392 840 m 1,28,-1
 363 831 l 1,29,-1
 352 806 l 1,30,31
 332 789 332 789 321 769 c 2,32,-1
 310 749 l 1,33,-1
 299 729 l 2,34,35
 288 709 288 709 294 699 c 2,36,-1
 300 690 l 1,37,-1
 306 680 l 1,38,-1
 312 670 l 1,39,-1
 333 665 l 1,40,-1
 345 645 l 1,41,-1
 366 643 l 1,42,43
 396 650 396 650 422 642 c 2,44,-1
 448 634 l 1,45,-1
 473 625 l 1,46,-1
 499 617 l 1,47,-1
 499 675 l 1,48,-1
 499 733 l 1,49,-1
 499 790 l 1,50,-1
 499 848 l 1,51,-1
 477 850 l 1,52,-1
 456 853 l 1,53,-1
 434 855 l 2,54,55
 412 857 412 857 392 840 c 1,28,-1
757 923 m 1,56,-1
 757 904 l 1,57,-1
 757 884 l 1,58,-1
 730 884 l 1,59,-1
 702 884 l 1,60,-1
 686 871 l 2,61,62
 670 857 670 857 666 824 c 2,63,-1
 662 790 l 1,64,-1
 653 786 l 1,65,-1
 641 799 l 1,66,-1
 635 777 l 1,67,-1
 626 772 l 1,68,-1
 632 754 l 1,69,-1
 636 725 l 1,70,-1
 645 719 l 1,71,72
 651 701 651 701 645 694 c 2,73,-1
 639 688 l 1,74,-1
 632 681 l 1,75,-1
 626 674 l 1,76,-1
 635 666 l 1,77,-1
 641 648 l 1,78,-1
 653 649 l 1,79,-1
 662 640 l 1,80,-1
 662 595 l 1,81,-1
 662 550 l 1,82,-1
 656 502 l 1,83,-1
 662 460 l 1,84,-1
 656 402 l 1,85,-1
 662 350 l 1,86,-1
 675 320 l 2,87,88
 687 290 687 290 714 270 c 1,89,-1
 740 249 l 1,90,-1
 754 249 l 1,91,-1
 768 249 l 1,92,-1
 763 231 l 1,93,-1
 758 213 l 1,94,-1
 596 211 l 1,95,-1
 514 210 l 1,96,-1
 433 209 l 1,97,-1
 445 218 l 1,98,-1
 433 228 l 1,99,-1
 433 237 l 1,100,-1
 433 246 l 1,101,-1
 443 247 l 1,102,-1
 452 248 l 1,103,-1
 462 249 l 1,104,105
 474 241 474 241 489 244 c 1,106,-1
 489 262 l 1,107,-1
 498 268 l 2,108,109
 507 274 507 274 509 284 c 2,110,-1
 511 295 l 1,111,-1
 513 305 l 1,112,-1
 515 315 l 1,113,-1
 514 365 l 1,114,-1
 513 416 l 1,115,-1
 512 466 l 1,116,-1
 511 516 l 1,117,-1
 450 531 l 1,118,-1
 388 546 l 1,119,-1
 327 561 l 1,120,-1
 265 576 l 1,121,-1
 263 555 l 1,122,-1
 249 539 l 1,123,-1
 244 509 l 1,124,-1
 246 487 l 1,125,-1
 247 458 l 1,126,-1
 234 425 l 1,127,-1
 232 393 l 1,128,-1
 224 360 l 1,129,-1
 200 330 l 1,130,-1
 180 303 l 1,131,-1
 153 269 l 2,132,133
 129 239 129 239 105 216 c 2,134,-1
 82 194 l 1,135,-1
 58 171 l 2,136,137
 34 148 34 148 10 137 c 1,138,-1
 -13 125 l 1,139,-1
 -37 114 l 2,140,141
 -61 102 -61 102 -108 102 c 2,142,-1
 -155 102 l 1,143,-1
 -131 130 l 1,144,-1
 -109 132 l 1,145,-1
 -88 134 l 1,146,-1
 -66 136 l 2,147,148
 -45 138 -45 138 -25 159 c 2,149,-1
 -5 180 l 1,150,-1
 15 200 l 2,151,152
 35 221 35 221 52 262 c 2,153,-1
 68 303 l 1,154,-1
 85 343 l 1,155,156
 101 384 101 384 105 439 c 2,157,-1
 110 494 l 1,158,-1
 123 542 l 1,159,-1
 118 603 l 1,160,-1
 117 612 l 1,161,-1
 97 626 l 1,162,-1
 87 638 l 1,163,164
 76 649 76 649 78 661 c 2,165,-1
 80 672 l 1,166,-1
 82 684 l 2,167,168
 84 695 84 695 99 694 c 2,169,-1
 114 693 l 1,170,-1
 129 692 l 1,171,-1
 144 691 l 1,172,-1
 154 708 l 1,173,-1
 164 720 l 1,174,-1
 173 743 l 1,175,176
 195 757 195 757 205 785 c 1,177,-1
 226 810 l 1,178,-1
 248 834 l 1,179,180
 269 859 269 859 291 863 c 1,181,-1
 314 891 l 1,182,-1
 336 907 l 2,183,184
 358 923 358 923 379 923 c 2,185,-1
 399 923 l 1,186,-1
 420 923 l 1,187,-1
 449 914 l 1,188,-1
 519 923 l 1,189,-1
 590 914 l 1,190,-1
 678 923 l 1,191,-1
 757 923 l 1,56,-1
EndSplineSet
EndChar

StartChar: acircumflex
Encoding: 226 226 107
Width: 793
Flags: W
LayerCount: 2
Fore
SplineSet
274 1113.2 m 1,0,1
 277.5 1119.7 277.5 1119.7 273.25 1096.35 c 128,-1,2
 269 1073 269 1073 272 1069 c 128,-1,3
 275 1065 275 1065 292 1065 c 0,4,5
 321 1065 321 1065 357 1087 c 0,6,7
 375.363 1098.22 375.363 1098.22 436 1144.5 c 0,8,9
 493.01 1188.01 493.01 1188.01 496 1191 c 0,10,11
 497 1192 497 1192 504.5 1197 c 128,-1,12
 512 1202 512 1202 516 1204 c 128,-1,13
 520 1206 520 1206 527 1209.5 c 128,-1,14
 534 1213 534 1213 541.5 1214 c 128,-1,15
 549 1215 549 1215 556 1215 c 0,16,17
 573 1215 573 1215 585.5 1193.5 c 128,-1,18
 598 1172 598 1172 604 1146 c 128,-1,19
 610 1120 610 1120 617.5 1098.5 c 128,-1,20
 625 1077 625 1077 634 1077 c 0,21,22
 660 1077 660 1077 677 1099 c 128,-1,23
 694 1121 694 1121 694 1149 c 0,24,25
 694 1173 694 1173 681.5 1197 c 128,-1,26
 669 1221 669 1221 646 1251.5 c 128,-1,27
 623 1282 623 1282 616 1293 c 0,28,29
 589 1337 589 1337 550 1353 c 1,30,31
 530 1353 530 1353 508.5 1338.5 c 128,-1,32
 487 1324 487 1324 463 1301 c 128,-1,33
 439 1278 439 1278 424 1269 c 0,34,35
 414.285 1263.17 414.285 1263.17 358 1203 c 2,36,-1
 274 1113.2 l 1,0,1
392 840 m 1,37,-1
 363 831 l 1,38,-1
 352 806 l 1,39,40
 332 789 332 789 321 769 c 2,41,-1
 310 749 l 1,42,-1
 299 729 l 2,43,44
 288 709 288 709 294 699 c 2,45,-1
 300 690 l 1,46,-1
 306 680 l 1,47,-1
 312 670 l 1,48,-1
 333 665 l 1,49,-1
 345 645 l 1,50,-1
 366 643 l 1,51,52
 396 650 396 650 422 642 c 2,53,-1
 448 634 l 1,54,-1
 473 625 l 1,55,-1
 499 617 l 1,56,-1
 499 675 l 1,57,-1
 499 733 l 1,58,-1
 499 790 l 1,59,-1
 499 848 l 1,60,-1
 477 850 l 1,61,-1
 456 853 l 1,62,-1
 434 855 l 2,63,64
 412 857 412 857 392 840 c 1,37,-1
757 923 m 1,65,-1
 757 904 l 1,66,-1
 757 884 l 1,67,-1
 730 884 l 1,68,-1
 702 884 l 1,69,-1
 686 871 l 2,70,71
 670 857 670 857 666 824 c 2,72,-1
 662 790 l 1,73,-1
 653 786 l 1,74,-1
 641 799 l 1,75,-1
 635 777 l 1,76,-1
 626 772 l 1,77,-1
 632 754 l 1,78,-1
 636 725 l 1,79,-1
 645 719 l 1,80,81
 651 701 651 701 645 694 c 2,82,-1
 639 688 l 1,83,-1
 632 681 l 1,84,-1
 626 674 l 1,85,-1
 635 666 l 1,86,-1
 641 648 l 1,87,-1
 653 649 l 1,88,-1
 662 640 l 1,89,-1
 662 595 l 1,90,-1
 662 550 l 1,91,-1
 656 502 l 1,92,-1
 662 460 l 1,93,-1
 656 402 l 1,94,-1
 662 350 l 1,95,-1
 675 320 l 2,96,97
 687 290 687 290 714 270 c 1,98,-1
 740 249 l 1,99,-1
 754 249 l 1,100,-1
 768 249 l 1,101,-1
 763 231 l 1,102,-1
 758 213 l 1,103,-1
 596 211 l 1,104,-1
 514 210 l 1,105,-1
 433 209 l 1,106,-1
 445 218 l 1,107,-1
 433 228 l 1,108,-1
 433 237 l 1,109,-1
 433 246 l 1,110,-1
 443 247 l 1,111,-1
 452 248 l 1,112,-1
 462 249 l 1,113,114
 474 241 474 241 489 244 c 1,115,-1
 489 262 l 1,116,-1
 498 268 l 2,117,118
 507 274 507 274 509 284 c 2,119,-1
 511 295 l 1,120,-1
 513 305 l 1,121,-1
 515 315 l 1,122,-1
 514 365 l 1,123,-1
 513 416 l 1,124,-1
 512 466 l 1,125,-1
 511 516 l 1,126,-1
 450 531 l 1,127,-1
 388 546 l 1,128,-1
 327 561 l 1,129,-1
 265 576 l 1,130,-1
 263 555 l 1,131,-1
 249 539 l 1,132,-1
 244 509 l 1,133,-1
 246 487 l 1,134,-1
 247 458 l 1,135,-1
 234 425 l 1,136,-1
 232 393 l 1,137,-1
 224 360 l 1,138,-1
 200 330 l 1,139,-1
 180 303 l 1,140,-1
 153 269 l 2,141,142
 129 239 129 239 105 216 c 2,143,-1
 82 194 l 1,144,-1
 58 171 l 2,145,146
 34 148 34 148 10 137 c 1,147,-1
 -13 125 l 1,148,-1
 -37 114 l 2,149,150
 -61 102 -61 102 -108 102 c 2,151,-1
 -155 102 l 1,152,-1
 -131 130 l 1,153,-1
 -109 132 l 1,154,-1
 -88 134 l 1,155,-1
 -66 136 l 2,156,157
 -45 138 -45 138 -25 159 c 2,158,-1
 -5 180 l 1,159,-1
 15 200 l 2,160,161
 35 221 35 221 52 262 c 2,162,-1
 68 303 l 1,163,-1
 85 343 l 1,164,165
 101 384 101 384 105 439 c 2,166,-1
 110 494 l 1,167,-1
 123 542 l 1,168,-1
 118 603 l 1,169,-1
 117 612 l 1,170,-1
 97 626 l 1,171,-1
 87 638 l 1,172,173
 76 649 76 649 78 661 c 2,174,-1
 80 672 l 1,175,-1
 82 684 l 2,176,177
 84 695 84 695 99 694 c 2,178,-1
 114 693 l 1,179,-1
 129 692 l 1,180,-1
 144 691 l 1,181,-1
 154 708 l 1,182,-1
 164 720 l 1,183,-1
 173 743 l 1,184,185
 195 757 195 757 205 785 c 1,186,-1
 226 810 l 1,187,-1
 248 834 l 1,188,189
 269 859 269 859 291 863 c 1,190,-1
 314 891 l 1,191,-1
 336 907 l 2,192,193
 358 923 358 923 379 923 c 2,194,-1
 399 923 l 1,195,-1
 420 923 l 1,196,-1
 449 914 l 1,197,-1
 519 923 l 1,198,-1
 590 914 l 1,199,-1
 678 923 l 1,200,-1
 757 923 l 1,65,-1
EndSplineSet
EndChar

StartChar: atilde
Encoding: 227 227 109
Width: 793
Flags: W
LayerCount: 2
Fore
SplineSet
233 1063 m 1,0,-1
 237 1083 l 1,1,2
 247 1091 247 1091 269.5 1115.5 c 128,-1,3
 292 1140 292 1140 312 1154 c 0,4,5
 342 1175 342 1175 357 1175 c 0,6,7
 358 1175 358 1175 409 1195 c 1,8,-1
 497 1183 l 1,9,-1
 625 1147 l 1,10,-1
 713 1143 l 1,11,-1
 777 1171 l 1,12,13
 801.663 1186.96 801.663 1186.96 806.853 1186.75 c 0,14,15
 812.849 1186.52 812.849 1186.52 793.349 1166.55 c 0,16,17
 748.55 1120.66 748.55 1120.66 717 1103 c 1,18,19
 710 1096 710 1096 690.5 1085.5 c 128,-1,20
 671 1075 671 1075 665 1071 c 1,21,-1
 581 1071 l 1,22,-1
 493 1111 l 1,23,-1
 401 1111 l 1,24,-1
 325 1071 l 1,25,-1
 233 1063 l 1,0,-1
392 840 m 1,26,-1
 363 831 l 1,27,-1
 352 806 l 1,28,29
 332 789 332 789 321 769 c 2,30,-1
 310 749 l 1,31,-1
 299 729 l 2,32,33
 288 709 288 709 294 699 c 2,34,-1
 300 690 l 1,35,-1
 306 680 l 1,36,-1
 312 670 l 1,37,-1
 333 665 l 1,38,-1
 345 645 l 1,39,-1
 366 643 l 1,40,41
 396 650 396 650 422 642 c 2,42,-1
 448 634 l 1,43,-1
 473 625 l 1,44,-1
 499 617 l 1,45,-1
 499 675 l 1,46,-1
 499 733 l 1,47,-1
 499 790 l 1,48,-1
 499 848 l 1,49,-1
 477 850 l 1,50,-1
 456 853 l 1,51,-1
 434 855 l 2,52,53
 412 857 412 857 392 840 c 1,26,-1
757 923 m 1,54,-1
 757 904 l 1,55,-1
 757 884 l 1,56,-1
 730 884 l 1,57,-1
 702 884 l 1,58,-1
 686 871 l 2,59,60
 670 857 670 857 666 824 c 2,61,-1
 662 790 l 1,62,-1
 653 786 l 1,63,-1
 641 799 l 1,64,-1
 635 777 l 1,65,-1
 626 772 l 1,66,-1
 632 754 l 1,67,-1
 636 725 l 1,68,-1
 645 719 l 1,69,70
 651 701 651 701 645 694 c 2,71,-1
 639 688 l 1,72,-1
 632 681 l 1,73,-1
 626 674 l 1,74,-1
 635 666 l 1,75,-1
 641 648 l 1,76,-1
 653 649 l 1,77,-1
 662 640 l 1,78,-1
 662 595 l 1,79,-1
 662 550 l 1,80,-1
 656 502 l 1,81,-1
 662 460 l 1,82,-1
 656 402 l 1,83,-1
 662 350 l 1,84,-1
 675 320 l 2,85,86
 687 290 687 290 714 270 c 1,87,-1
 740 249 l 1,88,-1
 754 249 l 1,89,-1
 768 249 l 1,90,-1
 763 231 l 1,91,-1
 758 213 l 1,92,-1
 596 211 l 1,93,-1
 514 210 l 1,94,-1
 433 209 l 1,95,-1
 445 218 l 1,96,-1
 433 228 l 1,97,-1
 433 237 l 1,98,-1
 433 246 l 1,99,-1
 443 247 l 1,100,-1
 452 248 l 1,101,-1
 462 249 l 1,102,103
 474 241 474 241 489 244 c 1,104,-1
 489 262 l 1,105,-1
 498 268 l 2,106,107
 507 274 507 274 509 284 c 2,108,-1
 511 295 l 1,109,-1
 513 305 l 1,110,-1
 515 315 l 1,111,-1
 514 365 l 1,112,-1
 513 416 l 1,113,-1
 512 466 l 1,114,-1
 511 516 l 1,115,-1
 450 531 l 1,116,-1
 388 546 l 1,117,-1
 327 561 l 1,118,-1
 265 576 l 1,119,-1
 263 555 l 1,120,-1
 249 539 l 1,121,-1
 244 509 l 1,122,-1
 246 487 l 1,123,-1
 247 458 l 1,124,-1
 234 425 l 1,125,-1
 232 393 l 1,126,-1
 224 360 l 1,127,-1
 200 330 l 1,128,-1
 180 303 l 1,129,-1
 153 269 l 2,130,131
 129 239 129 239 105 216 c 2,132,-1
 82 194 l 1,133,-1
 58 171 l 2,134,135
 34 148 34 148 10 137 c 1,136,-1
 -13 125 l 1,137,-1
 -37 114 l 2,138,139
 -61 102 -61 102 -108 102 c 2,140,-1
 -155 102 l 1,141,-1
 -131 130 l 1,142,-1
 -109 132 l 1,143,-1
 -88 134 l 1,144,-1
 -66 136 l 2,145,146
 -45 138 -45 138 -25 159 c 2,147,-1
 -5 180 l 1,148,-1
 15 200 l 2,149,150
 35 221 35 221 52 262 c 2,151,-1
 68 303 l 1,152,-1
 85 343 l 1,153,154
 101 384 101 384 105 439 c 2,155,-1
 110 494 l 1,156,-1
 123 542 l 1,157,-1
 118 603 l 1,158,-1
 117 612 l 1,159,-1
 97 626 l 1,160,-1
 87 638 l 1,161,162
 76 649 76 649 78 661 c 2,163,-1
 80 672 l 1,164,-1
 82 684 l 2,165,166
 84 695 84 695 99 694 c 2,167,-1
 114 693 l 1,168,-1
 129 692 l 1,169,-1
 144 691 l 1,170,-1
 154 708 l 1,171,-1
 164 720 l 1,172,-1
 173 743 l 1,173,174
 195 757 195 757 205 785 c 1,175,-1
 226 810 l 1,176,-1
 248 834 l 1,177,178
 269 859 269 859 291 863 c 1,179,-1
 314 891 l 1,180,-1
 336 907 l 2,181,182
 358 923 358 923 379 923 c 2,183,-1
 399 923 l 1,184,-1
 420 923 l 1,185,-1
 449 914 l 1,186,-1
 519 923 l 1,187,-1
 590 914 l 1,188,-1
 678 923 l 1,189,-1
 757 923 l 1,54,-1
EndSplineSet
Validated: 1
EndChar

